{
copyright = "Copyright (c) 2015, mooniak";
customParameters = (
{
name = vendorID;
value = PfEd;
},
{
name = glyphOrder;
value = (
    ".notdef",
    uni0D82,
    "si_A",
    "si_U",
    "si_Ga",
    "si_Tta",
    "si_Dda",
    "si_Ddha",
    "si_Nna",
    "si_Da",
    "si_Ma",
    "si_Ya",
    "si_Ra",
    "si_La",
    "si_Va",
    "si_Sa",
    "si_TI",
    uni0020,
    "si_TI.rakar",
    uni0031,
    "NameMe.12",
    uni0044,
    uni0046,
    uni0047,
    uni0049
);
}
);
date = "2015-08-24 15:04:41 +0000";
designerURL = "http://www.mooniak.com/typography";
familyName = "Ayanna Narrow";
featurePrefixes = (
{
automatic = 1;
code = "languagesystem DFLT dflt;\012";
name = Languagesystems;
}
);
features = (
{
automatic = 1;
code = "feature sups;\012feature frac;\012feature ordn;\012";
name = aalt;
},
{
automatic = 1;
code = "sub one by onesuperior;\012sub two by twosuperior;\012sub three by threesuperior;\012";
name = sups;
},
{
automatic = 1;
code = "sub one slash four by onequarter;\012sub one slash two by onehalf;\012sub three slash four by threequarters;\012";
name = frac;
},
{
automatic = 1;
code = "sub [zero one two three four five six seven eight nine] [A a]' by ordfeminine;\012sub [zero one two three four five six seven eight nine] [O o]' by ordmasculine;\012";
name = ordn;
},
{
automatic = 1;
code = "sub f i by fi;\012sub f l by fl;\012";
name = liga;
}
);
fontMaster = (
{
alignmentZones = (
"{725, 7}",
"{675, 7}",
"{500, 7}",
"{0, -7}",
"{-205, -7}"
);
ascender = 725;
capHeight = 675;
customParameters = (
{
name = typoAscender;
value = 819;
},
{
name = typoDescender;
value = -205;
},
{
name = typoLineGap;
value = 92;
},
{
name = underlinePosition;
value = -102;
},
{
name = underlineThickness;
value = 51;
}
);
descender = -205;
horizontalStems = (
33,
35,
37,
39,
43
);
id = "CC11FE7D-5FF0-4B40-9597-DFC61EB94F41";
userData = {
angle = 5;
height = 37;
width = 42;
};
verticalStems = (
40,
42,
43,
46
);
weight = Light;
weightValue = 40;
width = Condensed;

glyphs = (
{
color = 3;
glyphname = A;
lastChange = "2015-11-05 07:49:53 +0000";
layers = (
{
anchors = (
{
name = ogonek;
position = "{503, 5}";
},
{
name = top;
position = "{257, 645}";
}
);
layerId = "CC11FE7D-5FF0-4B40-9597-DFC61EB94F41";
name = "Light Condensed";
paths = (
{
closed = 1;
nodes = (
"55 0 LINE",
"220 525 LINE SMOOTH",
"230 558 OFFCURVE",
"248 618 OFFCURVE",
"257 649 CURVE",
"253 649 LINE",
"262 618 OFFCURVE",
"280 558 OFFCURVE",
"290 525 CURVE SMOOTH",
"454 0 LINE",
"503 0 LINE",
"288 675 LINE",
"226 675 LINE",
"10 0 LINE"
);
},
{
closed = 1;
nodes = (
"413 180 LINE",
"413 215 LINE",
"100 215 LINE",
"100 180 LINE"
);
}
);
width = 513;
},
{
anchors = (
{
name = ogonek;
position = "{560, 10}";
},
{
name = top;
position = "{287, 660}";
}
);
background = {
paths = (
{
closed = 1;
nodes = (
"311 675 LINE",
"205 675 LINE",
"-1 0 LINE",
"120 0 LINE"
);
},
{
closed = 1;
nodes = (
"409 236 LINE",
"136 236 LINE",
"136 136 LINE",
"409 136 LINE"
);
},
{
closed = 1;
nodes = (
"426 0 LINE",
"557 0 LINE",
"350 675 LINE",
"236 675 LINE"
);
}
);
};
layerId = "6114C541-D024-4A3E-9713-6FAF49EAB318";
name = "Bold Condensed";
paths = (
{
closed = 1;
nodes = (
"129 0 LINE",
"234 372 LINE SMOOTH",
"249 425 OFFCURVE",
"281 563 OFFCURVE",
"295 617 CURVE",
"264 617 LINE",
"278 564 OFFCURVE",
"307 430 OFFCURVE",
"321 378 CURVE SMOOTH",
"424 0 LINE",
"560 0 LINE",
"361 675 LINE",
"201 675 LINE",
"-3 0 LINE"
);
},
{
closed = 1;
nodes = (
"409 136 LINE",
"409 236 LINE",
"136 236 LINE",
"136 136 LINE"
);
}
);
width = 557;
}
);
unicode = 0041;
},
{
color = 3;
glyphname = AE;
lastChange = "2015-11-05 07:49:53 +0000";
layers = (
{
anchors = (
{
name = top;
position = "{468, 635}";
}
);
components = (
{
name = E;
transform = "{1, 0, 0, 1, 347, 0}";
}
);
layerId = "CC11FE7D-5FF0-4B40-9597-DFC61EB94F41";
name = "Light Condensed";
paths = (
{
closed = 1;
nodes = (
"59 0 LINE",
"334 473 LINE SMOOTH",
"368 532 OFFCURVE",
"401 590 OFFCURVE",
"435 649 CURVE",
"432 649 LINE",
"467 675 LINE",
"405 675 LINE",
"10 0 LINE"
);
},
{
closed = 1;
nodes = (
"456 181 LINE",
"456 216 LINE",
"162 215 LINE",
"143 180 LINE"
);
}
);
width = 810;
},
{
anchors = (
{
name = top;
position = "{458, 655}";
}
);
background = {
paths = (
{
closed = 1;
nodes = (
"792 0 LINE",
"792 134 LINE",
"565 134 LINE",
"565 283 LINE",
"778 283 LINE",
"778 410 LINE",
"565 410 LINE",
"565 544 LINE",
"786 544 LINE",
"786 675 LINE",
"334 675 LINE",
"16 0 LINE",
"174 0 LINE",
"236 140 LINE",
"416 140 LINE",
"416 0 LINE"
);
},
{
closed = 1;
nodes = (
"416 261 LINE",
"287 261 LINE",
"354 401 LINE SMOOTH",
"378 450 OFFCURVE",
"395 494 OFFCURVE",
"414 544 CURVE",
"416 544 LINE"
);
}
);
};
components = (
{
name = E;
transform = "{1, 0, 0, 1, 366, 0}";
}
);
layerId = "6114C541-D024-4A3E-9713-6FAF49EAB318";
name = "Bold Condensed";
paths = (
{
closed = 1;
nodes = (
"134 0 LINE",
"365 464 LINE SMOOTH",
"391 515 OFFCURVE",
"413 565 OFFCURVE",
"435 615 CURVE",
"426 615 LINE",
"504 675 LINE",
"346 675 LINE",
"-3 0 LINE"
);
},
{
closed = 1;
nodes = (
"466 146 LINE",
"466 246 LINE",
"179 246 LINE",
"179 146 LINE"
);
}
);
width = 832;
}
);
leftMetricsKey = A;
rightMetricsKey = E;
unicode = 00C6;
},
{
color = 3;
glyphname = B;
lastChange = "2015-11-05 07:49:53 +0000";
layers = (
{
layerId = "CC11FE7D-5FF0-4B40-9597-DFC61EB94F41";
name = "Light Condensed";
paths = (
{
closed = 1;
nodes = (
"381 -3 OFFCURVE",
"456 75 OFFCURVE",
"456 194 CURVE SMOOTH",
"456 278 OFFCURVE",
"395 359 OFFCURVE",
"279 359 CURVE",
"279 352 LINE",
"358 352 OFFCURVE",
"437 421 OFFCURVE",
"437 517 CURVE SMOOTH",
"437 596 OFFCURVE",
"391 677 OFFCURVE",
"234 677 CURVE SMOOTH",
"187 677 OFFCURVE",
"132 677 OFFCURVE",
"85 675 CURVE",
"85 0 LINE",
"124 -3 OFFCURVE",
"160 -3 OFFCURVE",
"192 -3 CURVE SMOOTH"
);
},
{
closed = 1;
nodes = (
"127 650 LINE",
"113 637 LINE",
"153 639 OFFCURVE",
"190 640 OFFCURVE",
"227 640 CURVE SMOOTH",
"346 640 OFFCURVE",
"392 588 OFFCURVE",
"392 508 CURVE SMOOTH",
"392 430 OFFCURVE",
"334 369 OFFCURVE",
"215 369 CURVE SMOOTH",
"105 369 LINE",
"105 334 LINE",
"227 334 LINE SMOOTH",
"354 334 OFFCURVE",
"410 277 OFFCURVE",
"410 190 CURVE SMOOTH",
"410 74 OFFCURVE",
"327 34 OFFCURVE",
"208 34 CURVE SMOOTH",
"182 34 OFFCURVE",
"149 35 OFFCURVE",
"114 39 CURVE",
"127 26 LINE"
);
}
);
width = 503;
},
{
background = {
paths = (
{
closed = 1;
nodes = (
"397 -5 OFFCURVE",
"502 51 OFFCURVE",
"502 198 CURVE SMOOTH",
"502 288 OFFCURVE",
"429 362 OFFCURVE",
"316 362 CURVE",
"316 349 LINE",
"420 349 OFFCURVE",
"481 430 OFFCURVE",
"481 508 CURVE SMOOTH",
"481 628 OFFCURVE",
"380 679 OFFCURVE",
"249 679 CURVE SMOOTH",
"169 679 OFFCURVE",
"117 677 OFFCURVE",
"60 675 CURVE",
"60 0 LINE",
"113 -3 OFFCURVE",
"160 -5 OFFCURVE",
"208 -5 CURVE SMOOTH"
);
},
{
closed = 1;
nodes = (
"192 584 LINE",
"176 566 LINE",
"201 568 OFFCURVE",
"225 569 OFFCURVE",
"246 569 CURVE SMOOTH",
"301 569 OFFCURVE",
"349 548 OFFCURVE",
"349 489 CURVE SMOOTH",
"349 440 OFFCURVE",
"313 398 OFFCURVE",
"257 398 CURVE SMOOTH",
"126 398 LINE",
"126 296 LINE",
"266 296 LINE SMOOTH",
"330 296 OFFCURVE",
"372 250 OFFCURVE",
"372 201 CURVE SMOOTH",
"372 129 OFFCURVE",
"315 105 OFFCURVE",
"250 105 CURVE SMOOTH",
"227 105 OFFCURVE",
"205 107 OFFCURVE",
"176 111 CURVE",
"192 93 LINE"
);
}
);
};
layerId = "6114C541-D024-4A3E-9713-6FAF49EAB318";
name = "Bold Condensed";
paths = (
{
closed = 1;
nodes = (
"402 -5 OFFCURVE",
"507 51 OFFCURVE",
"507 198 CURVE SMOOTH",
"507 288 OFFCURVE",
"434 362 OFFCURVE",
"318 362 CURVE",
"318 349 LINE",
"422 349 OFFCURVE",
"483 430 OFFCURVE",
"483 508 CURVE SMOOTH",
"483 628 OFFCURVE",
"382 679 OFFCURVE",
"254 679 CURVE SMOOTH",
"174 679 OFFCURVE",
"117 677 OFFCURVE",
"60 675 CURVE",
"60 0 LINE",
"113 -3 OFFCURVE",
"160 -5 OFFCURVE",
"208 -5 CURVE SMOOTH"
);
},
{
closed = 1;
nodes = (
"192 584 LINE",
"176 566 LINE",
"201 568 OFFCURVE",
"230 569 OFFCURVE",
"251 569 CURVE SMOOTH",
"303 569 OFFCURVE",
"351 548 OFFCURVE",
"351 489 CURVE SMOOTH",
"351 434 OFFCURVE",
"317 398 OFFCURVE",
"262 398 CURVE SMOOTH",
"126 398 LINE",
"126 296 LINE",
"271 296 LINE SMOOTH",
"341 296 OFFCURVE",
"374 256 OFFCURVE",
"374 201 CURVE SMOOTH",
"374 129 OFFCURVE",
"317 105 OFFCURVE",
"255 105 CURVE SMOOTH",
"232 105 OFFCURVE",
"205 107 OFFCURVE",
"176 111 CURVE",
"192 93 LINE"
);
}
);
width = 537;
}
);
unicode = 0042;
},
{
color = 3;
glyphname = C;
lastChange = "2015-11-05 07:49:53 +0000";
layers = (
{
anchors = (
{
name = bottom;
position = "{298, 0}";
},
{
name = top;
position = "{298, 645}";
}
);
layerId = "CC11FE7D-5FF0-4B40-9597-DFC61EB94F41";
name = "Light Condensed";
paths = (
{
closed = 1;
nodes = (
"399 51 OFFCURVE",
"349 33 OFFCURVE",
"295 33 CURVE SMOOTH",
"164 33 OFFCURVE",
"87 145 OFFCURVE",
"87 336 CURVE SMOOTH",
"87 528 OFFCURVE",
"165 643 OFFCURVE",
"295 643 CURVE SMOOTH",
"365 643 OFFCURVE",
"423 609 OFFCURVE",
"457 525 CURVE",
"497 540 LINE",
"459 637 OFFCURVE",
"383 682 OFFCURVE",
"297 682 CURVE SMOOTH",
"146 682 OFFCURVE",
"40 557 OFFCURVE",
"40 336 CURVE SMOOTH",
"40 123 OFFCURVE",
"137 -7 OFFCURVE",
"290 -7 CURVE SMOOTH",
"352 -7 OFFCURVE",
"411 14 OFFCURVE",
"483 61 CURVE",
"464 92 LINE"
);
}
);
width = 505;
},
{
anchors = (
{
name = bottom;
position = "{307, 0}";
},
{
name = top;
position = "{302, 660}";
}
);
background = {
paths = (
{
closed = 1;
nodes = (
"419 118 OFFCURVE",
"366 100 OFFCURVE",
"320 100 CURVE SMOOTH",
"223 100 OFFCURVE",
"170 181 OFFCURVE",
"170 336 CURVE SMOOTH",
"170 493 OFFCURVE",
"227 575 OFFCURVE",
"306 575 CURVE SMOOTH",
"354 575 OFFCURVE",
"391 547 OFFCURVE",
"412 484 CURVE",
"541 514 LINE",
"510 629 OFFCURVE",
"423 690 OFFCURVE",
"307 690 CURVE SMOOTH",
"165 690 OFFCURVE",
"30 575 OFFCURVE",
"30 335 CURVE SMOOTH",
"30 114 OFFCURVE",
"144 -17 OFFCURVE",
"306 -17 CURVE SMOOTH",
"374 -17 OFFCURVE",
"449 6 OFFCURVE",
"527 56 CURVE",
"480 155 LINE"
);
}
);
};
layerId = "6114C541-D024-4A3E-9713-6FAF49EAB318";
name = "Bold Condensed";
paths = (
{
closed = 1;
nodes = (
"420 118 OFFCURVE",
"370 103 OFFCURVE",
"327 103 CURVE SMOOTH",
"231 103 OFFCURVE",
"170 181 OFFCURVE",
"170 336 CURVE SMOOTH",
"170 493 OFFCURVE",
"222 575 OFFCURVE",
"304 575 CURVE SMOOTH",
"351 575 OFFCURVE",
"388 547 OFFCURVE",
"409 484 CURVE",
"538 514 LINE",
"507 629 OFFCURVE",
"425 690 OFFCURVE",
"305 690 CURVE SMOOTH",
"160 690 OFFCURVE",
"30 575 OFFCURVE",
"30 335 CURVE SMOOTH",
"30 115 OFFCURVE",
"147 -15 OFFCURVE",
"308 -15 CURVE SMOOTH",
"374 -15 OFFCURVE",
"448 6 OFFCURVE",
"524 54 CURVE",
"475 150 LINE"
);
}
);
width = 550;
}
);
unicode = 0043;
},
{
color = 3;
glyphname = D;
lastChange = "2015-11-05 07:49:53 +0000";
layers = (
{
anchors = (
{
name = center;
position = "{280, 338}";
},
{
name = top;
position = "{258, 645}";
}
);
layerId = "CC11FE7D-5FF0-4B40-9597-DFC61EB94F41";
name = "Light Condensed";
paths = (
{
closed = 1;
nodes = (
"194 678 OFFCURVE",
"146 676 OFFCURVE",
"85 675 CURVE",
"85 0 LINE",
"146 -2 OFFCURVE",
"192 -3 OFFCURVE",
"239 -3 CURVE SMOOTH",
"430 -3 OFFCURVE",
"520 149 OFFCURVE",
"520 336 CURVE SMOOTH",
"520 526 OFFCURVE",
"441 678 OFFCURVE",
"241 678 CURVE SMOOTH"
);
},
{
closed = 1;
nodes = (
"205 35 OFFCURVE",
"162 35 OFFCURVE",
"114 37 CURVE",
"127 25 LINE",
"127 650 LINE",
"114 638 LINE",
"162 639 OFFCURVE",
"207 640 OFFCURVE",
"241 640 CURVE SMOOTH",
"407 640 OFFCURVE",
"474 505 OFFCURVE",
"474 336 CURVE SMOOTH",
"474 170 OFFCURVE",
"404 35 OFFCURVE",
"239 35 CURVE SMOOTH"
);
}
);
width = 560;
},
{
anchors = (
{
name = center;
position = "{291, 338}";
},
{
name = top;
position = "{271, 660}";
}
);
background = {
paths = (
{
closed = 1;
nodes = (
"196 677 OFFCURVE",
"120 676 OFFCURVE",
"60 675 CURVE",
"60 0 LINE",
"121 -1 OFFCURVE",
"193 -2 OFFCURVE",
"253 -3 CURVE SMOOTH",
"471 -7 OFFCURVE",
"563 140 OFFCURVE",
"563 336 CURVE SMOOTH",
"563 522 OFFCURVE",
"485 682 OFFCURVE",
"256 678 CURVE SMOOTH"
);
},
{
closed = 1;
nodes = (
"230 104 OFFCURVE",
"206 104 OFFCURVE",
"182 105 CURVE",
"182 570 LINE",
"206 571 OFFCURVE",
"232 571 OFFCURVE",
"256 571 CURVE SMOOTH",
"393 571 OFFCURVE",
"433 454 OFFCURVE",
"433 335 CURVE SMOOTH",
"433 207 OFFCURVE",
"392 104 OFFCURVE",
"254 104 CURVE SMOOTH"
);
}
);
};
layerId = "6114C541-D024-4A3E-9713-6FAF49EAB318";
name = "Bold Condensed";
paths = (
{
closed = 1;
nodes = (
"196 677 OFFCURVE",
"120 676 OFFCURVE",
"60 675 CURVE",
"60 0 LINE",
"121 -1 OFFCURVE",
"193 -2 OFFCURVE",
"253 -3 CURVE SMOOTH",
"466 -7 OFFCURVE",
"553 140 OFFCURVE",
"553 336 CURVE SMOOTH",
"553 522 OFFCURVE",
"480 682 OFFCURVE",
"256 678 CURVE SMOOTH"
);
},
{
closed = 1;
nodes = (
"230 109 OFFCURVE",
"197 109 OFFCURVE",
"173 110 CURVE",
"192 90 LINE",
"192 585 LINE",
"173 565 LINE",
"197 566 OFFCURVE",
"232 566 OFFCURVE",
"256 566 CURVE SMOOTH",
"381 566 OFFCURVE",
"413 449 OFFCURVE",
"413 335 CURVE SMOOTH",
"413 207 OFFCURVE",
"380 109 OFFCURVE",
"254 109 CURVE SMOOTH"
);
}
);
width = 581;
}
);
unicode = 0044;
},
{
glyphname = Eth;
lastChange = "2015-11-05 07:49:53 +0000";
layers = (
{
components = (
{
name = D;
transform = "{1, 0, 0, 1, 2, 0}";
}
);
layerId = "CC11FE7D-5FF0-4B40-9597-DFC61EB94F41";
name = "Light Condensed";
paths = (
{
closed = 1;
nodes = (
"7 371 LINE",
"7 336 LINE",
"292 336 LINE",
"292 371 LINE"
);
}
);
width = 562;
},
{
components = (
{
name = D;
transform = "{1, 0, 0, 1, 11, 0}";
}
);
layerId = "6114C541-D024-4A3E-9713-6FAF49EAB318";
name = "Bold Condensed";
paths = (
{
closed = 1;
nodes = (
"3 397 LINE",
"3 297 LINE",
"311 297 LINE",
"311 397 LINE"
);
}
);
width = 592;
}
);
unicode = 00D0;
},
{
color = 3;
glyphname = E;
lastChange = "2015-11-05 07:49:53 +0000";
layers = (
{
anchors = (
{
name = bottom;
position = "{241, 0}";
},
{
name = ogonek;
position = "{408, 5}";
},
{
name = top;
position = "{244, 645}";
}
);
layerId = "CC11FE7D-5FF0-4B40-9597-DFC61EB94F41";
name = "Light Condensed";
paths = (
{
closed = 1;
nodes = (
"127 25 LINE",
"127 346 LINE",
"114 335 LINE",
"370 335 LINE",
"370 372 LINE",
"114 372 LINE",
"127 361 LINE",
"127 650 LINE",
"114 638 LINE",
"399 638 LINE",
"399 675 LINE",
"85 675 LINE",
"85 0 LINE",
"408 0 LINE",
"408 37 LINE",
"114 37 LINE"
);
}
);
width = 463;
},
{
anchors = (
{
name = bottom;
position = "{233, 0}";
},
{
name = ogonek;
position = "{426, 10}";
},
{
name = top;
position = "{233, 660}";
}
);
background = {
paths = (
{
closed = 1;
nodes = (
"182 0 LINE",
"182 675 LINE",
"60 675 LINE",
"60 0 LINE"
);
},
{
closed = 1;
nodes = (
"443 0 LINE",
"443 105 LINE",
"119 105 LINE",
"119 0 LINE"
);
},
{
closed = 1;
nodes = (
"405 295 LINE",
"405 398 LINE",
"119 398 LINE",
"119 295 LINE"
);
},
{
closed = 1;
nodes = (
"434 570 LINE",
"434 675 LINE",
"119 675 LINE",
"119 570 LINE"
);
}
);
};
layerId = "6114C541-D024-4A3E-9713-6FAF49EAB318";
name = "Bold Condensed";
paths = (
{
closed = 1;
nodes = (
"192 85 LINE",
"192 318 LINE",
"172 293 LINE",
"388 293 LINE",
"388 401 LINE",
"172 401 LINE",
"192 381 LINE",
"192 590 LINE",
"172 565 LINE",
"417 565 LINE",
"417 675 LINE",
"60 675 LINE",
"60 0 LINE",
"426 0 LINE",
"426 110 LINE",
"172 110 LINE"
);
}
);
width = 466;
}
);
unicode = 0045;
},
{
color = 3;
glyphname = F;
lastChange = "2015-11-05 07:49:53 +0000";
layers = (
{
layerId = "CC11FE7D-5FF0-4B40-9597-DFC61EB94F41";
name = "Light Condensed";
paths = (
{
closed = 1;
nodes = (
"402 675 LINE",
"85 675 LINE",
"85 0 LINE",
"127 0 LINE",
"127 356 LINE",
"114 345 LINE",
"373 345 LINE",
"373 382 LINE",
"114 382 LINE",
"127 371 LINE",
"127 650 LINE",
"114 638 LINE",
"402 638 LINE"
);
}
);
width = 442;
},
{
background = {
paths = (
{
closed = 1;
nodes = (
"60 675 LINE",
"60 0 LINE",
"192 0 LINE",
"192 675 LINE"
);
},
{
closed = 1;
nodes = (
"119 282 LINE",
"386 282 LINE",
"386 390 LINE",
"119 390 LINE"
);
},
{
closed = 1;
nodes = (
"119 565 LINE",
"415 565 LINE",
"415 675 LINE",
"119 675 LINE"
);
}
);
};
layerId = "6114C541-D024-4A3E-9713-6FAF49EAB318";
name = "Bold Condensed";
paths = (
{
closed = 1;
nodes = (
"415 675 LINE",
"60 675 LINE",
"60 0 LINE",
"192 0 LINE",
"192 302 LINE",
"172 282 LINE",
"386 282 LINE",
"386 390 LINE",
"172 390 LINE",
"192 370 LINE",
"192 585 LINE",
"172 565 LINE",
"415 565 LINE"
);
}
);
width = 450;
}
);
unicode = 0046;
},
{
color = 3;
glyphname = G;
lastChange = "2015-11-05 07:49:53 +0000";
layers = (
{
anchors = (
{
name = bottom;
position = "{280, 0}";
},
{
name = top;
position = "{302, 645}";
}
);
layerId = "CC11FE7D-5FF0-4B40-9597-DFC61EB94F41";
name = "Light Condensed";
paths = (
{
closed = 1;
nodes = (
"485 85 LINE",
"418 50 OFFCURVE",
"365 31 OFFCURVE",
"309 31 CURVE SMOOTH",
"175 31 OFFCURVE",
"86 140 OFFCURVE",
"86 336 CURVE SMOOTH",
"86 522 OFFCURVE",
"171 643 OFFCURVE",
"301 643 CURVE SMOOTH",
"371 643 OFFCURVE",
"427 608 OFFCURVE",
"465 524 CURVE",
"505 540 LINE",
"463 637 OFFCURVE",
"389 682 OFFCURVE",
"303 682 CURVE SMOOTH",
"149 682 OFFCURVE",
"40 552 OFFCURVE",
"40 336 CURVE SMOOTH",
"40 117 OFFCURVE",
"146 -8 OFFCURVE",
"305 -8 CURVE SMOOTH",
"361 -8 OFFCURVE",
"430 11 OFFCURVE",
"505 51 CURVE",
"505 314 LINE",
"295 314 LINE",
"295 277 LINE",
"475 277 LINE",
"463 289 LINE",
"463 51 LINE"
);
}
);
width = 560;
},
{
anchors = (
{
name = bottom;
position = "{292, 0}";
},
{
name = top;
position = "{306, 660}";
}
);
background = {
paths = (
{
closed = 1;
nodes = (
"381 -15 OFFCURVE",
"459 4 OFFCURVE",
"542 44 CURVE",
"487 139 LINE",
"427 110 OFFCURVE",
"377 95 OFFCURVE",
"328 95 CURVE SMOOTH",
"220 95 OFFCURVE",
"155 176 OFFCURVE",
"155 336 CURVE SMOOTH",
"155 493 OFFCURVE",
"214 579 OFFCURVE",
"308 579 CURVE SMOOTH",
"359 579 OFFCURVE",
"405 549 OFFCURVE",
"426 484 CURVE",
"547 514 LINE",
"515 631 OFFCURVE",
"421 691 OFFCURVE",
"309 691 CURVE SMOOTH",
"162 691 OFFCURVE",
"25 575 OFFCURVE",
"25 335 CURVE SMOOTH",
"25 106 OFFCURVE",
"140 -15 OFFCURVE",
"312 -15 CURVE SMOOTH"
);
},
{
closed = 1;
nodes = (
"302 244 LINE",
"424 244 LINE",
"424 44 LINE",
"542 44 LINE",
"542 349 LINE",
"302 349 LINE"
);
}
);
};
layerId = "6114C541-D024-4A3E-9713-6FAF49EAB318";
name = "Bold Condensed";
paths = (
{
closed = 1;
nodes = (
"482 144 LINE",
"422 115 OFFCURVE",
"372 100 OFFCURVE",
"328 100 CURVE SMOOTH",
"228 100 OFFCURVE",
"170 176 OFFCURVE",
"170 336 CURVE SMOOTH",
"170 495 OFFCURVE",
"222 576 OFFCURVE",
"308 576 CURVE SMOOTH",
"359 576 OFFCURVE",
"396 544 OFFCURVE",
"417 484 CURVE",
"542 514 LINE",
"510 631 OFFCURVE",
"419 691 OFFCURVE",
"309 691 CURVE SMOOTH",
"160 691 OFFCURVE",
"30 575 OFFCURVE",
"30 335 CURVE SMOOTH",
"30 106 OFFCURVE",
"137 -15 OFFCURVE",
"312 -15 CURVE SMOOTH",
"376 -15 OFFCURVE",
"458 -1 OFFCURVE",
"541 39 CURVE",
"541 354 LINE",
"300 354 LINE",
"300 244 LINE",
"429 244 LINE",
"409 264 LINE",
"409 39 LINE"
);
}
);
width = 584;
}
);
unicode = 0047;
},
{
color = 3;
glyphname = H;
lastChange = "2015-11-05 07:49:53 +0000";
layers = (
{
layerId = "CC11FE7D-5FF0-4B40-9597-DFC61EB94F41";
name = "Light Condensed";
paths = (
{
closed = 1;
nodes = (
"474 359 LINE",
"487 369 LINE",
"114 369 LINE",
"127 359 LINE",
"127 675 LINE",
"85 675 LINE",
"85 0 LINE",
"127 0 LINE",
"127 344 LINE",
"114 334 LINE",
"487 334 LINE",
"474 344 LINE",
"474 0 LINE",
"516 0 LINE",
"516 675 LINE",
"474 675 LINE"
);
}
);
width = 601;
},
{
layerId = "6114C541-D024-4A3E-9713-6FAF49EAB318";
name = "Bold Condensed";
paths = (
{
closed = 1;
nodes = (
"413 383 LINE",
"433 403 LINE",
"172 403 LINE",
"192 383 LINE",
"192 675 LINE",
"60 675 LINE",
"60 0 LINE",
"192 0 LINE",
"192 313 LINE",
"172 293 LINE",
"433 293 LINE",
"413 313 LINE",
"413 0 LINE",
"545 0 LINE",
"545 675 LINE",
"413 675 LINE"
);
}
);
width = 605;
}
);
unicode = 0048;
},
{
color = 3;
glyphname = I;
lastChange = "2015-11-05 07:49:53 +0000";
layers = (
{
anchors = (
{
name = ogonek;
position = "{125, 5}";
},
{
name = top;
position = "{104, 645}";
}
);
layerId = "CC11FE7D-5FF0-4B40-9597-DFC61EB94F41";
name = "Light Condensed";
paths = (
{
closed = 1;
nodes = (
"83 675 LINE",
"83 0 LINE",
"125 0 LINE",
"125 675 LINE"
);
}
);
width = 209;
},
{
anchors = (
{
name = ogonek;
position = "{192, 10}";
},
{
name = top;
position = "{126, 660}";
}
);
background = {
paths = (
{
closed = 1;
nodes = (
"65 675 LINE",
"65 0 LINE",
"187 0 LINE",
"187 675 LINE"
);
}
);
};
layerId = "6114C541-D024-4A3E-9713-6FAF49EAB318";
name = "Bold Condensed";
paths = (
{
closed = 1;
nodes = (
"60 675 LINE",
"60 0 LINE",
"192 0 LINE",
"192 675 LINE"
);
}
);
width = 252;
}
);
unicode = 0049;
},
{
glyphname = Icircumflex;
lastChange = "2015-11-05 07:49:53 +0000";
layers = (
{
components = (
{
name = I;
}
);
layerId = "CC11FE7D-5FF0-4B40-9597-DFC61EB94F41";
name = "Light Condensed";
paths = (
{
closed = 1;
nodes = (
"109 854 LINE",
"-5 747 LINE",
"16 721 LINE",
"110 803 LINE",
"102 803 LINE",
"198 720 LINE",
"220 749 LINE"
);
}
);
width = 209;
},
{
background = {
paths = (
{
closed = 1;
nodes = (
"131 904 LINE",
"-35 781 LINE",
"17 716 LINE",
"136 796 LINE",
"120 796 LINE",
"239 714 LINE",
"295 781 LINE"
);
}
);
};
components = (
{
name = I;
}
);
layerId = "6114C541-D024-4A3E-9713-6FAF49EAB318";
name = "Bold Condensed";
paths = (
{
closed = 1;
nodes = (
"129 904 LINE",
"-22 781 LINE",
"30 716 LINE",
"134 796 LINE",
"118 796 LINE",
"222 714 LINE",
"278 781 LINE"
);
}
);
width = 252;
}
);
unicode = 00CE;
},
{
glyphname = Idieresis;
lastChange = "2015-11-05 07:49:53 +0000";
layers = (
{
components = (
{
name = I;
}
);
layerId = "CC11FE7D-5FF0-4B40-9597-DFC61EB94F41";
name = "Light Condensed";
paths = (
{
closed = 1;
nodes = (
"51 752 OFFCURVE",
"63 769 OFFCURVE",
"63 789 CURVE SMOOTH",
"63 809 OFFCURVE",
"51 826 OFFCURVE",
"31 826 CURVE SMOOTH",
"10 826 OFFCURVE",
"-2 809 OFFCURVE",
"-2 789 CURVE SMOOTH",
"-2 769 OFFCURVE",
"10 752 OFFCURVE",
"31 752 CURVE SMOOTH"
);
},
{
closed = 1;
nodes = (
"198 752 OFFCURVE",
"210 769 OFFCURVE",
"210 789 CURVE SMOOTH",
"210 809 OFFCURVE",
"198 826 OFFCURVE",
"177 826 CURVE SMOOTH",
"157 826 OFFCURVE",
"145 809 OFFCURVE",
"145 789 CURVE SMOOTH",
"145 769 OFFCURVE",
"157 752 OFFCURVE",
"177 752 CURVE SMOOTH"
);
}
);
width = 209;
},
{
components = (
{
name = I;
}
);
layerId = "6114C541-D024-4A3E-9713-6FAF49EAB318";
name = "Bold Condensed";
paths = (
{
closed = 1;
nodes = (
"65 731 OFFCURVE",
"100 755 OFFCURVE",
"100 806 CURVE SMOOTH",
"100 855 OFFCURVE",
"66 878 OFFCURVE",
"33 878 CURVE SMOOTH",
"-1 878 OFFCURVE",
"-35 855 OFFCURVE",
"-35 806 CURVE SMOOTH",
"-35 755 OFFCURVE",
"-2 731 OFFCURVE",
"32 731 CURVE SMOOTH"
);
},
{
closed = 1;
nodes = (
"252 731 OFFCURVE",
"287 755 OFFCURVE",
"287 806 CURVE SMOOTH",
"287 855 OFFCURVE",
"253 878 OFFCURVE",
"219 878 CURVE SMOOTH",
"186 878 OFFCURVE",
"152 855 OFFCURVE",
"152 806 CURVE SMOOTH",
"152 755 OFFCURVE",
"185 731 OFFCURVE",
"218 731 CURVE SMOOTH"
);
}
);
width = 252;
}
);
unicode = 00CF;
},
{
glyphname = Imacron;
lastChange = "2015-11-05 07:49:53 +0000";
layers = (
{
components = (
{
name = I;
}
);
layerId = "CC11FE7D-5FF0-4B40-9597-DFC61EB94F41";
name = "Light Condensed";
paths = (
{
closed = 1;
nodes = (
"1 807 LINE",
"1 772 LINE",
"208 772 LINE",
"208 807 LINE"
);
}
);
width = 209;
},
{
components = (
{
name = I;
}
);
layerId = "6114C541-D024-4A3E-9713-6FAF49EAB318";
name = "Bold Condensed";
paths = (
{
closed = 1;
nodes = (
"1 854 LINE",
"1 754 LINE",
"251 754 LINE",
"251 854 LINE"
);
}
);
width = 252;
}
);
unicode = 012A;
},
{
color = 3;
glyphname = J;
lastChange = "2015-11-05 07:49:53 +0000";
layers = (
{
layerId = "CC11FE7D-5FF0-4B40-9597-DFC61EB94F41";
name = "Light Condensed";
paths = (
{
closed = 1;
nodes = (
"67 -7 OFFCURVE",
"93 -7 CURVE SMOOTH",
"154 -7 OFFCURVE",
"199 38 OFFCURVE",
"199 123 CURVE SMOOTH",
"199 675 LINE",
"157 675 LINE",
"157 130 LINE SMOOTH",
"157 65 OFFCURVE",
"133 30 OFFCURVE",
"93 30 CURVE SMOOTH",
"74 30 OFFCURVE",
"51 37 OFFCURVE",
"25 53 CURVE",
"9 17 LINE",
"38 0 OFFCURVE"
);
}
);
width = 284;
},
{
background = {
paths = (
{
closed = 1;
nodes = (
"-4 15 LINE",
"36 -6 OFFCURVE",
"76 -15 OFFCURVE",
"113 -15 CURVE SMOOTH",
"199 -15 OFFCURVE",
"264 41 OFFCURVE",
"264 151 CURVE SMOOTH",
"264 675 LINE",
"142 675 LINE",
"142 161 LINE SMOOTH",
"142 111 OFFCURVE",
"123 90 OFFCURVE",
"92 90 CURVE SMOOTH",
"74 90 OFFCURVE",
"48 97 OFFCURVE",
"23 109 CURVE"
);
},
{
closed = 1;
nodes = (
"69 -15 OFFCURVE",
"108 -15 CURVE SMOOTH",
"192 -15 OFFCURVE",
"264 43 OFFCURVE",
"264 151 CURVE SMOOTH",
"264 675 LINE",
"132 675 LINE",
"132 161 LINE SMOOTH",
"132 116 OFFCURVE",
"114 95 OFFCURVE",
"88 95 CURVE SMOOTH",
"69 95 OFFCURVE",
"47 101 OFFCURVE",
"20 114 CURVE",
"-7 13 LINE",
"31 -6 OFFCURVE"
);
}
);
};
layerId = "6114C541-D024-4A3E-9713-6FAF49EAB318";
name = "Bold Condensed";
paths = (
{
closed = 1;
nodes = (
"65 -15 OFFCURVE",
"102 -15 CURVE SMOOTH",
"195 -15 OFFCURVE",
"264 44 OFFCURVE",
"264 151 CURVE SMOOTH",
"264 675 LINE",
"132 675 LINE",
"132 168 LINE SMOOTH",
"132 118 OFFCURVE",
"111 96 OFFCURVE",
"77 96 CURVE SMOOTH",
"58 96 OFFCURVE",
"36 102 OFFCURVE",
"10 114 CURVE",
"-17 13 LINE",
"25 -6 OFFCURVE"
);
}
);
width = 309;
}
);
unicode = 004A;
},
{
color = 3;
glyphname = K;
lastChange = "2015-11-05 07:49:53 +0000";
layers = (
{
layerId = "CC11FE7D-5FF0-4B40-9597-DFC61EB94F41";
name = "Light Condensed";
paths = (
{
closed = 1;
nodes = (
"506 26 LINE",
"488 24 OFFCURVE",
"479 33 OFFCURVE",
"466 55 CURVE SMOOTH",
"273 373 LINE",
"269 340 LINE",
"487 675 LINE",
"442 675 LINE",
"243 368 LINE",
"254 374 LINE",
"114 374 LINE",
"127 364 LINE",
"127 675 LINE",
"85 675 LINE",
"85 0 LINE",
"127 0 LINE",
"127 349 LINE",
"114 339 LINE",
"255 339 LINE",
"242 346 LINE",
"433 35 LINE SMOOTH",
"450 7 OFFCURVE",
"466 -7 OFFCURVE",
"491 -7 CURVE SMOOTH",
"497 -7 OFFCURVE",
"504 -6 OFFCURVE",
"509 -5 CURVE"
);
}
);
width = 514;
},
{
background = {
paths = (
{
closed = 0;
nodes = (
"294 298 LINE",
"172 298 LINE",
"192 318 LINE",
"192 0 LINE",
"60 0 LINE",
"60 675 LINE",
"192 675 LINE",
"192 388 LINE",
"172 408 LINE",
"294 408 LINE"
);
},
{
closed = 0;
nodes = (
"270 405 LINE",
"407 675 LINE",
"528 675 LINE",
"338 314 LINE",
"355 377 LINE",
"488 116 LINE SMOOTH",
"500 93 OFFCURVE",
"516 90 OFFCURVE",
"542 90 CURVE",
"542 -10 LINE",
"446 -10 OFFCURVE",
"416 2 OFFCURVE",
"382 71 CURVE SMOOTH",
"269 300 LINE"
);
}
);
};
layerId = "6114C541-D024-4A3E-9713-6FAF49EAB318";
name = "Bold Condensed";
paths = (
{
closed = 1;
nodes = (
"553 90 LINE",
"533 88 OFFCURVE",
"511 90 OFFCURVE",
"496 122 CURVE SMOOTH",
"374 386 LINE",
"374 332 LINE",
"545 675 LINE",
"413 675 LINE",
"280 394 LINE",
"316 408 LINE",
"172 408 LINE",
"192 388 LINE",
"192 675 LINE",
"60 675 LINE",
"60 0 LINE",
"192 0 LINE",
"192 318 LINE",
"172 298 LINE",
"314 298 LINE",
"273 318 LINE",
"381 71 LINE SMOOTH",
"406 13 OFFCURVE",
"443 -15 OFFCURVE",
"500 -15 CURVE SMOOTH",
"517 -15 OFFCURVE",
"537 -12 OFFCURVE",
"558 -7 CURVE"
);
}
);
width = 558;
}
);
unicode = 004B;
},
{
color = 3;
glyphname = L;
lastChange = "2015-11-05 07:49:53 +0000";
layers = (
{
anchors = (
{
name = bottom;
position = "{207, 0}";
},
{
name = top;
position = "{132, 645}";
},
{
name = topright;
position = "{393, 645}";
}
);
layerId = "CC11FE7D-5FF0-4B40-9597-DFC61EB94F41";
name = "Light Condensed";
paths = (
{
closed = 1;
nodes = (
"127 25 LINE",
"127 675 LINE",
"85 675 LINE",
"85 0 LINE",
"398 0 LINE",
"398 37 LINE",
"114 37 LINE"
);
}
);
width = 408;
},
{
anchors = (
{
name = bottom;
position = "{209, 0}";
},
{
name = top;
position = "{120, 660}";
},
{
name = topright;
position = "{398, 660}";
}
);
background = {
paths = (
{
closed = 1;
nodes = (
"187 0 LINE",
"187 675 LINE",
"55 675 LINE",
"55 0 LINE"
);
},
{
closed = 1;
nodes = (
"408 0 LINE",
"408 110 LINE",
"114 110 LINE",
"114 0 LINE"
);
}
);
};
layerId = "6114C541-D024-4A3E-9713-6FAF49EAB318";
name = "Bold Condensed";
paths = (
{
closed = 1;
nodes = (
"187 90 LINE",
"187 675 LINE",
"55 675 LINE",
"55 0 LINE",
"403 0 LINE",
"403 110 LINE",
"167 110 LINE"
);
}
);
width = 413;
}
);
unicode = 004C;
},
{
glyphname = Lslash;
lastChange = "2015-11-05 07:49:53 +0000";
layers = (
{
components = (
{
name = L;
}
);
layerId = "CC11FE7D-5FF0-4B40-9597-DFC61EB94F41";
name = "Light Condensed";
paths = (
{
closed = 1;
nodes = (
"261 410 LINE",
"-18 293 LINE",
"-7 263 LINE",
"273 380 LINE"
);
}
);
width = 413;
},
{
background = {
paths = (
{
closed = 1;
nodes = (
"294 451 LINE",
"-55 308 LINE",
"-19 220 LINE",
"330 363 LINE"
);
}
);
};
components = (
{
name = L;
}
);
layerId = "6114C541-D024-4A3E-9713-6FAF49EAB318";
name = "Bold Condensed";
paths = (
{
closed = 1;
nodes = (
"274 442 LINE",
"-29 318 LINE",
"7 230 LINE",
"310 354 LINE"
);
}
);
width = 418;
}
);
unicode = 0141;
},
{
color = 3;
glyphname = M;
lastChange = "2015-11-05 07:49:53 +0000";
layers = (
{
guideLines = (
{
position = "{359, 211}";
},
{
position = "{375, 421}";
}
);
layerId = "CC11FE7D-5FF0-4B40-9597-DFC61EB94F41";
name = "Light Condensed";
paths = (
{
closed = 1;
nodes = (
"64 0 LINE",
"122 422 LINE SMOOTH",
"130 481 OFFCURVE",
"140 548 OFFCURVE",
"147 605 CURVE",
"143 605 LINE",
"161 548 OFFCURVE",
"178 482 OFFCURVE",
"197 423 CURVE SMOOTH",
"323 24 LINE",
"359 26 LINE",
"494 422 LINE SMOOTH",
"514 480 OFFCURVE",
"532 546 OFFCURVE",
"551 602 CURVE",
"546 602 LINE",
"552 546 OFFCURVE",
"560 481 OFFCURVE",
"567 423 CURVE SMOOTH",
"618 0 LINE",
"663 0 LINE",
"580 675 LINE",
"537 675 LINE",
"381 212 LINE SMOOTH",
"367 169 OFFCURVE",
"355 121 OFFCURVE",
"341 80 CURVE",
"348 80 LINE",
"335 120 OFFCURVE",
"324 169 OFFCURVE",
"311 211 CURVE SMOOTH",
"165 675 LINE",
"121 675 LINE",
"24 0 LINE"
);
}
);
width = 687;
},
{
background = {
paths = (
{
closed = 1;
nodes = (
"146 0 LINE",
"181 387 LINE SMOOTH",
"186 441 OFFCURVE",
"190 504 OFFCURVE",
"195 557 CURVE",
"173 557 LINE",
"186 505 OFFCURVE",
"197 443 OFFCURVE",
"211 390 CURVE SMOOTH",
"306 21 LINE",
"429 25 LINE",
"529 385 LINE SMOOTH",
"544 439 OFFCURVE",
"556 504 OFFCURVE",
"571 557 CURVE",
"551 557 LINE",
"555 505 OFFCURVE",
"557 441 OFFCURVE",
"562 388 CURVE SMOOTH",
"595 0 LINE",
"725 0 LINE",
"647 675 LINE",
"499 675 LINE",
"394 268 LINE SMOOTH",
"381 219 OFFCURVE",
"369 146 OFFCURVE",
"355 98 CURVE",
"391 98 LINE",
"378 145 OFFCURVE",
"372 215 OFFCURVE",
"360 263 CURVE SMOOTH",
"256 675 LINE",
"103 675 LINE",
"25 0 LINE"
);
}
);
};
layerId = "6114C541-D024-4A3E-9713-6FAF49EAB318";
name = "Bold Condensed";
paths = (
{
closed = 1;
nodes = (
"144 0 LINE",
"179 387 LINE SMOOTH",
"184 441 OFFCURVE",
"190 504 OFFCURVE",
"195 557 CURVE",
"173 557 LINE",
"186 505 OFFCURVE",
"197 443 OFFCURVE",
"211 390 CURVE SMOOTH",
"306 21 LINE",
"429 25 LINE",
"529 385 LINE SMOOTH",
"544 439 OFFCURVE",
"556 504 OFFCURVE",
"571 557 CURVE",
"551 557 LINE",
"555 505 OFFCURVE",
"557 441 OFFCURVE",
"562 388 CURVE SMOOTH",
"595 0 LINE",
"725 0 LINE",
"647 675 LINE",
"499 675 LINE",
"394 268 LINE SMOOTH",
"381 219 OFFCURVE",
"369 146 OFFCURVE",
"355 98 CURVE",
"391 98 LINE",
"378 145 OFFCURVE",
"372 215 OFFCURVE",
"360 263 CURVE SMOOTH",
"256 675 LINE",
"103 675 LINE",
"23 0 LINE"
);
}
);
width = 750;
}
);
unicode = 004D;
},
{
color = 3;
glyphname = N;
lastChange = "2015-11-05 07:49:53 +0000";
layers = (
{
anchors = (
{
name = bottom;
position = "{306, 0}";
},
{
name = top;
position = "{301, 645}";
}
);
layerId = "CC11FE7D-5FF0-4B40-9597-DFC61EB94F41";
name = "Light Condensed";
paths = (
{
closed = 1;
nodes = (
"526 0 LINE",
"526 675 LINE",
"485 675 LINE",
"485 78 LINE",
"489 78 LINE",
"126 682 LINE",
"85 675 LINE",
"85 0 LINE",
"126 0 LINE",
"126 610 LINE",
"120 610 LINE",
"487 -7 LINE"
);
}
);
width = 611;
},
{
anchors = (
{
name = bottom;
position = "{306, 0}";
},
{
name = top;
position = "{301, 660}";
}
);
background = {
paths = (
{
closed = 1;
nodes = (
"552 0 LINE",
"552 675 LINE",
"431 675 LINE",
"431 240 LINE",
"440 240 LINE",
"176 684 LINE",
"60 675 LINE",
"60 0 LINE",
"181 0 LINE",
"181 440 LINE",
"169 440 LINE",
"440 -10 LINE"
);
}
);
};
layerId = "6114C541-D024-4A3E-9713-6FAF49EAB318";
name = "Bold Condensed";
paths = (
{
closed = 1;
nodes = (
"552 0 LINE",
"552 675 LINE",
"431 675 LINE",
"431 230 LINE",
"440 230 LINE",
"174 684 LINE",
"60 675 LINE",
"60 0 LINE",
"181 0 LINE",
"181 450 LINE",
"169 450 LINE",
"442 -10 LINE"
);
}
);
width = 612;
}
);
unicode = 004E;
},
{
color = 3;
glyphname = O;
lastChange = "2015-11-05 07:49:53 +0000";
layers = (
{
anchors = (
{
name = top;
position = "{295, 635}";
}
);
layerId = "CC11FE7D-5FF0-4B40-9597-DFC61EB94F41";
name = "Light Condensed";
paths = (
{
closed = 1;
nodes = (
"452 -7 OFFCURVE",
"544 144 OFFCURVE",
"544 336 CURVE SMOOTH",
"544 531 OFFCURVE",
"464 682 OFFCURVE",
"295 682 CURVE SMOOTH",
"135 682 OFFCURVE",
"40 529 OFFCURVE",
"40 336 CURVE SMOOTH",
"40 142 OFFCURVE",
"118 -7 OFFCURVE",
"292 -7 CURVE SMOOTH"
);
},
{
closed = 1;
nodes = (
"155 32 OFFCURVE",
"86 161 OFFCURVE",
"86 336 CURVE SMOOTH",
"86 509 OFFCURVE",
"160 643 OFFCURVE",
"294 643 CURVE SMOOTH",
"429 643 OFFCURVE",
"498 511 OFFCURVE",
"498 336 CURVE SMOOTH",
"498 163 OFFCURVE",
"426 32 OFFCURVE",
"292 32 CURVE SMOOTH"
);
}
);
width = 584;
},
{
anchors = (
{
name = top;
position = "{313, 655}";
}
);
background = {
paths = (
{
closed = 1;
nodes = (
"465 204 OFFCURVE",
"420 95 OFFCURVE",
"311 95 CURVE SMOOTH",
"201 95 OFFCURVE",
"157 202 OFFCURVE",
"157 336 CURVE SMOOTH",
"157 468 OFFCURVE",
"203 580 OFFCURVE",
"313 580 CURVE SMOOTH",
"421 580 OFFCURVE",
"465 472 OFFCURVE",
"465 335 CURVE SMOOTH"
);
},
{
closed = 1;
nodes = (
"595 540 OFFCURVE",
"503 690 OFFCURVE",
"313 690 CURVE SMOOTH",
"125 690 OFFCURVE",
"27 534 OFFCURVE",
"27 335 CURVE SMOOTH",
"27 133 OFFCURVE",
"120 -15 OFFCURVE",
"310 -15 CURVE SMOOTH",
"499 -15 OFFCURVE",
"595 137 OFFCURVE",
"595 336 CURVE SMOOTH"
);
}
);
};
layerId = "6114C541-D024-4A3E-9713-6FAF49EAB318";
name = "Bold Condensed";
paths = (
{
closed = 1;
nodes = (
"500 -15 OFFCURVE",
"590 137 OFFCURVE",
"590 336 CURVE SMOOTH",
"590 540 OFFCURVE",
"503 690 OFFCURVE",
"313 690 CURVE SMOOTH",
"125 690 OFFCURVE",
"32 534 OFFCURVE",
"32 335 CURVE SMOOTH",
"32 133 OFFCURVE",
"121 -15 OFFCURVE",
"311 -15 CURVE SMOOTH"
);
},
{
closed = 1;
nodes = (
"211 100 OFFCURVE",
"172 205 OFFCURVE",
"172 336 CURVE SMOOTH",
"172 465 OFFCURVE",
"213 575 OFFCURVE",
"313 575 CURVE SMOOTH",
"411 575 OFFCURVE",
"450 469 OFFCURVE",
"450 335 CURVE SMOOTH",
"450 207 OFFCURVE",
"410 100 OFFCURVE",
"311 100 CURVE SMOOTH"
);
}
);
width = 622;
}
);
unicode = 004F;
},
{
glyphname = Oslash;
lastChange = "2015-11-05 07:49:53 +0000";
layers = (
{
components = (
{
name = O;
}
);
guideLines = (
{
position = "{11, 330}";
}
);
layerId = "CC11FE7D-5FF0-4B40-9597-DFC61EB94F41";
name = "Light Condensed";
paths = (
{
closed = 1;
nodes = (
"420 743 LINE",
"133 -58 LINE",
"167 -69 LINE",
"453 733 LINE"
);
}
);
width = 584;
},
{
background = {
paths = (
{
closed = 1;
nodes = (
"413 756 LINE",
"121 -53 LINE",
"204 -78 LINE",
"495 731 LINE"
);
}
);
};
components = (
{
name = O;
}
);
guideLines = (
{
position = "{32, 350}";
}
);
layerId = "6114C541-D024-4A3E-9713-6FAF49EAB318";
name = "Bold Condensed";
paths = (
{
closed = 1;
nodes = (
"417 766 LINE",
"117 -63 LINE",
"200 -88 LINE",
"499 741 LINE"
);
}
);
width = 622;
}
);
unicode = 00D8;
},
{
color = 3;
glyphname = OE;
lastChange = "2015-11-05 07:49:53 +0000";
layers = (
{
anchors = (
{
name = top;
position = "{395, 635}";
}
);
components = (
{
name = E;
transform = "{1, 0, 0, 1, 313, 0}";
}
);
layerId = "CC11FE7D-5FF0-4B40-9597-DFC61EB94F41";
name = "Light Condensed";
paths = (
{
closed = 1;
nodes = (
"123 -6 OFFCURVE",
"316 -6 CURVE SMOOTH",
"344 -6 OFFCURVE",
"389 -1 OFFCURVE",
"423 0 CURVE",
"421 43 LINE",
"385 36 OFFCURVE",
"349 33 OFFCURVE",
"319 33 CURVE SMOOTH",
"161 33 OFFCURVE",
"86 133 OFFCURVE",
"86 336 CURVE SMOOTH",
"86 515 OFFCURVE",
"157 640 OFFCURVE",
"316 640 CURVE SMOOTH",
"359 640 OFFCURVE",
"396 635 OFFCURVE",
"421 631 CURVE",
"433 674 LINE",
"398 674 OFFCURVE",
"356 679 OFFCURVE",
"314 679 CURVE SMOOTH",
"126 679 OFFCURVE",
"40 529 OFFCURVE",
"40 336 CURVE SMOOTH",
"40 118 OFFCURVE"
);
}
);
width = 776;
},
{
anchors = (
{
name = top;
position = "{400, 655}";
}
);
background = {
components = (
{
name = E;
transform = "{1, 0, 0, 1, 339, 0}";
}
);
paths = (
{
closed = 1;
nodes = (
"382 -10 OFFCURVE",
"429 -2 OFFCURVE",
"471 0 CURVE",
"417 117 LINE",
"393 109 OFFCURVE",
"353 105 OFFCURVE",
"316 105 CURVE SMOOTH",
"211 105 OFFCURVE",
"172 205 OFFCURVE",
"172 336 CURVE SMOOTH",
"172 465 OFFCURVE",
"213 570 OFFCURVE",
"316 570 CURVE SMOOTH",
"355 570 OFFCURVE",
"409 562 OFFCURVE",
"432 552 CURVE",
"467 675 LINE",
"432 676 OFFCURVE",
"379 684 OFFCURVE",
"313 684 CURVE SMOOTH",
"125 684 OFFCURVE",
"32 534 OFFCURVE",
"32 335 CURVE SMOOTH",
"32 133 OFFCURVE",
"120 -10 OFFCURVE",
"315 -10 CURVE SMOOTH"
);
}
);
};
components = (
{
name = E;
transform = "{1, 0, 0, 1, 339, 0}";
}
);
layerId = "6114C541-D024-4A3E-9713-6FAF49EAB318";
name = "Bold Condensed";
paths = (
{
closed = 1;
nodes = (
"150 -10 OFFCURVE",
"332 -10 CURVE SMOOTH",
"383 -10 OFFCURVE",
"439 0 OFFCURVE",
"485 0 CURVE",
"417 117 LINE",
"385 108 OFFCURVE",
"356 105 OFFCURVE",
"331 105 CURVE SMOOTH",
"220 105 OFFCURVE",
"172 186 OFFCURVE",
"172 336 CURVE SMOOTH",
"172 488 OFFCURVE",
"220 570 OFFCURVE",
"331 570 CURVE SMOOTH",
"362 570 OFFCURVE",
"394 564 OFFCURVE",
"432 550 CURVE",
"467 675 LINE",
"435 675 OFFCURVE",
"381 685 OFFCURVE",
"336 685 CURVE SMOOTH",
"144 685 OFFCURVE",
"32 572 OFFCURVE",
"32 335 CURVE SMOOTH",
"32 89 OFFCURVE"
);
}
);
width = 805;
}
);
leftMetricsKey = O;
rightMetricsKey = E;
unicode = 0152;
},
{
color = 3;
glyphname = P;
lastChange = "2015-11-05 07:49:53 +0000";
layers = (
{
layerId = "CC11FE7D-5FF0-4B40-9597-DFC61EB94F41";
name = "Light Condensed";
paths = (
{
closed = 1;
nodes = (
"127 0 LINE",
"127 649 LINE",
"114 637 LINE",
"148 638 OFFCURVE",
"185 640 OFFCURVE",
"222 640 CURVE SMOOTH",
"359 640 OFFCURVE",
"406 586 OFFCURVE",
"406 488 CURVE SMOOTH",
"406 394 OFFCURVE",
"347 332 OFFCURVE",
"210 332 CURVE SMOOTH",
"105 332 LINE",
"105 295 LINE",
"239 295 LINE SMOOTH",
"373 295 OFFCURVE",
"452 381 OFFCURVE",
"452 497 CURVE SMOOTH",
"452 596 OFFCURVE",
"406 677 OFFCURVE",
"229 677 CURVE SMOOTH",
"182 677 OFFCURVE",
"132 677 OFFCURVE",
"85 675 CURVE",
"85 0 LINE"
);
}
);
width = 477;
},
{
background = {
paths = (
{
closed = 1;
nodes = (
"65 675 LINE",
"122 677 OFFCURVE",
"174 679 OFFCURVE",
"258 679 CURVE SMOOTH",
"385 679 OFFCURVE",
"499 611 OFFCURVE",
"499 471 CURVE SMOOTH",
"499 353 OFFCURVE",
"425 246 OFFCURVE",
"259 246 CURVE SMOOTH",
"131 246 LINE",
"131 356 LINE",
"269 356 LINE SMOOTH",
"336 356 OFFCURVE",
"363 398 OFFCURVE",
"363 462 CURVE SMOOTH",
"363 531 OFFCURVE",
"317 569 OFFCURVE",
"251 569 CURVE SMOOTH",
"230 569 OFFCURVE",
"217 568 OFFCURVE",
"197 566 CURVE",
"197 0 LINE",
"65 0 LINE"
);
}
);
};
layerId = "6114C541-D024-4A3E-9713-6FAF49EAB318";
name = "Bold Condensed";
paths = (
{
closed = 1;
nodes = (
"197 0 LINE",
"197 586 LINE",
"177 566 LINE",
"197 568 OFFCURVE",
"239 569 OFFCURVE",
"260 569 CURVE SMOOTH",
"336 569 OFFCURVE",
"364 522 OFFCURVE",
"364 457 CURVE SMOOTH",
"364 396 OFFCURVE",
"331 356 OFFCURVE",
"269 356 CURVE SMOOTH",
"131 356 LINE",
"131 246 LINE",
"259 246 LINE SMOOTH",
"425 246 OFFCURVE",
"499 353 OFFCURVE",
"499 471 CURVE SMOOTH",
"499 611 OFFCURVE",
"385 679 OFFCURVE",
"258 679 CURVE SMOOTH",
"174 679 OFFCURVE",
"122 677 OFFCURVE",
"65 675 CURVE",
"65 0 LINE"
);
}
);
width = 519;
}
);
unicode = 0050;
},
{
color = 3;
glyphname = Thorn;
lastChange = "2015-11-05 07:49:53 +0000";
layers = (
{
layerId = "CC11FE7D-5FF0-4B40-9597-DFC61EB94F41";
name = "Light Condensed";
paths = (
{
closed = 1;
nodes = (
"239 163 LINE SMOOTH",
"373 163 OFFCURVE",
"452 249 OFFCURVE",
"452 365 CURVE SMOOTH",
"452 464 OFFCURVE",
"406 546 OFFCURVE",
"229 545 CURVE SMOOTH",
"104 544 LINE",
"104 507 LINE",
"222 508 LINE SMOOTH",
"359 509 OFFCURVE",
"406 454 OFFCURVE",
"406 356 CURVE SMOOTH",
"406 262 OFFCURVE",
"347 200 OFFCURVE",
"210 200 CURVE SMOOTH",
"105 200 LINE",
"105 163 LINE"
);
},
{
closed = 1;
nodes = (
"127 0 LINE",
"127 675 LINE",
"85 675 LINE",
"85 0 LINE"
);
}
);
width = 477;
},
{
layerId = "6114C541-D024-4A3E-9713-6FAF49EAB318";
name = "Bold Condensed";
paths = (
{
closed = 1;
nodes = (
"259 124 LINE SMOOTH",
"425 124 OFFCURVE",
"499 231 OFFCURVE",
"499 349 CURVE SMOOTH",
"499 489 OFFCURVE",
"385 557 OFFCURVE",
"258 557 CURVE SMOOTH",
"131 557 LINE",
"131 447 LINE",
"260 447 LINE SMOOTH",
"336 447 OFFCURVE",
"364 400 OFFCURVE",
"364 335 CURVE SMOOTH",
"364 274 OFFCURVE",
"331 234 OFFCURVE",
"269 234 CURVE SMOOTH",
"131 234 LINE",
"131 124 LINE"
);
},
{
closed = 1;
nodes = (
"197 0 LINE",
"197 675 LINE",
"65 675 LINE",
"65 0 LINE"
);
}
);
width = 519;
}
);
unicode = 00DE;
},
{
color = 3;
glyphname = Q;
lastChange = "2015-11-05 07:49:53 +0000";
layers = (
{
guideLines = (
{
angle = 90;
position = "{548, 42}";
}
);
layerId = "CC11FE7D-5FF0-4B40-9597-DFC61EB94F41";
name = "Light Condensed";
paths = (
{
closed = 1;
nodes = (
"452 -7 OFFCURVE",
"544 144 OFFCURVE",
"544 336 CURVE SMOOTH",
"544 531 OFFCURVE",
"463 682 OFFCURVE",
"294 682 CURVE SMOOTH",
"134 682 OFFCURVE",
"40 529 OFFCURVE",
"40 336 CURVE SMOOTH",
"40 142 OFFCURVE",
"118 -7 OFFCURVE",
"292 -7 CURVE SMOOTH"
);
},
{
closed = 1;
nodes = (
"518 -60 LINE",
"435 -90 OFFCURVE",
"335 -90 OFFCURVE",
"355 29 CURVE",
"314 29 LINE",
"294 -110 OFFCURVE",
"408 -136 OFFCURVE",
"528 -94 CURVE"
);
},
{
closed = 1;
nodes = (
"155 32 OFFCURVE",
"86 161 OFFCURVE",
"86 336 CURVE SMOOTH",
"86 509 OFFCURVE",
"160 643 OFFCURVE",
"294 643 CURVE SMOOTH",
"429 643 OFFCURVE",
"498 511 OFFCURVE",
"498 336 CURVE SMOOTH",
"498 163 OFFCURVE",
"426 32 OFFCURVE",
"292 32 CURVE SMOOTH"
);
}
);
width = 584;
},
{
background = {
paths = (
{
closed = 1;
nodes = (
"499 -15 OFFCURVE",
"595 137 OFFCURVE",
"595 336 CURVE SMOOTH",
"595 540 OFFCURVE",
"503 690 OFFCURVE",
"313 690 CURVE SMOOTH",
"125 690 OFFCURVE",
"27 534 OFFCURVE",
"27 335 CURVE SMOOTH",
"27 133 OFFCURVE",
"120 -15 OFFCURVE",
"310 -15 CURVE SMOOTH"
);
},
{
closed = 1;
nodes = (
"554 -126 OFFCURVE",
"570 -125 OFFCURVE",
"587 -124 CURVE",
"584 -18 LINE",
"565 -21 OFFCURVE",
"544 -23 OFFCURVE",
"524 -23 CURVE SMOOTH",
"481 -23 OFFCURVE",
"445 -12 OFFCURVE",
"445 29 CURVE",
"323 29 LINE",
"323 -86 OFFCURVE",
"409 -126 OFFCURVE",
"539 -126 CURVE SMOOTH"
);
},
{
closed = 1;
nodes = (
"201 95 OFFCURVE",
"157 202 OFFCURVE",
"157 336 CURVE SMOOTH",
"157 468 OFFCURVE",
"203 580 OFFCURVE",
"313 580 CURVE SMOOTH",
"421 580 OFFCURVE",
"465 472 OFFCURVE",
"465 335 CURVE SMOOTH",
"465 204 OFFCURVE",
"420 95 OFFCURVE",
"311 95 CURVE SMOOTH"
);
},
{
closed = 1;
nodes = (
"458 -136 OFFCURVE",
"578 -94 CURVE",
"568 -60 LINE",
"485 -90 OFFCURVE",
"385 -90 OFFCURVE",
"405 29 CURVE",
"364 29 LINE",
"344 -110 OFFCURVE"
);
}
);
};
layerId = "6114C541-D024-4A3E-9713-6FAF49EAB318";
name = "Bold Condensed";
paths = (
{
closed = 1;
nodes = (
"499 -15 OFFCURVE",
"590 137 OFFCURVE",
"590 336 CURVE SMOOTH",
"590 540 OFFCURVE",
"503 690 OFFCURVE",
"313 690 CURVE SMOOTH",
"125 690 OFFCURVE",
"32 534 OFFCURVE",
"32 335 CURVE SMOOTH",
"32 133 OFFCURVE",
"120 -15 OFFCURVE",
"310 -15 CURVE SMOOTH"
);
},
{
closed = 1;
nodes = (
"550 -26 LINE",
"475 -51 OFFCURVE",
"415 -45 OFFCURVE",
"420 24 CURVE",
"300 24 LINE",
"286 -139 OFFCURVE",
"414 -185 OFFCURVE",
"574 -132 CURVE"
);
},
{
closed = 1;
nodes = (
"211 100 OFFCURVE",
"172 205 OFFCURVE",
"172 336 CURVE SMOOTH",
"172 465 OFFCURVE",
"213 575 OFFCURVE",
"313 575 CURVE SMOOTH",
"411 575 OFFCURVE",
"450 469 OFFCURVE",
"450 335 CURVE SMOOTH",
"450 207 OFFCURVE",
"410 100 OFFCURVE",
"311 100 CURVE SMOOTH"
);
}
);
width = 613;
}
);
unicode = 0051;
},
{
color = 3;
glyphname = R;
lastChange = "2015-11-05 07:49:53 +0000";
layers = (
{
anchors = (
{
name = bottom;
position = "{249, 0}";
},
{
name = top;
position = "{241, 645}";
}
);
layerId = "CC11FE7D-5FF0-4B40-9597-DFC61EB94F41";
name = "Light Condensed";
paths = (
{
closed = 1;
nodes = (
"127 0 LINE",
"127 649 LINE",
"114 637 LINE",
"148 638 OFFCURVE",
"185 640 OFFCURVE",
"222 640 CURVE SMOOTH",
"362 640 OFFCURVE",
"409 593 OFFCURVE",
"409 493 CURVE SMOOTH",
"409 393 OFFCURVE",
"345 342 OFFCURVE",
"220 342 CURVE SMOOTH",
"105 342 LINE",
"105 305 LINE",
"229 305 LINE SMOOTH",
"379 305 OFFCURVE",
"455 384 OFFCURVE",
"455 499 CURVE SMOOTH",
"455 621 OFFCURVE",
"382 677 OFFCURVE",
"229 677 CURVE SMOOTH",
"182 677 OFFCURVE",
"132 677 OFFCURVE",
"85 675 CURVE",
"85 0 LINE"
);
},
{
closed = 1;
nodes = (
"400 35 LINE SMOOTH",
"416 4 OFFCURVE",
"434 -7 OFFCURVE",
"458 -7 CURVE SMOOTH",
"465 -7 OFFCURVE",
"474 -6 OFFCURVE",
"479 -5 CURVE",
"476 26 LINE",
"475 26 OFFCURVE",
"474 26 OFFCURVE",
"472 26 CURVE SMOOTH",
"454 26 OFFCURVE",
"444 34 OFFCURVE",
"434 55 CURVE SMOOTH",
"296 329 LINE",
"255 323 LINE"
);
}
);
width = 497;
},
{
anchors = (
{
name = bottom;
position = "{271, 0}";
},
{
name = top;
position = "{256, 660}";
}
);
background = {
paths = (
{
closed = 1;
nodes = (
"157 0 LINE",
"157 649 LINE",
"144 637 LINE",
"178 638 OFFCURVE",
"215 640 OFFCURVE",
"252 640 CURVE SMOOTH",
"392 640 OFFCURVE",
"439 590 OFFCURVE",
"439 493 CURVE SMOOTH",
"439 404 OFFCURVE",
"380 342 OFFCURVE",
"240 342 CURVE SMOOTH",
"135 342 LINE",
"135 305 LINE",
"269 305 LINE SMOOTH",
"406 305 OFFCURVE",
"485 391 OFFCURVE",
"485 502 CURVE SMOOTH",
"485 600 OFFCURVE",
"439 677 OFFCURVE",
"259 677 CURVE SMOOTH",
"212 677 OFFCURVE",
"162 677 OFFCURVE",
"115 675 CURVE",
"115 0 LINE"
);
},
{
closed = 1;
nodes = (
"497 0 LINE",
"339 322 LINE",
"294 320 LINE",
"449 0 LINE"
);
},
{
closed = 1;
nodes = (
"532 0 LINE",
"372 325 LINE",
"239 325 LINE",
"396 0 LINE"
);
}
);
};
layerId = "6114C541-D024-4A3E-9713-6FAF49EAB318";
name = "Bold Condensed";
paths = (
{
closed = 1;
nodes = (
"197 0 LINE",
"197 586 LINE",
"177 566 LINE",
"197 568 OFFCURVE",
"239 569 OFFCURVE",
"260 569 CURVE SMOOTH",
"339 569 OFFCURVE",
"367 531 OFFCURVE",
"367 465 CURVE SMOOTH",
"367 408 OFFCURVE",
"334 364 OFFCURVE",
"269 364 CURVE SMOOTH",
"131 364 LINE",
"131 254 LINE",
"259 254 LINE SMOOTH",
"428 254 OFFCURVE",
"502 365 OFFCURVE",
"502 479 CURVE SMOOTH",
"502 620 OFFCURVE",
"396 679 OFFCURVE",
"256 679 CURVE SMOOTH",
"172 679 OFFCURVE",
"122 677 OFFCURVE",
"65 675 CURVE",
"65 0 LINE"
);
},
{
closed = 1;
nodes = (
"348 71 LINE SMOOTH",
"373 17 OFFCURVE",
"407 -14 OFFCURVE",
"468 -14 CURVE SMOOTH",
"485 -14 OFFCURVE",
"506 -12 OFFCURVE",
"525 -7 CURVE",
"520 90 LINE",
"515 89 OFFCURVE",
"510 89 OFFCURVE",
"506 89 CURVE SMOOTH",
"486 89 OFFCURVE",
"476 96 OFFCURVE",
"466 116 CURVE SMOOTH",
"360 331 LINE",
"233 318 LINE"
);
}
);
width = 542;
}
);
unicode = 0052;
},
{
color = 3;
glyphname = S;
lastChange = "2015-11-05 07:49:53 +0000";
layers = (
{
anchors = (
{
name = bottom;
position = "{224, 0}";
},
{
name = top;
position = "{242, 645}";
}
);
guideLines = (
{
angle = 90;
position = "{72, 313}";
}
);
layerId = "CC11FE7D-5FF0-4B40-9597-DFC61EB94F41";
name = "Light Condensed";
paths = (
{
closed = 1;
nodes = (
"55 49 LINE",
"108 12 OFFCURVE",
"169 -7 OFFCURVE",
"224 -7 CURVE SMOOTH",
"325 -7 OFFCURVE",
"411 53 OFFCURVE",
"411 169 CURVE SMOOTH",
"411 390 OFFCURVE",
"115 339 OFFCURVE",
"115 513 CURVE SMOOTH",
"115 598 OFFCURVE",
"184 645 OFFCURVE",
"253 645 CURVE SMOOTH",
"303 645 OFFCURVE",
"352 621 OFFCURVE",
"377 570 CURVE",
"413 588 LINE",
"385 652 OFFCURVE",
"322 682 OFFCURVE",
"257 682 CURVE SMOOTH",
"166 682 OFFCURVE",
"71 622 OFFCURVE",
"71 513 CURVE SMOOTH",
"71 301 OFFCURVE",
"367 356 OFFCURVE",
"367 169 CURVE SMOOTH",
"367 79 OFFCURVE",
"306 30 OFFCURVE",
"227 30 CURVE SMOOTH",
"180 30 OFFCURVE",
"128 48 OFFCURVE",
"77 83 CURVE"
);
}
);
width = 461;
},
{
anchors = (
{
name = bottom;
position = "{248, 0}";
},
{
name = top;
position = "{260, 660}";
}
);
background = {
paths = (
{
closed = 1;
nodes = (
"101 10 OFFCURVE",
"176 -14 OFFCURVE",
"244 -14 CURVE SMOOTH",
"364 -14 OFFCURVE",
"463 60 OFFCURVE",
"463 205 CURVE SMOOTH",
"463 418 OFFCURVE",
"191 380 OFFCURVE",
"191 500 CURVE SMOOTH",
"191 544 OFFCURVE",
"230 570 OFFCURVE",
"282 570 CURVE SMOOTH",
"321 570 OFFCURVE",
"366 551 OFFCURVE",
"402 526 CURVE",
"460 621 LINE",
"409 669 OFFCURVE",
"337 691 OFFCURVE",
"273 691 CURVE SMOOTH",
"159 691 OFFCURVE",
"59 620 OFFCURVE",
"59 495 CURVE SMOOTH",
"59 269 OFFCURVE",
"331 319 OFFCURVE",
"331 185 CURVE SMOOTH",
"331 136 OFFCURVE",
"291 112 OFFCURVE",
"237 112 CURVE SMOOTH",
"191 112 OFFCURVE",
"133 136 OFFCURVE",
"90 163 CURVE",
"34 59 LINE"
);
}
);
};
guideLines = (
{
angle = 90;
position = "{45, 313}";
}
);
layerId = "6114C541-D024-4A3E-9713-6FAF49EAB318";
name = "Bold Condensed";
paths = (
{
closed = 1;
nodes = (
"104 6 OFFCURVE",
"176 -15 OFFCURVE",
"244 -15 CURVE SMOOTH",
"365 -15 OFFCURVE",
"465 61 OFFCURVE",
"465 197 CURVE SMOOTH",
"465 418 OFFCURVE",
"177 373 OFFCURVE",
"177 497 CURVE SMOOTH",
"177 551 OFFCURVE",
"216 579 OFFCURVE",
"259 579 CURVE SMOOTH",
"298 579 OFFCURVE",
"340 559 OFFCURVE",
"364 517 CURVE",
"461 569 LINE",
"430 651 OFFCURVE",
"347 690 OFFCURVE",
"263 690 CURVE SMOOTH",
"155 690 OFFCURVE",
"45 621 OFFCURVE",
"45 489 CURVE SMOOTH",
"45 257 OFFCURVE",
"331 309 OFFCURVE",
"331 181 CURVE SMOOTH",
"331 132 OFFCURVE",
"295 100 OFFCURVE",
"246 100 CURVE SMOOTH",
"199 100 OFFCURVE",
"137 116 OFFCURVE",
"87 148 CURVE",
"37 55 LINE"
);
}
);
width = 497;
}
);
unicode = 0053;
},
{
color = 3;
glyphname = T;
lastChange = "2015-11-05 07:49:53 +0000";
layers = (
{
anchors = (
{
name = bottom;
position = "{204, 0}";
},
{
name = center;
position = "{204, 338}";
},
{
name = top;
position = "{204, 645}";
}
);
layerId = "CC11FE7D-5FF0-4B40-9597-DFC61EB94F41";
name = "Light Condensed";
paths = (
{
closed = 1;
nodes = (
"9 676 LINE",
"9 639 LINE",
"194 639 LINE",
"182 651 LINE",
"182 0 LINE",
"224 0 LINE",
"224 651 LINE",
"213 639 LINE",
"397 639 LINE",
"397 676 LINE"
);
}
);
width = 408;
},
{
anchors = (
{
name = bottom;
position = "{212, 0}";
},
{
name = center;
position = "{212, 338}";
},
{
name = top;
position = "{212, 660}";
}
);
background = {
paths = (
{
closed = 1;
nodes = (
"143 675 LINE",
"143 0 LINE",
"275 0 LINE",
"275 675 LINE"
);
},
{
closed = 1;
nodes = (
"5 565 LINE",
"418 565 LINE",
"418 675 LINE",
"5 675 LINE"
);
}
);
};
layerId = "6114C541-D024-4A3E-9713-6FAF49EAB318";
name = "Bold Condensed";
paths = (
{
closed = 1;
nodes = (
"5 675 LINE",
"5 565 LINE",
"163 565 LINE",
"143 585 LINE",
"143 0 LINE",
"275 0 LINE",
"275 585 LINE",
"255 565 LINE",
"418 565 LINE",
"418 675 LINE"
);
}
);
width = 423;
}
);
unicode = 0054;
},
{
color = 3;
glyphname = U;
lastChange = "2015-11-05 07:49:53 +0000";
layers = (
{
anchors = (
{
name = ogonek;
position = "{363, 5}";
},
{
name = top;
position = "{301, 645}";
}
);
layerId = "CC11FE7D-5FF0-4B40-9597-DFC61EB94F41";
name = "Light Condensed";
paths = (
{
closed = 1;
nodes = (
"425 -8 OFFCURVE",
"517 71 OFFCURVE",
"517 235 CURVE SMOOTH",
"517 675 LINE",
"475 675 LINE",
"475 235 LINE SMOOTH",
"475 91 OFFCURVE",
"406 31 OFFCURVE",
"298 31 CURVE SMOOTH",
"208 31 OFFCURVE",
"127 80 OFFCURVE",
"127 249 CURVE SMOOTH",
"127 675 LINE",
"85 675 LINE",
"85 249 LINE SMOOTH",
"85 60 OFFCURVE",
"179 -8 OFFCURVE",
"300 -8 CURVE SMOOTH"
);
}
);
width = 602;
},
{
anchors = (
{
name = ogonek;
position = "{381, 10}";
},
{
name = top;
position = "{294, 660}";
}
);
background = {
paths = (
{
closed = 1;
nodes = (
"428 -15 OFFCURVE",
"539 75 OFFCURVE",
"539 266 CURVE SMOOTH",
"539 675 LINE",
"407 675 LINE",
"407 265 LINE SMOOTH",
"407 144 OFFCURVE",
"359 100 OFFCURVE",
"292 100 CURVE SMOOTH",
"227 100 OFFCURVE",
"180 139 OFFCURVE",
"180 255 CURVE SMOOTH",
"180 675 LINE",
"48 675 LINE",
"48 254 LINE SMOOTH",
"48 65 OFFCURVE",
"152 -15 OFFCURVE",
"288 -15 CURVE SMOOTH"
);
}
);
};
layerId = "6114C541-D024-4A3E-9713-6FAF49EAB318";
name = "Bold Condensed";
paths = (
{
closed = 1;
nodes = (
"433 -15 OFFCURVE",
"539 67 OFFCURVE",
"539 258 CURVE SMOOTH",
"539 675 LINE",
"407 675 LINE",
"407 265 LINE SMOOTH",
"407 143 OFFCURVE",
"364 100 OFFCURVE",
"292 100 CURVE SMOOTH",
"222 100 OFFCURVE",
"180 138 OFFCURVE",
"180 252 CURVE SMOOTH",
"180 675 LINE",
"48 675 LINE",
"48 257 LINE SMOOTH",
"48 68 OFFCURVE",
"138 -15 OFFCURVE",
"288 -15 CURVE SMOOTH"
);
}
);
width = 587;
}
);
unicode = 0055;
},
{
color = 3;
glyphname = V;
lastChange = "2015-11-05 07:49:53 +0000";
layers = (
{
guideLines = (
{
position = "{261, 201}";
}
);
layerId = "CC11FE7D-5FF0-4B40-9597-DFC61EB94F41";
name = "Light Condensed";
paths = (
{
closed = 1;
nodes = (
"281 0 LINE",
"501 675 LINE",
"458 675 LINE",
"305 199 LINE SMOOTH",
"287 143 OFFCURVE",
"270 86 OFFCURVE",
"254 26 CURVE",
"260 26 LINE",
"245 78 OFFCURVE",
"224 143 OFFCURVE",
"206 201 CURVE SMOOTH",
"59 675 LINE",
"12 675 LINE",
"227 0 LINE"
);
}
);
width = 513;
},
{
background = {
paths = (
{
closed = 1;
nodes = (
"354 0 LINE",
"560 675 LINE",
"439 675 LINE",
"336 303 LINE SMOOTH",
"321 250 OFFCURVE",
"286 112 OFFCURVE",
"272 58 CURVE",
"294 58 LINE",
"280 111 OFFCURVE",
"248 245 OFFCURVE",
"234 297 CURVE SMOOTH",
"129 675 LINE",
"-2 675 LINE",
"205 0 LINE"
);
}
);
};
layerId = "6114C541-D024-4A3E-9713-6FAF49EAB318";
name = "Bold Condensed";
paths = (
{
closed = 1;
nodes = (
"364 0 LINE",
"558 675 LINE",
"419 675 LINE",
"321 312 LINE SMOOTH",
"304 250 OFFCURVE",
"280 122 OFFCURVE",
"267 58 CURVE",
"296 58 LINE",
"286 121 OFFCURVE",
"258 246 OFFCURVE",
"242 307 CURVE SMOOTH",
"143 675 LINE",
"0 675 LINE",
"192 0 LINE"
);
}
);
width = 558;
}
);
unicode = 0056;
},
{
color = 3;
glyphname = W;
lastChange = "2015-11-05 07:49:53 +0000";
layers = (
{
guideLines = (
{
position = "{261, 443}";
},
{
position = "{261, 201}";
}
);
layerId = "CC11FE7D-5FF0-4B40-9597-DFC61EB94F41";
name = "Light Condensed";
paths = (
{
closed = 1;
nodes = (
"211 0 LINE",
"338 443 LINE SMOOTH",
"351 488 OFFCURVE",
"367 561 OFFCURVE",
"376 605 CURVE",
"369 605 LINE",
"378 561 OFFCURVE",
"392 488 OFFCURVE",
"404 443 CURVE SMOOTH",
"522 0 LINE",
"567 0 LINE",
"727 675 LINE",
"686 675 LINE",
"574 201 LINE SMOOTH",
"563 156 OFFCURVE",
"550 77 OFFCURVE",
"541 32 CURVE",
"550 32 LINE",
"541 76 OFFCURVE",
"525 156 OFFCURVE",
"513 200 CURVE SMOOTH",
"391 652 LINE",
"356 650 LINE",
"227 201 LINE SMOOTH",
"213 154 OFFCURVE",
"197 75 OFFCURVE",
"187 30 CURVE",
"195 30 LINE",
"187 75 OFFCURVE",
"174 154 OFFCURVE",
"164 199 CURVE SMOOTH",
"59 675 LINE",
"15 675 LINE",
"165 0 LINE"
);
}
);
width = 742;
},
{
background = {
paths = (
{
closed = 1;
nodes = (
"351 650 LINE",
"254 310 LINE SMOOTH",
"238 253 OFFCURVE",
"228 187 OFFCURVE",
"211 130 CURVE",
"225 130 LINE",
"213 186 OFFCURVE",
"207 251 OFFCURVE",
"194 307 CURVE SMOOTH",
"109 675 LINE",
"-24 675 LINE",
"146 0 LINE",
"280 0 LINE",
"387 363 LINE SMOOTH",
"404 420 OFFCURVE",
"414 467 OFFCURVE",
"425 521 CURVE",
"405 521 LINE",
"418 466 OFFCURVE",
"425 422 OFFCURVE",
"440 366 CURVE SMOOTH",
"540 0 LINE",
"669 0 LINE",
"854 675 LINE",
"726 675 LINE",
"639 310 LINE SMOOTH",
"625 253 OFFCURVE",
"616 187 OFFCURVE",
"599 130 CURVE",
"615 130 LINE",
"603 186 OFFCURVE",
"592 251 OFFCURVE",
"577 307 CURVE SMOOTH",
"484 650 LINE"
);
}
);
};
guideLines = (
{
position = "{435, 106}";
}
);
layerId = "6114C541-D024-4A3E-9713-6FAF49EAB318";
name = "Bold Condensed";
paths = (
{
closed = 1;
nodes = (
"302 0 LINE",
"401 363 LINE SMOOTH",
"417 421 OFFCURVE",
"424 467 OFFCURVE",
"433 521 CURVE",
"407 521 LINE",
"417 466 OFFCURVE",
"423 422 OFFCURVE",
"438 366 CURVE SMOOTH",
"534 0 LINE",
"647 0 LINE",
"820 675 LINE",
"691 675 LINE",
"615 310 LINE SMOOTH",
"603 253 OFFCURVE",
"596 177 OFFCURVE",
"583 120 CURVE",
"605 120 LINE",
"598 176 OFFCURVE",
"589 251 OFFCURVE",
"575 307 CURVE SMOOTH",
"487 654 LINE",
"360 650 LINE",
"274 310 LINE SMOOTH",
"260 253 OFFCURVE",
"252 177 OFFCURVE",
"240 120 CURVE",
"260 120 LINE",
"252 176 OFFCURVE",
"248 251 OFFCURVE",
"236 307 CURVE SMOOTH",
"157 675 LINE",
"20 675 LINE",
"185 0 LINE"
);
}
);
width = 840;
}
);
unicode = 0057;
},
{
color = 3;
glyphname = X;
lastChange = "2015-11-05 07:49:53 +0000";
layers = (
{
layerId = "CC11FE7D-5FF0-4B40-9597-DFC61EB94F41";
name = "Light Condensed";
paths = (
{
closed = 1;
nodes = (
"512 28 LINE",
"495 26 OFFCURVE",
"489 34 OFFCURVE",
"475 55 CURVE SMOOTH",
"269 367 LINE",
"69 675 LINE",
"22 675 LINE",
"243 337 LINE",
"439 35 LINE SMOOTH",
"458 6 OFFCURVE",
"474 -6 OFFCURVE",
"495 -6 CURVE SMOOTH",
"502 -6 OFFCURVE",
"508 -5 OFFCURVE",
"515 -3 CURVE"
);
},
{
closed = 1;
nodes = (
"52 0 LINE",
"263 333 LINE",
"277 340 LINE",
"488 675 LINE",
"443 675 LINE",
"251 368 LINE",
"237 361 LINE",
"7 0 LINE"
);
}
);
width = 519;
},
{
background = {
paths = (
{
closed = 1;
nodes = (
"269 337 LINE",
"465 35 LINE SMOOTH",
"489 -2 OFFCURVE",
"505 -7 OFFCURVE",
"537 -7 CURVE",
"537 28 LINE",
"521 28 OFFCURVE",
"514 34 OFFCURVE",
"500 55 CURVE SMOOTH",
"294 367 LINE",
"94 675 LINE",
"48 675 LINE"
);
},
{
closed = 1;
nodes = (
"513 675 LINE",
"469 675 LINE",
"277 368 LINE",
"263 361 LINE",
"33 0 LINE",
"77 0 LINE",
"288 333 LINE",
"302 340 LINE"
);
}
);
};
layerId = "6114C541-D024-4A3E-9713-6FAF49EAB318";
name = "Bold Condensed";
paths = (
{
closed = 1;
nodes = (
"564 95 LINE",
"536 94 OFFCURVE",
"521 100 OFFCURVE",
"505 125 CURVE SMOOTH",
"329 397 LINE",
"163 675 LINE",
"10 675 LINE",
"252 292 LINE",
"392 70 LINE SMOOTH",
"432 7 OFFCURVE",
"469 -15 OFFCURVE",
"519 -15 CURVE SMOOTH",
"534 -15 OFFCURVE",
"551 -13 OFFCURVE",
"569 -9 CURVE"
);
},
{
closed = 1;
nodes = (
"153 0 LINE",
"307 276 LINE",
"353 308 LINE",
"561 675 LINE",
"431 675 LINE",
"280 416 LINE",
"239 384 LINE",
"5 0 LINE"
);
}
);
width = 569;
}
);
unicode = 0058;
},
{
color = 3;
glyphname = Y;
lastChange = "2015-11-05 07:49:53 +0000";
layers = (
{
anchors = (
{
name = top;
position = "{225, 645}";
}
);
layerId = "CC11FE7D-5FF0-4B40-9597-DFC61EB94F41";
name = "Light Condensed";
paths = (
{
closed = 1;
nodes = (
"242 0 LINE",
"242 255 LINE",
"448 675 LINE",
"404 675 LINE",
"285 429 LINE SMOOTH",
"259 376 OFFCURVE",
"240 333 OFFCURVE",
"219 281 CURVE",
"228 281 LINE",
"209 329 OFFCURVE",
"189 376 OFFCURVE",
"163 431 CURVE SMOOTH",
"47 675 LINE",
"1 675 LINE",
"200 256 LINE",
"200 0 LINE"
);
}
);
width = 448;
},
{
anchors = (
{
name = top;
position = "{275, 660}";
}
);
layerId = "6114C541-D024-4A3E-9713-6FAF49EAB318";
name = "Bold Condensed";
paths = (
{
closed = 1;
nodes = (
"338 0 LINE",
"338 253 LINE",
"547 675 LINE",
"406 675 LINE",
"318 478 LINE SMOOTH",
"293 423 OFFCURVE",
"276 367 OFFCURVE",
"254 312 CURVE",
"295 312 LINE",
"274 367 OFFCURVE",
"256 423 OFFCURVE",
"231 478 CURVE SMOOTH",
"142 675 LINE",
"1 675 LINE",
"206 254 LINE",
"206 0 LINE"
);
}
);
width = 548;
}
);
unicode = 0059;
},
{
color = 3;
glyphname = Z;
lastChange = "2015-11-05 07:49:53 +0000";
layers = (
{
anchors = (
{
name = top;
position = "{240, 645}";
}
);
layerId = "CC11FE7D-5FF0-4B40-9597-DFC61EB94F41";
name = "Light Condensed";
paths = (
{
closed = 1;
nodes = (
"84 40 LINE",
"437 640 LINE",
"437 676 LINE",
"43 676 LINE",
"43 637 LINE",
"390 637 LINE",
"35 37 LINE",
"35 0 LINE",
"433 0 LINE",
"433 40 LINE"
);
}
);
width = 472;
},
{
anchors = (
{
name = top;
position = "{245, 660}";
}
);
layerId = "6114C541-D024-4A3E-9713-6FAF49EAB318";
name = "Bold Condensed";
paths = (
{
closed = 1;
nodes = (
"174 116 LINE",
"455 564 LINE",
"456 675 LINE",
"35 675 LINE",
"35 561 LINE",
"308 561 LINE",
"25 107 LINE",
"25 0 LINE",
"456 0 LINE",
"456 116 LINE"
);
}
);
width = 481;
}
);
unicode = 005A;
},
{
glyphname = uni0162;
lastChange = "2015-11-05 07:49:53 +0000";
layers = (
{
components = (
{
name = T;
}
);
layerId = "CC11FE7D-5FF0-4B40-9597-DFC61EB94F41";
name = "Light Condensed";
paths = (
{
closed = 1;
nodes = (
"152 -187 OFFCURVE",
"164 -188 OFFCURVE",
"176 -188 CURVE SMOOTH",
"248 -188 OFFCURVE",
"285 -143 OFFCURVE",
"285 -96 CURVE SMOOTH",
"285 -58 OFFCURVE",
"260 -23 OFFCURVE",
"224 0 CURVE",
"182 0 LINE",
"235 -32 OFFCURVE",
"252 -60 OFFCURVE",
"252 -92 CURVE SMOOTH",
"252 -125 OFFCURVE",
"223 -154 OFFCURVE",
"170 -154 CURVE SMOOTH",
"160 -154 OFFCURVE",
"151 -153 OFFCURVE",
"140 -151 CURVE",
"138 -184 LINE"
);
}
);
width = 408;
},
{
background = {
paths = (
{
closed = 1;
nodes = (
"140 -217 OFFCURVE",
"158 -219 OFFCURVE",
"174 -219 CURVE SMOOTH",
"276 -219 OFFCURVE",
"326 -160 OFFCURVE",
"326 -103 CURVE SMOOTH",
"326 -54 OFFCURVE",
"290 -5 OFFCURVE",
"218 5 CURVE",
"124 5 LINE",
"194 -11 OFFCURVE",
"228 -48 OFFCURVE",
"228 -78 CURVE SMOOTH",
"228 -105 OFFCURVE",
"203 -127 OFFCURVE",
"155 -127 CURVE SMOOTH",
"146 -127 OFFCURVE",
"135 -126 OFFCURVE",
"123 -124 CURVE",
"121 -214 LINE"
);
}
);
};
components = (
{
name = T;
}
);
layerId = "6114C541-D024-4A3E-9713-6FAF49EAB318";
name = "Bold Condensed";
paths = (
{
closed = 1;
nodes = (
"140 -217 OFFCURVE",
"158 -219 OFFCURVE",
"174 -219 CURVE SMOOTH",
"276 -219 OFFCURVE",
"326 -160 OFFCURVE",
"326 -103 CURVE SMOOTH",
"326 -60 OFFCURVE",
"308 -34 OFFCURVE",
"275 0 CURVE",
"143 0 LINE",
"206 -20 OFFCURVE",
"231 -51 OFFCURVE",
"231 -78 CURVE SMOOTH",
"231 -105 OFFCURVE",
"203 -127 OFFCURVE",
"155 -127 CURVE SMOOTH",
"146 -127 OFFCURVE",
"135 -126 OFFCURVE",
"123 -124 CURVE",
"121 -214 LINE"
);
}
);
width = 423;
}
);
unicode = 0162;
},
{
color = 3;
glyphname = a;
lastChange = "2015-11-05 07:49:53 +0000";
layers = (
{
anchors = (
{
name = ogonek;
position = "{410, 10}";
},
{
name = top;
position = "{201, 500}";
}
);
layerId = "CC11FE7D-5FF0-4B40-9597-DFC61EB94F41";
name = "Light Condensed";
paths = (
{
closed = 1;
nodes = (
"303 28 OFFCURVE",
"323 -7 OFFCURVE",
"386 -7 CURVE SMOOTH",
"394 -7 OFFCURVE",
"404 -6 OFFCURVE",
"412 -5 CURVE",
"410 26 LINE",
"404 25 OFFCURVE",
"399 25 OFFCURVE",
"394 25 CURVE SMOOTH",
"353 25 OFFCURVE",
"343 50 OFFCURVE",
"343 103 CURVE SMOOTH",
"343 364 LINE SMOOTH",
"343 462 OFFCURVE",
"278 507 OFFCURVE",
"199 507 CURVE SMOOTH",
"152 507 OFFCURVE",
"95 491 OFFCURVE",
"47 460 CURVE",
"65 428 LINE",
"109 456 OFFCURVE",
"157 472 OFFCURVE",
"198 472 CURVE SMOOTH",
"259 472 OFFCURVE",
"303 438 OFFCURVE",
"303 361 CURVE SMOOTH",
"303 156 LINE SMOOTH",
"303 67 OFFCURVE",
"224 28 OFFCURVE",
"177 28 CURVE SMOOTH",
"108 28 OFFCURVE",
"69 66 OFFCURVE",
"69 141 CURVE SMOOTH",
"69 199 OFFCURVE",
"106 250 OFFCURVE",
"229 250 CURVE SMOOTH",
"262 250 OFFCURVE",
"287 248 OFFCURVE",
"316 243 CURVE",
"316 276 LINE",
"289 281 OFFCURVE",
"264 283 OFFCURVE",
"231 283 CURVE SMOOTH",
"101 283 OFFCURVE",
"26 222 OFFCURVE",
"26 141 CURVE SMOOTH",
"26 45 OFFCURVE",
"83 -7 OFFCURVE",
"170 -7 CURVE SMOOTH",
"225 -7 OFFCURVE",
"290 26 OFFCURVE",
"321 96 CURVE",
"303 101 LINE"
);
}
);
width = 426;
},
{
anchors = (
{
name = ogonek;
position = "{447, 10}";
},
{
name = top;
position = "{222, 500}";
}
);
background = {
paths = (
{
closed = 1;
nodes = (
"290 18 OFFCURVE",
"333 -15 OFFCURVE",
"396 -15 CURVE SMOOTH",
"413 -15 OFFCURVE",
"432 -13 OFFCURVE",
"452 -8 CURVE",
"448 87 LINE",
"443 86 OFFCURVE",
"438 86 OFFCURVE",
"434 86 CURVE SMOOTH",
"408 86 OFFCURVE",
"399 100 OFFCURVE",
"399 133 CURVE SMOOTH",
"399 336 LINE SMOOTH",
"399 455 OFFCURVE",
"324 514 OFFCURVE",
"217 514 CURVE SMOOTH",
"158 514 OFFCURVE",
"88 492 OFFCURVE",
"31 457 CURVE",
"73 368 LINE",
"111 389 OFFCURVE",
"154 406 OFFCURVE",
"194 406 CURVE SMOOTH",
"239 406 OFFCURVE",
"269 385 OFFCURVE",
"269 331 CURVE SMOOTH",
"269 196 LINE SMOOTH",
"269 118 OFFCURVE",
"248 89 OFFCURVE",
"198 89 CURVE SMOOTH",
"168 89 OFFCURVE",
"146 110 OFFCURVE",
"146 142 CURVE SMOOTH",
"146 196 OFFCURVE",
"176 221 OFFCURVE",
"240 221 CURVE SMOOTH",
"273 221 OFFCURVE",
"298 219 OFFCURVE",
"327 214 CURVE",
"327 299 LINE",
"300 304 OFFCURVE",
"255 306 OFFCURVE",
"232 306 CURVE SMOOTH",
"98 306 OFFCURVE",
"15 244 OFFCURVE",
"15 142 CURVE SMOOTH",
"15 41 OFFCURVE",
"93 -15 OFFCURVE",
"172 -15 CURVE SMOOTH",
"234 -15 OFFCURVE",
"295 21 OFFCURVE",
"311 100 CURVE",
"290 100 LINE"
);
}
);
};
layerId = "6114C541-D024-4A3E-9713-6FAF49EAB318";
name = "Bold Condensed";
paths = (
{
closed = 1;
nodes = (
"290 18 OFFCURVE",
"333 -15 OFFCURVE",
"396 -15 CURVE SMOOTH",
"413 -15 OFFCURVE",
"432 -13 OFFCURVE",
"452 -8 CURVE",
"448 87 LINE",
"443 86 OFFCURVE",
"438 86 OFFCURVE",
"434 86 CURVE SMOOTH",
"408 86 OFFCURVE",
"399 100 OFFCURVE",
"399 133 CURVE SMOOTH",
"399 336 LINE SMOOTH",
"399 455 OFFCURVE",
"330 514 OFFCURVE",
"226 514 CURVE SMOOTH",
"163 514 OFFCURVE",
"87 494 OFFCURVE",
"30 460 CURVE",
"73 366 LINE",
"116 389 OFFCURVE",
"160 406 OFFCURVE",
"195 406 CURVE SMOOTH",
"239 406 OFFCURVE",
"269 384 OFFCURVE",
"269 331 CURVE SMOOTH",
"269 196 LINE SMOOTH",
"269 118 OFFCURVE",
"248 89 OFFCURVE",
"198 89 CURVE SMOOTH",
"168 89 OFFCURVE",
"146 110 OFFCURVE",
"146 142 CURVE SMOOTH",
"146 196 OFFCURVE",
"176 221 OFFCURVE",
"240 221 CURVE SMOOTH",
"273 221 OFFCURVE",
"298 219 OFFCURVE",
"327 214 CURVE",
"327 299 LINE",
"300 304 OFFCURVE",
"255 306 OFFCURVE",
"232 306 CURVE SMOOTH",
"98 306 OFFCURVE",
"15 244 OFFCURVE",
"15 142 CURVE SMOOTH",
"15 41 OFFCURVE",
"88 -15 OFFCURVE",
"168 -15 CURVE SMOOTH",
"230 -15 OFFCURVE",
"295 21 OFFCURVE",
"311 100 CURVE",
"290 100 LINE"
);
}
);
width = 457;
}
);
unicode = 0061;
},
{
color = 3;
glyphname = aogonek;
lastChange = "2015-11-05 07:49:53 +0000";
layers = (
{
components = (
{
name = a;
}
);
layerId = "CC11FE7D-5FF0-4B40-9597-DFC61EB94F41";
name = "Light Condensed";
paths = (
{
closed = 1;
nodes = (
"387 -188 OFFCURVE",
"403 -186 OFFCURVE",
"417 -183 CURVE",
"415 -153 LINE",
"404 -156 OFFCURVE",
"392 -157 OFFCURVE",
"383 -157 CURVE SMOOTH",
"334 -157 OFFCURVE",
"310 -129 OFFCURVE",
"310 -98 CURVE SMOOTH",
"310 -65 OFFCURVE",
"338 -28 OFFCURVE",
"412 -5 CURVE",
"379 5 LINE",
"307 -19 OFFCURVE",
"272 -66 OFFCURVE",
"272 -107 CURVE SMOOTH",
"272 -151 OFFCURVE",
"308 -188 OFFCURVE",
"374 -188 CURVE SMOOTH"
);
}
);
width = 426;
},
{
background = {
anchors = (
{
name = _ogonek;
position = "{447, 10}";
},
{
name = ogonek;
position = "{447, 10}";
},
{
name = top;
position = "{222, 500}";
}
);
paths = (
{
closed = 0;
nodes = (
"290 100 LINE",
"290 51 OFFCURVE",
"307 11 OFFCURVE",
"348 -7 CURVE",
"348 -3 LINE",
"285 -36 OFFCURVE",
"256 -82 OFFCURVE",
"256 -122 CURVE SMOOTH",
"256 -173 OFFCURVE",
"301 -215 OFFCURVE",
"386 -215 CURVE SMOOTH",
"411 -215 OFFCURVE",
"437 -211 OFFCURVE",
"463 -203 CURVE"
);
}
);
};
components = (
{
name = a;
}
);
guideLines = (
{
angle = 90;
position = "{1359, -94}";
}
);
layerId = "6114C541-D024-4A3E-9713-6FAF49EAB318";
name = "Bold Condensed";
paths = (
{
closed = 1;
nodes = (
"411 -215 OFFCURVE",
"437 -211 OFFCURVE",
"463 -203 CURVE",
"457 -117 LINE",
"444 -121 OFFCURVE",
"431 -123 OFFCURVE",
"419 -123 CURVE SMOOTH",
"389 -123 OFFCURVE",
"365 -110 OFFCURVE",
"365 -82 CURVE SMOOTH",
"365 -45 OFFCURVE",
"400 -23 OFFCURVE",
"452 -8 CURVE",
"348 -3 LINE",
"285 -36 OFFCURVE",
"256 -82 OFFCURVE",
"256 -122 CURVE SMOOTH",
"256 -173 OFFCURVE",
"301 -215 OFFCURVE",
"386 -215 CURVE SMOOTH"
);
}
);
width = 460;
}
);
unicode = 0105;
},
{
color = 3;
glyphname = ae;
lastChange = "2015-11-05 07:49:53 +0000";
layers = (
{
anchors = (
{
name = top;
position = "{330, 500}";
}
);
layerId = "CC11FE7D-5FF0-4B40-9597-DFC61EB94F41";
name = "Light Condensed";
paths = (
{
closed = 1;
nodes = (
"225 -7 OFFCURVE",
"300 29 OFFCURVE",
"328 110 CURVE",
"327 110 LINE",
"360 35 OFFCURVE",
"423 -7 OFFCURVE",
"505 -7 CURVE SMOOTH",
"549 -7 OFFCURVE",
"597 5 OFFCURVE",
"648 29 CURVE",
"635 60 LINE",
"591 39 OFFCURVE",
"552 29 OFFCURVE",
"512 29 CURVE SMOOTH",
"410 29 OFFCURVE",
"343 106 OFFCURVE",
"343 249 CURVE SMOOTH",
"343 381 OFFCURVE",
"394 472 OFFCURVE",
"487 472 CURVE SMOOTH",
"589 472 OFFCURVE",
"618 374 OFFCURVE",
"617 287 CURVE",
"323 286 LINE",
"323 251 LINE",
"659 251 LINE",
"659 271 LINE SMOOTH",
"659 408 OFFCURVE",
"612 507 OFFCURVE",
"487 507 CURVE SMOOTH",
"409 507 OFFCURVE",
"354 458 OFFCURVE",
"326 383 CURVE",
"341 383 LINE",
"333 467 OFFCURVE",
"272 507 OFFCURVE",
"199 507 CURVE SMOOTH",
"152 507 OFFCURVE",
"95 491 OFFCURVE",
"47 460 CURVE",
"65 428 LINE",
"109 456 OFFCURVE",
"157 472 OFFCURVE",
"198 472 CURVE SMOOTH",
"259 472 OFFCURVE",
"303 438 OFFCURVE",
"303 361 CURVE SMOOTH",
"303 156 LINE SMOOTH",
"303 67 OFFCURVE",
"224 28 OFFCURVE",
"177 28 CURVE SMOOTH",
"108 28 OFFCURVE",
"69 66 OFFCURVE",
"69 141 CURVE SMOOTH",
"69 199 OFFCURVE",
"106 250 OFFCURVE",
"229 250 CURVE SMOOTH",
"262 250 OFFCURVE",
"287 248 OFFCURVE",
"316 243 CURVE",
"316 276 LINE",
"289 281 OFFCURVE",
"264 283 OFFCURVE",
"231 283 CURVE SMOOTH",
"101 283 OFFCURVE",
"26 222 OFFCURVE",
"26 141 CURVE SMOOTH",
"26 45 OFFCURVE",
"83 -7 OFFCURVE",
"170 -7 CURVE SMOOTH"
);
}
);
width = 692;
},
{
anchors = (
{
name = top;
position = "{342, 500}";
}
);
background = {
paths = (
{
closed = 1;
nodes = (
"394 133 LINE",
"394 336 LINE SMOOTH",
"394 455 OFFCURVE",
"330 514 OFFCURVE",
"226 514 CURVE SMOOTH",
"163 514 OFFCURVE",
"87 494 OFFCURVE",
"30 460 CURVE",
"73 366 LINE",
"116 389 OFFCURVE",
"160 406 OFFCURVE",
"195 406 CURVE SMOOTH",
"239 406 OFFCURVE",
"269 384 OFFCURVE",
"269 331 CURVE SMOOTH",
"269 196 LINE SMOOTH",
"269 118 OFFCURVE",
"248 89 OFFCURVE",
"198 89 CURVE SMOOTH",
"168 89 OFFCURVE",
"146 110 OFFCURVE",
"146 142 CURVE SMOOTH",
"146 196 OFFCURVE",
"176 220 OFFCURVE",
"240 220 CURVE SMOOTH",
"273 220 OFFCURVE",
"298 218 OFFCURVE",
"327 213 CURVE",
"327 299 LINE",
"300 304 OFFCURVE",
"255 306 OFFCURVE",
"232 306 CURVE SMOOTH",
"98 306 OFFCURVE",
"15 244 OFFCURVE",
"15 142 CURVE SMOOTH",
"15 41 OFFCURVE",
"88 -15 OFFCURVE",
"168 -15 CURVE SMOOTH",
"230 -15 OFFCURVE",
"306 21 OFFCURVE",
"322 100 CURVE"
);
},
{
closed = 1;
nodes = (
"566 -15 OFFCURVE",
"629 2 OFFCURVE",
"686 42 CURVE",
"648 128 LINE",
"602 103 OFFCURVE",
"560 90 OFFCURVE",
"517 90 CURVE SMOOTH",
"447 90 OFFCURVE",
"399 144 OFFCURVE",
"399 251 CURVE SMOOTH",
"399 361 OFFCURVE",
"438 415 OFFCURVE",
"490 415 CURVE SMOOTH",
"536 415 OFFCURVE",
"565 379 OFFCURVE",
"565 309 CURVE",
"341 307 LINE",
"339 215 LINE",
"696 215 LINE",
"696 250 LINE SMOOTH",
"696 419 OFFCURVE",
"639 515 OFFCURVE",
"491 515 CURVE SMOOTH",
"371 515 OFFCURVE",
"273 431 OFFCURVE",
"273 256 CURVE SMOOTH",
"273 82 OFFCURVE",
"367 -15 OFFCURVE",
"506 -15 CURVE SMOOTH"
);
}
);
};
layerId = "6114C541-D024-4A3E-9713-6FAF49EAB318";
name = "Bold Condensed";
paths = (
{
closed = 1;
nodes = (
"230 -15 OFFCURVE",
"308 21 OFFCURVE",
"322 103 CURVE",
"305 103 LINE",
"344 26 OFFCURVE",
"415 -15 OFFCURVE",
"506 -15 CURVE SMOOTH",
"566 -15 OFFCURVE",
"629 2 OFFCURVE",
"686 42 CURVE",
"648 128 LINE",
"602 103 OFFCURVE",
"560 90 OFFCURVE",
"517 90 CURVE SMOOTH",
"447 90 OFFCURVE",
"399 144 OFFCURVE",
"399 251 CURVE SMOOTH",
"399 361 OFFCURVE",
"438 415 OFFCURVE",
"490 415 CURVE SMOOTH",
"536 415 OFFCURVE",
"565 379 OFFCURVE",
"565 309 CURVE",
"341 307 LINE",
"339 215 LINE",
"696 215 LINE",
"696 250 LINE SMOOTH",
"696 419 OFFCURVE",
"639 515 OFFCURVE",
"496 515 CURVE SMOOTH",
"435 515 OFFCURVE",
"373 490 OFFCURVE",
"333 440 CURVE",
"368 438 LINE",
"341 489 OFFCURVE",
"294 514 OFFCURVE",
"226 514 CURVE SMOOTH",
"163 514 OFFCURVE",
"87 494 OFFCURVE",
"30 460 CURVE",
"73 366 LINE",
"116 389 OFFCURVE",
"160 406 OFFCURVE",
"195 406 CURVE SMOOTH",
"239 406 OFFCURVE",
"269 384 OFFCURVE",
"269 331 CURVE SMOOTH",
"269 196 LINE SMOOTH",
"269 118 OFFCURVE",
"248 89 OFFCURVE",
"198 89 CURVE SMOOTH",
"168 89 OFFCURVE",
"146 110 OFFCURVE",
"146 142 CURVE SMOOTH",
"146 196 OFFCURVE",
"176 220 OFFCURVE",
"240 220 CURVE SMOOTH",
"273 220 OFFCURVE",
"298 218 OFFCURVE",
"327 213 CURVE",
"327 299 LINE",
"300 304 OFFCURVE",
"255 306 OFFCURVE",
"232 306 CURVE SMOOTH",
"98 306 OFFCURVE",
"15 244 OFFCURVE",
"15 142 CURVE SMOOTH",
"15 41 OFFCURVE",
"88 -15 OFFCURVE",
"168 -15 CURVE SMOOTH"
);
}
);
width = 716;
}
);
leftMetricsKey = a;
rightMetricsKey = e;
unicode = 00E6;
},
{
color = 3;
glyphname = b;
lastChange = "2015-11-05 07:49:53 +0000";
layers = (
{
layerId = "CC11FE7D-5FF0-4B40-9597-DFC61EB94F41";
name = "Light Condensed";
paths = (
{
closed = 1;
nodes = (
"360 -7 OFFCURVE",
"440 111 OFFCURVE",
"440 273 CURVE SMOOTH",
"440 422 OFFCURVE",
"363 507 OFFCURVE",
"267 507 CURVE SMOOTH",
"198 507 OFFCURVE",
"140 465 OFFCURVE",
"106 373 CURVE",
"125 373 LINE",
"125 725 LINE",
"85 725 LINE",
"85 34 LINE",
"120 13 OFFCURVE",
"180 -7 OFFCURVE",
"239 -7 CURVE SMOOTH"
);
},
{
closed = 1;
nodes = (
"202 28 OFFCURVE",
"159 38 OFFCURVE",
"125 56 CURVE",
"125 294 LINE SMOOTH",
"125 414 OFFCURVE",
"192 473 OFFCURVE",
"261 473 CURVE SMOOTH",
"328 473 OFFCURVE",
"397 409 OFFCURVE",
"397 273 CURVE SMOOTH",
"397 127 OFFCURVE",
"336 28 OFFCURVE",
"233 28 CURVE SMOOTH"
);
}
);
width = 478;
},
{
background = {
paths = (
{
closed = 1;
nodes = (
"386 -15 OFFCURVE",
"478 91 OFFCURVE",
"478 276 CURVE SMOOTH",
"478 425 OFFCURVE",
"404 515 OFFCURVE",
"295 515 CURVE SMOOTH",
"218 515 OFFCURVE",
"156 470 OFFCURVE",
"129 370 CURVE",
"184 370 LINE",
"181 725 LINE",
"51 725 LINE",
"50 30 LINE",
"112 -3 OFFCURVE",
"177 -15 OFFCURVE",
"242 -15 CURVE SMOOTH"
);
},
{
closed = 1;
nodes = (
"222 90 OFFCURVE",
"205 94 OFFCURVE",
"180 104 CURVE",
"181 284 LINE SMOOTH",
"181 364 OFFCURVE",
"210 412 OFFCURVE",
"262 412 CURVE SMOOTH",
"310 412 OFFCURVE",
"345 364 OFFCURVE",
"345 274 CURVE SMOOTH",
"345 165 OFFCURVE",
"314 90 OFFCURVE",
"241 90 CURVE SMOOTH"
);
}
);
};
layerId = "6114C541-D024-4A3E-9713-6FAF49EAB318";
name = "Bold Condensed";
paths = (
{
closed = 1;
nodes = (
"380 -15 OFFCURVE",
"478 87 OFFCURVE",
"478 276 CURVE SMOOTH",
"478 425 OFFCURVE",
"404 515 OFFCURVE",
"295 515 CURVE SMOOTH",
"222 515 OFFCURVE",
"162 470 OFFCURVE",
"135 370 CURVE",
"184 370 LINE",
"181 725 LINE",
"51 725 LINE",
"50 30 LINE",
"117 -1 OFFCURVE",
"179 -15 OFFCURVE",
"235 -15 CURVE SMOOTH"
);
},
{
closed = 1;
nodes = (
"222 90 OFFCURVE",
"205 94 OFFCURVE",
"180 104 CURVE",
"181 284 LINE SMOOTH",
"181 364 OFFCURVE",
"210 412 OFFCURVE",
"262 412 CURVE SMOOTH",
"310 412 OFFCURVE",
"345 364 OFFCURVE",
"345 274 CURVE SMOOTH",
"345 165 OFFCURVE",
"314 90 OFFCURVE",
"241 90 CURVE SMOOTH"
);
}
);
width = 501;
}
);
unicode = 0062;
},
{
color = 3;
glyphname = c;
lastChange = "2015-11-05 07:49:53 +0000";
layers = (
{
anchors = (
{
name = bottom;
position = "{221, 0}";
},
{
name = top;
position = "{228, 500}";
}
);
layerId = "CC11FE7D-5FF0-4B40-9597-DFC61EB94F41";
name = "Light Condensed";
paths = (
{
closed = 1;
nodes = (
"262 -7 OFFCURVE",
"313 4 OFFCURVE",
"366 34 CURVE",
"352 64 LINE",
"307 39 OFFCURVE",
"265 28 OFFCURVE",
"229 28 CURVE SMOOTH",
"138 28 OFFCURVE",
"83 107 OFFCURVE",
"83 249 CURVE SMOOTH",
"83 384 OFFCURVE",
"133 472 OFFCURVE",
"222 472 CURVE SMOOTH",
"269 472 OFFCURVE",
"317 440 OFFCURVE",
"343 388 CURVE",
"375 409 LINE",
"340 473 OFFCURVE",
"284 507 OFFCURVE",
"225 507 CURVE SMOOTH",
"113 507 OFFCURVE",
"40 408 OFFCURVE",
"40 250 CURVE SMOOTH",
"40 86 OFFCURVE",
"110 -7 OFFCURVE",
"221 -7 CURVE SMOOTH"
);
}
);
width = 380;
},
{
anchors = (
{
name = bottom;
position = "{232, 0}";
},
{
name = top;
position = "{242, 500}";
}
);
background = {
paths = (
{
closed = 1;
nodes = (
"301 -15 OFFCURVE",
"357 2 OFFCURVE",
"420 39 CURVE",
"384 127 LINE",
"338 104 OFFCURVE",
"300 94 OFFCURVE",
"265 94 CURVE SMOOTH",
"191 94 OFFCURVE",
"146 140 OFFCURVE",
"146 251 CURVE SMOOTH",
"146 350 OFFCURVE",
"183 409 OFFCURVE",
"240 409 CURVE SMOOTH",
"284 409 OFFCURVE",
"304 380 OFFCURVE",
"322 335 CURVE",
"429 375 LINE",
"397 469 OFFCURVE",
"339 514 OFFCURVE",
"239 514 CURVE SMOOTH",
"112 514 OFFCURVE",
"13 418 OFFCURVE",
"13 253 CURVE SMOOTH",
"13 81 OFFCURVE",
"97 -15 OFFCURVE",
"237 -15 CURVE SMOOTH"
);
}
);
};
layerId = "6114C541-D024-4A3E-9713-6FAF49EAB318";
name = "Bold Condensed";
paths = (
{
closed = 1;
nodes = (
"293 -15 OFFCURVE",
"347 2 OFFCURVE",
"410 39 CURVE",
"374 127 LINE",
"328 104 OFFCURVE",
"292 94 OFFCURVE",
"265 94 CURVE SMOOTH",
"196 94 OFFCURVE",
"154 140 OFFCURVE",
"154 251 CURVE SMOOTH",
"154 350 OFFCURVE",
"181 409 OFFCURVE",
"240 409 CURVE SMOOTH",
"278 409 OFFCURVE",
"296 380 OFFCURVE",
"312 335 CURVE",
"419 375 LINE",
"387 469 OFFCURVE",
"331 514 OFFCURVE",
"239 514 CURVE SMOOTH",
"110 514 OFFCURVE",
"21 418 OFFCURVE",
"21 253 CURVE SMOOTH",
"21 81 OFFCURVE",
"102 -15 OFFCURVE",
"237 -15 CURVE SMOOTH"
);
}
);
width = 422;
}
);
unicode = 0063;
},
{
color = 3;
glyphname = d;
lastChange = "2015-11-05 07:49:53 +0000";
layers = (
{
anchors = (
{
name = center;
position = "{239, 250}";
},
{
name = topright;
position = "{458, 500}";
}
);
layerId = "CC11FE7D-5FF0-4B40-9597-DFC61EB94F41";
name = "Light Condensed";
paths = (
{
closed = 1;
nodes = (
"353 725 LINE",
"353 196 LINE SMOOTH",
"353 78 OFFCURVE",
"286 28 OFFCURVE",
"217 28 CURVE SMOOTH",
"150 28 OFFCURVE",
"81 91 OFFCURVE",
"81 227 CURVE SMOOTH",
"81 373 OFFCURVE",
"142 472 OFFCURVE",
"245 472 CURVE SMOOTH",
"276 472 OFFCURVE",
"321 462 OFFCURVE",
"355 444 CURVE",
"385 466 LINE",
"350 487 OFFCURVE",
"298 507 OFFCURVE",
"239 507 CURVE SMOOTH",
"118 507 OFFCURVE",
"38 389 OFFCURVE",
"38 227 CURVE SMOOTH",
"38 78 OFFCURVE",
"115 -7 OFFCURVE",
"211 -7 CURVE SMOOTH",
"283 -7 OFFCURVE",
"345 36 OFFCURVE",
"375 128 CURVE",
"353 128 LINE",
"353 84 LINE SMOOTH",
"353 17 OFFCURVE",
"376 -14 OFFCURVE",
"442 -5 CURVE",
"440 26 LINE",
"402 22 OFFCURVE",
"393 39 OFFCURVE",
"393 89 CURVE SMOOTH",
"393 725 LINE"
);
}
);
width = 478;
},
{
anchors = (
{
name = center;
position = "{252, 250}";
},
{
name = topright;
position = "{484, 500}";
}
);
background = {
paths = (
{
closed = 1;
nodes = (
"323 725 LINE",
"323 216 LINE SMOOTH",
"323 134 OFFCURVE",
"291 90 OFFCURVE",
"239 90 CURVE SMOOTH",
"184 90 OFFCURVE",
"155 161 OFFCURVE",
"155 248 CURVE SMOOTH",
"155 336 OFFCURVE",
"184 410 OFFCURVE",
"260 410 CURVE SMOOTH",
"279 410 OFFCURVE",
"304 406 OFFCURVE",
"329 396 CURVE",
"409 474 LINE",
"347 507 OFFCURVE",
"304 515 OFFCURVE",
"259 515 CURVE SMOOTH",
"96 515 OFFCURVE",
"22 383 OFFCURVE",
"22 236 CURVE SMOOTH",
"22 98 OFFCURVE",
"86 -15 OFFCURVE",
"206 -15 CURVE SMOOTH",
"283 -15 OFFCURVE",
"348 30 OFFCURVE",
"375 130 CURVE",
"332 130 LINE",
"332 102 LINE SMOOTH",
"332 2 OFFCURVE",
"389 -15 OFFCURVE",
"484 -15 CURVE",
"484 85 LINE",
"464 85 OFFCURVE",
"453 96 OFFCURVE",
"453 116 CURVE SMOOTH",
"453 725 LINE"
);
},
{
closed = 0;
nodes = (
"332 100 LINE",
"332 -5 OFFCURVE",
"402 -30 OFFCURVE",
"494 -8 CURVE",
"490 87 LINE",
"453 82 OFFCURVE",
"441 95 OFFCURVE",
"441 133 CURVE SMOOTH"
);
}
);
};
layerId = "6114C541-D024-4A3E-9713-6FAF49EAB318";
name = "Bold Condensed";
paths = (
{
closed = 1;
nodes = (
"323 725 LINE",
"323 216 LINE SMOOTH",
"323 134 OFFCURVE",
"291 88 OFFCURVE",
"239 88 CURVE SMOOTH",
"181 88 OFFCURVE",
"155 161 OFFCURVE",
"155 248 CURVE SMOOTH",
"155 336 OFFCURVE",
"184 410 OFFCURVE",
"260 410 CURVE SMOOTH",
"279 410 OFFCURVE",
"304 406 OFFCURVE",
"329 396 CURVE",
"409 474 LINE",
"347 507 OFFCURVE",
"304 515 OFFCURVE",
"259 515 CURVE SMOOTH",
"96 515 OFFCURVE",
"22 383 OFFCURVE",
"22 236 CURVE SMOOTH",
"22 98 OFFCURVE",
"86 -15 OFFCURVE",
"206 -15 CURVE SMOOTH",
"280 -15 OFFCURVE",
"343 33 OFFCURVE",
"368 130 CURVE",
"332 130 LINE",
"332 102 LINE SMOOTH",
"332 -4 OFFCURVE",
"400 -30 OFFCURVE",
"489 -9 CURVE",
"484 86 LINE",
"462 83 OFFCURVE",
"453 93 OFFCURVE",
"453 114 CURVE SMOOTH",
"453 725 LINE"
);
}
);
width = 504;
}
);
unicode = 0064;
},
{
color = 1;
glyphname = eth;
lastChange = "2015-11-05 07:49:53 +0000";
layers = (
{
layerId = "CC11FE7D-5FF0-4B40-9597-DFC61EB94F41";
name = "Light Condensed";
paths = (
{
closed = 1;
nodes = (
"366 -7 OFFCURVE",
"440 91 OFFCURVE",
"440 318 CURVE SMOOTH",
"440 572 OFFCURVE",
"337 728 OFFCURVE",
"159 728 CURVE SMOOTH",
"134 728 OFFCURVE",
"103 724 OFFCURVE",
"78 717 CURVE",
"88 683 LINE",
"109 689 OFFCURVE",
"137 692 OFFCURVE",
"159 692 CURVE SMOOTH",
"286 692 OFFCURVE",
"386 589 OFFCURVE",
"396 371 CURVE",
"402 371 LINE",
"375 442 OFFCURVE",
"304 477 OFFCURVE",
"246 477 CURVE SMOOTH",
"119 477 OFFCURVE",
"40 371 OFFCURVE",
"40 235 CURVE SMOOTH",
"40 93 OFFCURVE",
"111 -7 OFFCURVE",
"239 -7 CURVE SMOOTH"
);
},
{
closed = 1;
nodes = (
"136 30 OFFCURVE",
"84 121 OFFCURVE",
"84 234 CURVE SMOOTH",
"84 345 OFFCURVE",
"140 440 OFFCURVE",
"242 440 CURVE SMOOTH",
"346 440 OFFCURVE",
"396 348 OFFCURVE",
"396 242 CURVE SMOOTH",
"396 125 OFFCURVE",
"343 30 OFFCURVE",
"239 30 CURVE SMOOTH"
);
},
{
closed = 1;
nodes = (
"391 729 LINE",
"372 755 LINE",
"157 604 LINE",
"175 576 LINE"
);
}
);
width = 479;
},
{
background = {
paths = (
{
closed = 1;
nodes = (
"156 28 OFFCURVE",
"103 121 OFFCURVE",
"103 234 CURVE SMOOTH",
"103 345 OFFCURVE",
"160 442 OFFCURVE",
"262 442 CURVE SMOOTH",
"366 442 OFFCURVE",
"416 348 OFFCURVE",
"416 242 CURVE SMOOTH",
"416 125 OFFCURVE",
"363 28 OFFCURVE",
"259 28 CURVE SMOOTH"
);
},
{
closed = 1;
nodes = (
"411 729 LINE",
"392 755 LINE",
"177 604 LINE",
"195 576 LINE"
);
},
{
closed = 1;
nodes = (
"60 88 OFFCURVE",
"131 -7 OFFCURVE",
"259 -7 CURVE SMOOTH",
"386 -7 OFFCURVE",
"460 91 OFFCURVE",
"460 318 CURVE SMOOTH",
"460 572 OFFCURVE",
"357 728 OFFCURVE",
"179 728 CURVE SMOOTH",
"154 728 OFFCURVE",
"123 724 OFFCURVE",
"98 717 CURVE",
"108 684 LINE",
"129 690 OFFCURVE",
"157 693 OFFCURVE",
"179 693 CURVE SMOOTH",
"306 693 OFFCURVE",
"406 589 OFFCURVE",
"416 371 CURVE",
"420 371 LINE",
"393 442 OFFCURVE",
"324 477 OFFCURVE",
"266 477 CURVE SMOOTH",
"139 477 OFFCURVE",
"60 366 OFFCURVE",
"60 234 CURVE SMOOTH"
);
},
{
closed = 1;
nodes = (
"447 681 LINE",
"396 762 LINE",
"150 609 LINE",
"200 528 LINE"
);
},
{
closed = 1;
nodes = (
"371 807 OFFCURVE",
"68 733 CURVE",
"95 635 LINE",
"116 640 OFFCURVE",
"140 642 OFFCURVE",
"167 642 CURVE SMOOTH",
"253 642 OFFCURVE",
"313 587 OFFCURVE",
"340 473 CURVE",
"316 481 OFFCURVE",
"289 485 OFFCURVE",
"260 485 CURVE SMOOTH",
"114 485 OFFCURVE",
"25 381 OFFCURVE",
"25 233 CURVE SMOOTH",
"25 90 OFFCURVE",
"106 -15 OFFCURVE",
"251 -15 CURVE SMOOTH",
"398 -15 OFFCURVE",
"487 103 OFFCURVE",
"487 255 CURVE SMOOTH",
"487 595 OFFCURVE"
);
},
{
closed = 1;
nodes = (
"355 143 OFFCURVE",
"313 90 OFFCURVE",
"256 90 CURVE SMOOTH",
"200 90 OFFCURVE",
"158 143 OFFCURVE",
"158 235 CURVE SMOOTH",
"158 326 OFFCURVE",
"201 380 OFFCURVE",
"257 380 CURVE SMOOTH",
"318 380 OFFCURVE",
"355 330 OFFCURVE",
"355 233 CURVE SMOOTH"
);
}
);
};
layerId = "6114C541-D024-4A3E-9713-6FAF49EAB318";
name = "Bold Condensed";
paths = (
{
closed = 1;
nodes = (
"410 -15 OFFCURVE",
"485 104 OFFCURVE",
"485 318 CURVE SMOOTH",
"485 563 OFFCURVE",
"373 740 OFFCURVE",
"177 740 CURVE SMOOTH",
"143 740 OFFCURVE",
"106 735 OFFCURVE",
"66 722 CURVE",
"93 632 LINE",
"117 637 OFFCURVE",
"141 640 OFFCURVE",
"162 640 CURVE SMOOTH",
"288 640 OFFCURVE",
"351 549 OFFCURVE",
"355 390 CURVE",
"375 390 LINE",
"365 439 OFFCURVE",
"324 484 OFFCURVE",
"240 484 CURVE SMOOTH",
"119 484 OFFCURVE",
"25 386 OFFCURVE",
"25 235 CURVE SMOOTH",
"25 92 OFFCURVE",
"106 -15 OFFCURVE",
"251 -15 CURVE SMOOTH"
);
},
{
closed = 1;
nodes = (
"200 90 OFFCURVE",
"158 143 OFFCURVE",
"158 235 CURVE SMOOTH",
"158 326 OFFCURVE",
"201 380 OFFCURVE",
"257 380 CURVE SMOOTH",
"318 380 OFFCURVE",
"355 330 OFFCURVE",
"355 233 CURVE SMOOTH",
"355 143 OFFCURVE",
"313 90 OFFCURVE",
"256 90 CURVE SMOOTH"
);
},
{
closed = 1;
nodes = (
"447 691 LINE",
"396 758 LINE",
"146 582 LINE",
"196 515 LINE"
);
}
);
width = 512;
}
);
unicode = 00F0;
},
{
glyphname = dcroat;
lastChange = "2015-11-05 07:49:53 +0000";
layers = (
{
components = (
{
name = d;
}
);
layerId = "CC11FE7D-5FF0-4B40-9597-DFC61EB94F41";
name = "Light Condensed";
paths = (
{
closed = 1;
nodes = (
"190 618 LINE",
"190 583 LINE",
"465 583 LINE",
"465 618 LINE"
);
}
);
width = 478;
},
{
components = (
{
name = d;
}
);
layerId = "6114C541-D024-4A3E-9713-6FAF49EAB318";
name = "Bold Condensed";
paths = (
{
closed = 1;
nodes = (
"201 653 LINE",
"201 568 LINE",
"513 568 LINE",
"513 653 LINE"
);
}
);
width = 504;
}
);
unicode = 0111;
},
{
color = 3;
glyphname = e;
lastChange = "2015-11-05 07:49:53 +0000";
layers = (
{
anchors = (
{
name = bottom;
position = "{245, 0}";
},
{
name = ogonek;
position = "{380, 5}";
},
{
name = top;
position = "{236, 500}";
}
);
layerId = "CC11FE7D-5FF0-4B40-9597-DFC61EB94F41";
name = "Light Condensed";
paths = (
{
closed = 1;
nodes = (
"290 -7 OFFCURVE",
"338 5 OFFCURVE",
"389 29 CURVE",
"376 60 LINE",
"332 39 OFFCURVE",
"293 29 OFFCURVE",
"253 29 CURVE SMOOTH",
"151 29 OFFCURVE",
"84 106 OFFCURVE",
"84 249 CURVE SMOOTH",
"84 382 OFFCURVE",
"135 472 OFFCURVE",
"228 472 CURVE SMOOTH",
"330 472 OFFCURVE",
"359 374 OFFCURVE",
"358 287 CURVE",
"64 286 LINE",
"64 251 LINE",
"400 251 LINE",
"400 271 LINE SMOOTH",
"400 408 OFFCURVE",
"353 507 OFFCURVE",
"228 507 CURVE SMOOTH",
"111 507 OFFCURVE",
"41 400 OFFCURVE",
"41 250 CURVE SMOOTH",
"41 85 OFFCURVE",
"122 -7 OFFCURVE",
"246 -7 CURVE SMOOTH"
);
}
);
width = 433;
},
{
anchors = (
{
name = bottom;
position = "{265, 0}";
},
{
name = ogonek;
position = "{417, 10}";
},
{
name = top;
position = "{250, 500}";
}
);
background = {
paths = (
{
closed = 1;
nodes = (
"325 -15 OFFCURVE",
"388 2 OFFCURVE",
"445 42 CURVE",
"407 128 LINE",
"361 103 OFFCURVE",
"319 90 OFFCURVE",
"276 90 CURVE SMOOTH",
"206 90 OFFCURVE",
"158 144 OFFCURVE",
"158 251 CURVE SMOOTH",
"158 361 OFFCURVE",
"197 415 OFFCURVE",
"249 415 CURVE SMOOTH",
"295 415 OFFCURVE",
"324 379 OFFCURVE",
"324 309 CURVE",
"100 307 LINE",
"98 213 LINE",
"455 213 LINE",
"455 250 LINE SMOOTH",
"455 419 OFFCURVE",
"399 515 OFFCURVE",
"256 515 CURVE SMOOTH",
"133 515 OFFCURVE",
"25 435 OFFCURVE",
"25 256 CURVE SMOOTH",
"25 82 OFFCURVE",
"125 -15 OFFCURVE",
"265 -15 CURVE SMOOTH"
);
}
);
};
layerId = "6114C541-D024-4A3E-9713-6FAF49EAB318";
name = "Bold Condensed";
paths = (
{
closed = 1;
nodes = (
"325 -15 OFFCURVE",
"388 2 OFFCURVE",
"445 42 CURVE",
"407 128 LINE",
"361 103 OFFCURVE",
"319 90 OFFCURVE",
"276 90 CURVE SMOOTH",
"206 90 OFFCURVE",
"158 144 OFFCURVE",
"158 251 CURVE SMOOTH",
"158 361 OFFCURVE",
"197 415 OFFCURVE",
"249 415 CURVE SMOOTH",
"295 415 OFFCURVE",
"324 379 OFFCURVE",
"324 309 CURVE",
"100 307 LINE",
"98 213 LINE",
"455 213 LINE",
"455 250 LINE SMOOTH",
"455 419 OFFCURVE",
"398 515 OFFCURVE",
"250 515 CURVE SMOOTH",
"130 515 OFFCURVE",
"25 431 OFFCURVE",
"25 256 CURVE SMOOTH",
"25 82 OFFCURVE",
"125 -15 OFFCURVE",
"265 -15 CURVE SMOOTH"
);
}
);
width = 475;
}
);
unicode = 0065;
},
{
color = 3;
glyphname = eogonek;
lastChange = "2015-11-05 07:49:53 +0000";
layers = (
{
components = (
{
name = e;
}
);
guideLines = (
{
angle = 90;
position = "{-449, 151}";
},
{
angle = 90;
position = "{399, 151}";
}
);
layerId = "CC11FE7D-5FF0-4B40-9597-DFC61EB94F41";
name = "Light Condensed";
paths = (
{
closed = 1;
nodes = (
"356 -193 OFFCURVE",
"372 -191 OFFCURVE",
"386 -188 CURVE",
"384 -158 LINE",
"373 -161 OFFCURVE",
"361 -162 OFFCURVE",
"352 -162 CURVE SMOOTH",
"306 -162 OFFCURVE",
"283 -136 OFFCURVE",
"283 -102 CURVE SMOOTH",
"283 -59 OFFCURVE",
"321 -2 OFFCURVE",
"389 29 CURVE",
"330 15 LINE",
"273 -16 OFFCURVE",
"245 -66 OFFCURVE",
"245 -109 CURVE SMOOTH",
"245 -155 OFFCURVE",
"277 -193 OFFCURVE",
"343 -193 CURVE SMOOTH"
);
}
);
width = 433;
},
{
background = {
paths = (
{
closed = 1;
nodes = (
"257 -37 OFFCURVE",
"235 -73 OFFCURVE",
"235 -113 CURVE SMOOTH",
"235 -185 OFFCURVE",
"294 -215 OFFCURVE",
"363 -215 CURVE SMOOTH",
"389 -215 OFFCURVE",
"417 -211 OFFCURVE",
"443 -203 CURVE",
"437 -117 LINE",
"424 -121 OFFCURVE",
"411 -123 OFFCURVE",
"399 -123 CURVE SMOOTH",
"369 -123 OFFCURVE",
"345 -110 OFFCURVE",
"345 -82 CURVE SMOOTH",
"345 -45 OFFCURVE",
"378 -19 OFFCURVE",
"432 0 CURVE",
"302 0 LINE"
);
}
);
};
components = (
{
name = e;
}
);
guideLines = (
{
angle = 90;
position = "{454, 151}";
},
{
angle = 90;
position = "{-489, 151}";
}
);
layerId = "6114C541-D024-4A3E-9713-6FAF49EAB318";
name = "Bold Condensed";
paths = (
{
closed = 1;
nodes = (
"389 -215 OFFCURVE",
"417 -211 OFFCURVE",
"443 -203 CURVE",
"437 -117 LINE",
"424 -121 OFFCURVE",
"410 -123 OFFCURVE",
"398 -123 CURVE SMOOTH",
"369 -123 OFFCURVE",
"345 -111 OFFCURVE",
"345 -77 CURVE SMOOTH",
"345 -41 OFFCURVE",
"377 -2 OFFCURVE",
"445 42 CURVE",
"308 0 LINE",
"259 -34 OFFCURVE",
"235 -77 OFFCURVE",
"235 -116 CURVE SMOOTH",
"235 -170 OFFCURVE",
"280 -215 OFFCURVE",
"363 -215 CURVE SMOOTH"
);
}
);
width = 475;
}
);
unicode = 0119;
},
{
color = 3;
glyphname = f;
lastChange = "2015-11-05 07:49:53 +0000";
layers = (
{
layerId = "CC11FE7D-5FF0-4B40-9597-DFC61EB94F41";
name = "Light Condensed";
paths = (
{
closed = 1;
nodes = (
"146 0 LINE",
"146 586 LINE SMOOTH",
"146 659 OFFCURVE",
"173 697 OFFCURVE",
"219 697 CURVE SMOOTH",
"239 697 OFFCURVE",
"263 690 OFFCURVE",
"289 675 CURVE",
"306 704 LINE",
"277 723 OFFCURVE",
"247 732 OFFCURVE",
"219 732 CURVE SMOOTH",
"154 732 OFFCURVE",
"106 685 OFFCURVE",
"106 598 CURVE SMOOTH",
"106 0 LINE"
);
},
{
closed = 1;
nodes = (
"288 465 LINE",
"288 500 LINE",
"30 500 LINE",
"30 465 LINE"
);
}
);
width = 303;
},
{
background = {
paths = (
{
closed = 1;
nodes = (
"215 0 LINE",
"215 568 LINE SMOOTH",
"215 613 OFFCURVE",
"235 634 OFFCURVE",
"265 634 CURVE SMOOTH",
"281 634 OFFCURVE",
"299 627 OFFCURVE",
"318 617 CURVE",
"356 703 LINE",
"311 728 OFFCURVE",
"267 740 OFFCURVE",
"228 740 CURVE SMOOTH",
"145 740 OFFCURVE",
"85 685 OFFCURVE",
"85 579 CURVE SMOOTH",
"85 0 LINE"
);
},
{
closed = 1;
nodes = (
"317 405 LINE",
"317 500 LINE",
"27 500 LINE",
"27 405 LINE"
);
}
);
};
layerId = "6114C541-D024-4A3E-9713-6FAF49EAB318";
name = "Bold Condensed";
paths = (
{
closed = 1;
nodes = (
"215 0 LINE",
"215 568 LINE SMOOTH",
"215 613 OFFCURVE",
"235 634 OFFCURVE",
"265 634 CURVE SMOOTH",
"281 634 OFFCURVE",
"300 628 OFFCURVE",
"318 618 CURVE",
"357 707 LINE",
"314 729 OFFCURVE",
"271 740 OFFCURVE",
"232 740 CURVE SMOOTH",
"148 740 OFFCURVE",
"85 687 OFFCURVE",
"85 579 CURVE SMOOTH",
"85 0 LINE"
);
},
{
closed = 1;
nodes = (
"317 405 LINE",
"317 500 LINE",
"27 500 LINE",
"27 405 LINE"
);
}
);
width = 337;
}
);
unicode = 0066;
},
{
color = 3;
glyphname = g;
lastChange = "2015-11-05 07:49:53 +0000";
layers = (
{
anchors = (
{
name = top;
position = "{228, 500}";
}
);
layerId = "CC11FE7D-5FF0-4B40-9597-DFC61EB94F41";
name = "Light Condensed";
paths = (
{
closed = 1;
nodes = (
"338 242 OFFCURVE",
"279 197 OFFCURVE",
"222 197 CURVE SMOOTH",
"164 197 OFFCURVE",
"104 243 OFFCURVE",
"104 332 CURVE SMOOTH",
"104 427 OFFCURVE",
"164 473 OFFCURVE",
"221 473 CURVE SMOOTH",
"279 473 OFFCURVE",
"338 427 OFFCURVE",
"338 332 CURVE SMOOTH"
);
},
{
closed = 1;
nodes = (
"376 449 OFFCURVE",
"300 507 OFFCURVE",
"222 507 CURVE SMOOTH",
"145 507 OFFCURVE",
"66 449 OFFCURVE",
"66 332 CURVE SMOOTH",
"66 218 OFFCURVE",
"142 163 OFFCURVE",
"221 163 CURVE SMOOTH",
"298 163 OFFCURVE",
"376 219 OFFCURVE",
"376 332 CURVE SMOOTH"
);
},
{
closed = 1;
nodes = (
"221 500 LINE",
"301 473 LINE",
"421 472 LINE",
"421 507 LINE"
);
},
{
closed = 1;
nodes = (
"82 22 OFFCURVE",
"40 -20 OFFCURVE",
"40 -79 CURVE SMOOTH",
"40 -159 OFFCURVE",
"109 -212 OFFCURVE",
"217 -212 CURVE SMOOTH",
"337 -212 OFFCURVE",
"418 -151 OFFCURVE",
"418 -57 CURVE SMOOTH",
"418 21 OFFCURVE",
"356 71 OFFCURVE",
"252 70 CURVE SMOOTH",
"164 69 LINE SMOOTH",
"133 69 OFFCURVE",
"114 91 OFFCURVE",
"114 115 CURVE SMOOTH",
"114 139 OFFCURVE",
"133 165 OFFCURVE",
"174 174 CURVE",
"159 195 LINE",
"103 182 OFFCURVE",
"77 144 OFFCURVE",
"77 109 CURVE SMOOTH",
"77 70 OFFCURVE",
"111 33 OFFCURVE",
"173 35 CURVE SMOOTH",
"252 37 LINE SMOOTH",
"330 39 OFFCURVE",
"378 -1 OFFCURVE",
"378 -57 CURVE SMOOTH",
"378 -133 OFFCURVE",
"316 -177 OFFCURVE",
"217 -177 CURVE SMOOTH",
"137 -177 OFFCURVE",
"80 -140 OFFCURVE",
"80 -79 CURVE SMOOTH",
"80 -32 OFFCURVE",
"112 8 OFFCURVE",
"170 39 CURVE",
"152 60 LINE"
);
}
);
width = 451;
},
{
anchors = (
{
name = top;
position = "{236, 500}";
}
);
background = {
paths = (
{
closed = 1;
nodes = (
"315 255 OFFCURVE",
"288 228 OFFCURVE",
"242 228 CURVE SMOOTH",
"198 228 OFFCURVE",
"163 261 OFFCURVE",
"163 319 CURVE SMOOTH",
"163 382 OFFCURVE",
"190 414 OFFCURVE",
"238 414 CURVE SMOOTH",
"285 414 OFFCURVE",
"315 378 OFFCURVE",
"315 317 CURVE SMOOTH"
);
},
{
closed = 1;
nodes = (
"435 425 OFFCURVE",
"347 509 OFFCURVE",
"240 509 CURVE SMOOTH",
"123 509 OFFCURVE",
"43 432 OFFCURVE",
"43 317 CURVE SMOOTH",
"43 209 OFFCURVE",
"127 133 OFFCURVE",
"240 133 CURVE SMOOTH",
"353 133 OFFCURVE",
"435 208 OFFCURVE",
"435 319 CURVE SMOOTH"
);
},
{
closed = 1;
nodes = (
"240 498 LINE",
"238 422 LINE",
"490 414 LINE",
"490 508 LINE"
);
},
{
closed = 1;
nodes = (
"68 1 OFFCURVE",
"25 -53 OFFCURVE",
"25 -99 CURVE SMOOTH",
"25 -176 OFFCURVE",
"119 -215 OFFCURVE",
"221 -215 CURVE SMOOTH",
"344 -215 OFFCURVE",
"478 -158 OFFCURVE",
"478 -55 CURVE SMOOTH",
"478 39 OFFCURVE",
"409 82 OFFCURVE",
"299 80 CURVE SMOOTH",
"202 78 LINE SMOOTH",
"158 77 OFFCURVE",
"144 92 OFFCURVE",
"144 109 CURVE SMOOTH",
"144 124 OFFCURVE",
"156 141 OFFCURVE",
"168 146 CURVE",
"153 213 LINE",
"81 189 OFFCURVE",
"47 137 OFFCURVE",
"47 88 CURVE SMOOTH",
"47 32 OFFCURVE",
"93 -22 OFFCURVE",
"181 -20 CURVE SMOOTH",
"281 -18 LINE SMOOTH",
"328 -17 OFFCURVE",
"357 -28 OFFCURVE",
"357 -57 CURVE SMOOTH",
"357 -96 OFFCURVE",
"307 -119 OFFCURVE",
"239 -119 CURVE SMOOTH",
"176 -119 OFFCURVE",
"135 -101 OFFCURVE",
"135 -65 CURVE SMOOTH",
"135 -47 OFFCURVE",
"153 -23 OFFCURVE",
"194 -3 CURVE",
"157 36 LINE"
);
},
{
closed = 1;
nodes = (
"63 1 OFFCURVE",
"20 -53 OFFCURVE",
"20 -99 CURVE SMOOTH",
"20 -176 OFFCURVE",
"114 -215 OFFCURVE",
"221 -215 CURVE SMOOTH",
"349 -215 OFFCURVE",
"483 -158 OFFCURVE",
"483 -55 CURVE SMOOTH",
"483 44 OFFCURVE",
"414 87 OFFCURVE",
"299 85 CURVE SMOOTH",
"202 83 LINE SMOOTH",
"158 82 OFFCURVE",
"144 97 OFFCURVE",
"144 109 CURVE SMOOTH",
"144 124 OFFCURVE",
"156 141 OFFCURVE",
"168 146 CURVE",
"153 213 LINE",
"76 189 OFFCURVE",
"42 137 OFFCURVE",
"42 88 CURVE SMOOTH",
"42 32 OFFCURVE",
"88 -25 OFFCURVE",
"181 -23 CURVE SMOOTH",
"281 -21 LINE SMOOTH",
"328 -20 OFFCURVE",
"357 -31 OFFCURVE",
"357 -57 CURVE SMOOTH",
"357 -91 OFFCURVE",
"307 -114 OFFCURVE",
"239 -114 CURVE SMOOTH",
"176 -114 OFFCURVE",
"140 -96 OFFCURVE",
"140 -65 CURVE SMOOTH",
"140 -47 OFFCURVE",
"158 -23 OFFCURVE",
"199 -3 CURVE",
"152 36 LINE"
);
}
);
};
layerId = "6114C541-D024-4A3E-9713-6FAF49EAB318";
name = "Bold Condensed";
paths = (
{
closed = 1;
nodes = (
"310 260 OFFCURVE",
"280 231 OFFCURVE",
"240 231 CURVE SMOOTH",
"199 231 OFFCURVE",
"168 261 OFFCURVE",
"168 319 CURVE SMOOTH",
"168 380 OFFCURVE",
"198 409 OFFCURVE",
"238 409 CURVE SMOOTH",
"279 409 OFFCURVE",
"310 379 OFFCURVE",
"310 320 CURVE SMOOTH"
);
},
{
closed = 1;
nodes = (
"440 425 OFFCURVE",
"352 509 OFFCURVE",
"240 509 CURVE SMOOTH",
"118 509 OFFCURVE",
"38 432 OFFCURVE",
"38 317 CURVE SMOOTH",
"38 207 OFFCURVE",
"122 131 OFFCURVE",
"240 131 CURVE SMOOTH",
"358 131 OFFCURVE",
"440 206 OFFCURVE",
"440 319 CURVE SMOOTH"
);
},
{
closed = 1;
nodes = (
"240 498 LINE",
"334 416 LINE",
"493 409 LINE",
"493 508 LINE"
);
},
{
closed = 1;
nodes = (
"63 1 OFFCURVE",
"20 -53 OFFCURVE",
"20 -99 CURVE SMOOTH",
"20 -176 OFFCURVE",
"114 -215 OFFCURVE",
"221 -215 CURVE SMOOTH",
"398 -215 OFFCURVE",
"483 -131 OFFCURVE",
"483 -46 CURVE SMOOTH",
"483 28 OFFCURVE",
"420 87 OFFCURVE",
"299 85 CURVE SMOOTH",
"202 83 LINE SMOOTH",
"166 82 OFFCURVE",
"145 90 OFFCURVE",
"145 113 CURVE SMOOTH",
"145 123 OFFCURVE",
"152 135 OFFCURVE",
"168 146 CURVE",
"153 212 LINE",
"78 189 OFFCURVE",
"42 137 OFFCURVE",
"42 87 CURVE SMOOTH",
"42 29 OFFCURVE",
"91 -25 OFFCURVE",
"181 -23 CURVE SMOOTH",
"281 -21 LINE SMOOTH",
"328 -20 OFFCURVE",
"357 -31 OFFCURVE",
"357 -57 CURVE SMOOTH",
"357 -91 OFFCURVE",
"307 -114 OFFCURVE",
"239 -114 CURVE SMOOTH",
"175 -114 OFFCURVE",
"140 -96 OFFCURVE",
"140 -65 CURVE SMOOTH",
"140 -45 OFFCURVE",
"159 -22 OFFCURVE",
"199 -3 CURVE",
"152 36 LINE"
);
}
);
width = 503;
}
);
unicode = 0067;
},
{
color = 3;
glyphname = h;
lastChange = "2015-11-05 07:49:53 +0000";
layers = (
{
layerId = "CC11FE7D-5FF0-4B40-9597-DFC61EB94F41";
name = "Light Condensed";
paths = (
{
closed = 1;
nodes = (
"455 26 LINE",
"417 22 OFFCURVE",
"408 39 OFFCURVE",
"408 89 CURVE SMOOTH",
"408 344 LINE SMOOTH",
"408 448 OFFCURVE",
"355 507 OFFCURVE",
"263 507 CURVE SMOOTH",
"194 507 OFFCURVE",
"135 463 OFFCURVE",
"110 372 CURVE",
"124 372 LINE",
"125 725 LINE",
"85 725 LINE",
"85 0 LINE",
"125 0 LINE",
"125 294 LINE SMOOTH",
"125 412 OFFCURVE",
"190 474 OFFCURVE",
"261 474 CURVE SMOOTH",
"326 474 OFFCURVE",
"368 429 OFFCURVE",
"368 341 CURVE SMOOTH",
"368 83 LINE SMOOTH",
"368 17 OFFCURVE",
"391 -14 OFFCURVE",
"457 -5 CURVE"
);
}
);
width = 497;
},
{
background = {
paths = (
{
closed = 1;
nodes = (
"507 85 LINE",
"482 85 OFFCURVE",
"471 94 OFFCURVE",
"471 119 CURVE SMOOTH",
"471 336 LINE SMOOTH",
"471 457 OFFCURVE",
"405 515 OFFCURVE",
"322 515 CURVE SMOOTH",
"241 515 OFFCURVE",
"163 459 OFFCURVE",
"136 348 CURVE",
"185 348 LINE",
"185 725 LINE",
"55 725 LINE",
"55 0 LINE",
"185 0 LINE",
"185 257 LINE SMOOTH",
"185 366 OFFCURVE",
"228 415 OFFCURVE",
"276 415 CURVE SMOOTH",
"315 415 OFFCURVE",
"341 383 OFFCURVE",
"341 326 CURVE SMOOTH",
"341 117 LINE SMOOTH",
"341 7 OFFCURVE",
"397 -15 OFFCURVE",
"507 -15 CURVE"
);
}
);
};
layerId = "6114C541-D024-4A3E-9713-6FAF49EAB318";
name = "Bold Condensed";
paths = (
{
closed = 1;
nodes = (
"501 86 LINE",
"475 83 OFFCURVE",
"465 93 OFFCURVE",
"465 117 CURVE SMOOTH",
"465 336 LINE SMOOTH",
"465 457 OFFCURVE",
"400 515 OFFCURVE",
"319 515 CURVE SMOOTH",
"240 515 OFFCURVE",
"165 459 OFFCURVE",
"138 348 CURVE",
"185 348 LINE",
"185 725 LINE",
"55 725 LINE",
"55 0 LINE",
"185 0 LINE",
"185 257 LINE SMOOTH",
"185 366 OFFCURVE",
"227 412 OFFCURVE",
"273 412 CURVE SMOOTH",
"310 412 OFFCURVE",
"335 380 OFFCURVE",
"335 323 CURVE SMOOTH",
"335 110 LINE SMOOTH",
"335 0 OFFCURVE",
"408 -29 OFFCURVE",
"506 -9 CURVE"
);
}
);
width = 527;
}
);
unicode = 0068;
},
{
color = 3;
glyphname = i;
lastChange = "2015-11-05 07:49:53 +0000";
layers = (
{
layerId = "CC11FE7D-5FF0-4B40-9597-DFC61EB94F41";
name = "Light Condensed";
paths = (
{
closed = 1;
nodes = (
"124 0 LINE",
"124 500 LINE",
"85 500 LINE",
"85 0 LINE"
);
},
{
closed = 1;
nodes = (
"126 607 OFFCURVE",
"138 624 OFFCURVE",
"138 645 CURVE SMOOTH",
"138 665 OFFCURVE",
"126 682 OFFCURVE",
"105 682 CURVE SMOOTH",
"84 682 OFFCURVE",
"72 665 OFFCURVE",
"72 645 CURVE SMOOTH",
"72 624 OFFCURVE",
"84 607 OFFCURVE",
"105 607 CURVE SMOOTH"
);
}
);
width = 210;
},
{
background = {
paths = (
{
closed = 1;
nodes = (
"187 0 LINE",
"187 500 LINE",
"57 500 LINE",
"57 0 LINE"
);
},
{
closed = 1;
nodes = (
"83 559 OFFCURVE",
"122 559 CURVE SMOOTH",
"161 559 OFFCURVE",
"201 589 OFFCURVE",
"201 646 CURVE SMOOTH",
"201 702 OFFCURVE",
"162 730 OFFCURVE",
"123 730 CURVE SMOOTH",
"84 730 OFFCURVE",
"45 702 OFFCURVE",
"45 646 CURVE SMOOTH",
"45 588 OFFCURVE"
);
}
);
};
layerId = "6114C541-D024-4A3E-9713-6FAF49EAB318";
name = "Bold Condensed";
paths = (
{
closed = 1;
nodes = (
"187 0 LINE",
"187 500 LINE",
"57 500 LINE",
"57 0 LINE"
);
},
{
closed = 1;
nodes = (
"164 558 OFFCURVE",
"204 588 OFFCURVE",
"204 646 CURVE SMOOTH",
"204 703 OFFCURVE",
"165 731 OFFCURVE",
"123 731 CURVE SMOOTH",
"81 731 OFFCURVE",
"42 703 OFFCURVE",
"42 646 CURVE SMOOTH",
"42 587 OFFCURVE",
"80 558 OFFCURVE",
"122 558 CURVE SMOOTH"
);
}
);
width = 245;
}
);
unicode = 0069;
},
{
glyphname = dotlessi;
lastChange = "2015-11-05 07:49:53 +0000";
layers = (
{
anchors = (
{
name = ogonek;
position = "{124, 5}";
},
{
name = top;
position = "{105, 500}";
}
);
layerId = "CC11FE7D-5FF0-4B40-9597-DFC61EB94F41";
name = "Light Condensed";
paths = (
{
closed = 1;
nodes = (
"124 0 LINE",
"124 500 LINE",
"85 500 LINE",
"85 0 LINE"
);
}
);
width = 210;
},
{
anchors = (
{
name = ogonek;
position = "{187, 10}";
},
{
name = top;
position = "{123, 500}";
}
);
layerId = "6114C541-D024-4A3E-9713-6FAF49EAB318";
name = "Bold Condensed";
paths = (
{
closed = 1;
nodes = (
"187 0 LINE",
"187 500 LINE",
"57 500 LINE",
"57 0 LINE"
);
}
);
width = 245;
}
);
unicode = 0131;
},
{
glyphname = icircumflex;
lastChange = "2015-11-05 07:49:53 +0000";
layers = (
{
components = (
{
name = dotlessi;
}
);
layerId = "CC11FE7D-5FF0-4B40-9597-DFC61EB94F41";
name = "Light Condensed";
paths = (
{
closed = 1;
nodes = (
"110 709 LINE",
"-6 598 LINE",
"18 576 LINE",
"111 658 LINE",
"103 658 LINE",
"196 575 LINE",
"220 601 LINE"
);
}
);
width = 210;
},
{
components = (
{
name = dotlessi;
}
);
layerId = "6114C541-D024-4A3E-9713-6FAF49EAB318";
name = "Bold Condensed";
paths = (
{
closed = 1;
nodes = (
"126 744 LINE",
"-23 621 LINE",
"31 556 LINE",
"131 636 LINE",
"115 636 LINE",
"215 554 LINE",
"273 621 LINE"
);
}
);
width = 245;
}
);
unicode = 00EE;
},
{
glyphname = idieresis;
lastChange = "2015-11-05 07:49:53 +0000";
layers = (
{
components = (
{
name = dotlessi;
}
);
layerId = "CC11FE7D-5FF0-4B40-9597-DFC61EB94F41";
name = "Light Condensed";
paths = (
{
closed = 1;
nodes = (
"54 607 OFFCURVE",
"66 624 OFFCURVE",
"66 644 CURVE SMOOTH",
"66 664 OFFCURVE",
"54 681 OFFCURVE",
"34 681 CURVE SMOOTH",
"13 681 OFFCURVE",
"1 664 OFFCURVE",
"1 644 CURVE SMOOTH",
"1 624 OFFCURVE",
"13 607 OFFCURVE",
"34 607 CURVE SMOOTH"
);
},
{
closed = 1;
nodes = (
"197 607 OFFCURVE",
"209 624 OFFCURVE",
"209 644 CURVE SMOOTH",
"209 664 OFFCURVE",
"197 681 OFFCURVE",
"176 681 CURVE SMOOTH",
"156 681 OFFCURVE",
"144 664 OFFCURVE",
"144 644 CURVE SMOOTH",
"144 624 OFFCURVE",
"156 607 OFFCURVE",
"176 607 CURVE SMOOTH"
);
}
);
width = 210;
},
{
components = (
{
name = dotlessi;
}
);
layerId = "6114C541-D024-4A3E-9713-6FAF49EAB318";
name = "Bold Condensed";
paths = (
{
closed = 1;
nodes = (
"65 571 OFFCURVE",
"100 595 OFFCURVE",
"100 646 CURVE SMOOTH",
"100 695 OFFCURVE",
"66 718 OFFCURVE",
"33 718 CURVE SMOOTH",
"-1 718 OFFCURVE",
"-35 695 OFFCURVE",
"-35 646 CURVE SMOOTH",
"-35 595 OFFCURVE",
"-2 571 OFFCURVE",
"32 571 CURVE SMOOTH"
);
},
{
closed = 1;
nodes = (
"245 571 OFFCURVE",
"280 595 OFFCURVE",
"280 646 CURVE SMOOTH",
"280 695 OFFCURVE",
"246 718 OFFCURVE",
"212 718 CURVE SMOOTH",
"179 718 OFFCURVE",
"145 695 OFFCURVE",
"145 646 CURVE SMOOTH",
"145 595 OFFCURVE",
"178 571 OFFCURVE",
"211 571 CURVE SMOOTH"
);
}
);
width = 245;
}
);
unicode = 00EF;
},
{
glyphname = imacron;
lastChange = "2015-11-05 07:49:53 +0000";
layers = (
{
components = (
{
name = dotlessi;
}
);
layerId = "CC11FE7D-5FF0-4B40-9597-DFC61EB94F41";
name = "Light Condensed";
paths = (
{
closed = 1;
nodes = (
"1 662 LINE",
"1 627 LINE",
"209 627 LINE",
"209 662 LINE"
);
}
);
width = 210;
},
{
components = (
{
name = dotlessi;
}
);
layerId = "6114C541-D024-4A3E-9713-6FAF49EAB318";
name = "Bold Condensed";
paths = (
{
closed = 1;
nodes = (
"1 694 LINE",
"1 594 LINE",
"244 594 LINE",
"244 694 LINE"
);
}
);
width = 245;
}
);
unicode = 012B;
},
{
color = 3;
glyphname = iogonek;
lastChange = "2015-11-05 07:49:53 +0000";
layers = (
{
components = (
{
name = dotlessi;
},
{
name = dotaccent;
transform = "{1, 0, 0, 1, -18, 0}";
},
{
name = ogonek;
transform = "{1, 0, 0, 1, -70, 0}";
}
);
layerId = "CC11FE7D-5FF0-4B40-9597-DFC61EB94F41";
name = "Light Condensed";
width = 210;
},
{
background = {
paths = (
{
closed = 1;
nodes = (
"96 431 OFFCURVE",
"144 422 OFFCURVE",
"144 382 CURVE SMOOTH",
"144 345 OFFCURVE",
"111 319 OFFCURVE",
"57 300 CURVE",
"57 -200 LINE",
"187 -200 LINE",
"187 300 LINE",
"232 337 OFFCURVE",
"254 373 OFFCURVE",
"254 413 CURVE SMOOTH",
"254 512 OFFCURVE",
"141 534 OFFCURVE",
"46 503 CURVE",
"52 417 LINE"
);
}
);
};
components = (
{
name = dotlessi;
},
{
name = dotaccent;
},
{
name = ogonek;
transform = "{1, 0, 0, 1, -52, 0}";
}
);
layerId = "6114C541-D024-4A3E-9713-6FAF49EAB318";
name = "Bold Condensed";
width = 245;
}
);
unicode = 012F;
},
{
color = 3;
glyphname = j;
lastChange = "2015-11-05 07:49:53 +0000";
layers = (
{
layerId = "CC11FE7D-5FF0-4B40-9597-DFC61EB94F41";
name = "Light Condensed";
paths = (
{
closed = 1;
nodes = (
"77 -212 OFFCURVE",
"123 -159 OFFCURVE",
"123 -70 CURVE SMOOTH",
"123 500 LINE",
"83 500 LINE",
"83 -72 LINE SMOOTH",
"83 -141 OFFCURVE",
"54 -177 OFFCURVE",
"10 -177 CURVE SMOOTH",
"-11 -177 OFFCURVE",
"-34 -169 OFFCURVE",
"-59 -154 CURVE",
"-77 -185 LINE",
"-45 -203 OFFCURVE",
"-15 -212 OFFCURVE",
"12 -212 CURVE SMOOTH"
);
},
{
closed = 1;
nodes = (
"125 609 OFFCURVE",
"137 626 OFFCURVE",
"137 647 CURVE SMOOTH",
"137 667 OFFCURVE",
"125 684 OFFCURVE",
"104 684 CURVE SMOOTH",
"83 684 OFFCURVE",
"71 667 OFFCURVE",
"71 647 CURVE SMOOTH",
"71 626 OFFCURVE",
"83 609 OFFCURVE",
"104 609 CURVE SMOOTH"
);
}
);
width = 209;
},
{
background = {
paths = (
{
closed = 1;
nodes = (
"129 -215 OFFCURVE",
"194 -159 OFFCURVE",
"194 -50 CURVE SMOOTH",
"194 500 LINE",
"64 500 LINE",
"64 -51 LINE SMOOTH",
"64 -94 OFFCURVE",
"48 -110 OFFCURVE",
"22 -110 CURVE SMOOTH",
"8 -110 OFFCURVE",
"-9 -105 OFFCURVE",
"-29 -94 CURVE",
"-67 -187 LINE",
"-29 -206 OFFCURVE",
"9 -215 OFFCURVE",
"44 -215 CURVE SMOOTH"
);
},
{
closed = 1;
nodes = (
"171 558 OFFCURVE",
"211 588 OFFCURVE",
"211 646 CURVE SMOOTH",
"211 703 OFFCURVE",
"172 731 OFFCURVE",
"130 731 CURVE SMOOTH",
"88 731 OFFCURVE",
"49 703 OFFCURVE",
"49 646 CURVE SMOOTH",
"49 587 OFFCURVE",
"87 558 OFFCURVE",
"129 558 CURVE SMOOTH"
);
}
);
};
layerId = "6114C541-D024-4A3E-9713-6FAF49EAB318";
name = "Bold Condensed";
paths = (
{
closed = 1;
nodes = (
"134 -215 OFFCURVE",
"194 -153 OFFCURVE",
"194 -48 CURVE SMOOTH",
"194 500 LINE",
"64 500 LINE",
"64 -51 LINE SMOOTH",
"64 -84 OFFCURVE",
"58 -110 OFFCURVE",
"22 -110 CURVE SMOOTH",
"8 -110 OFFCURVE",
"-10 -103 OFFCURVE",
"-29 -94 CURVE",
"-65 -192 LINE",
"-27 -211 OFFCURVE",
"9 -215 OFFCURVE",
"44 -215 CURVE SMOOTH"
);
},
{
closed = 1;
nodes = (
"171 558 OFFCURVE",
"211 588 OFFCURVE",
"211 646 CURVE SMOOTH",
"211 703 OFFCURVE",
"172 731 OFFCURVE",
"130 731 CURVE SMOOTH",
"88 731 OFFCURVE",
"49 703 OFFCURVE",
"49 646 CURVE SMOOTH",
"49 587 OFFCURVE",
"87 558 OFFCURVE",
"129 558 CURVE SMOOTH"
);
}
);
width = 252;
}
);
unicode = 006A;
},
{
color = 3;
glyphname = k;
lastChange = "2015-11-05 07:49:53 +0000";
layers = (
{
layerId = "CC11FE7D-5FF0-4B40-9597-DFC61EB94F41";
name = "Light Condensed";
paths = (
{
closed = 1;
nodes = (
"125 725 LINE",
"85 725 LINE",
"85 0 LINE",
"125 0 LINE"
);
},
{
closed = 1;
nodes = (
"365 5 OFFCURVE",
"380 -7 OFFCURVE",
"403 -7 CURVE SMOOTH",
"410 -7 OFFCURVE",
"416 -6 OFFCURVE",
"421 -5 CURVE",
"418 25 LINE",
"415 25 OFFCURVE",
"412 25 OFFCURVE",
"409 25 CURVE SMOOTH",
"396 25 OFFCURVE",
"392 32 OFFCURVE",
"379 55 CURVE SMOOTH",
"242 296 LINE",
"242 277 LINE",
"400 500 LINE",
"355 500 LINE",
"223 310 LINE",
"103 310 LINE",
"103 277 LINE",
"210 277 LINE",
"347 36 LINE SMOOTH"
);
}
);
width = 431;
},
{
background = {
paths = (
{
closed = 1;
nodes = (
"190 725 LINE",
"60 725 LINE",
"60 -1 LINE",
"190 1 LINE"
);
},
{
closed = 1;
nodes = (
"379 -1 OFFCURVE",
"407 -15 OFFCURVE",
"503 -15 CURVE",
"503 85 LINE",
"477 85 OFFCURVE",
"461 89 OFFCURVE",
"449 111 CURVE SMOOTH",
"335 311 LINE",
"335 248 LINE",
"489 500 LINE",
"361 500 LINE",
"268 339 LINE",
"124 338 LINE",
"124 234 LINE",
"252 234 LINE",
"343 66 LINE SMOOTH"
);
}
);
};
layerId = "6114C541-D024-4A3E-9713-6FAF49EAB318";
name = "Bold Condensed";
paths = (
{
closed = 1;
nodes = (
"190 725 LINE",
"60 725 LINE",
"60 0 LINE",
"190 0 LINE"
);
},
{
closed = 1;
nodes = (
"372 13 OFFCURVE",
"400 -15 OFFCURVE",
"457 -15 CURVE SMOOTH",
"472 -15 OFFCURVE",
"489 -13 OFFCURVE",
"508 -9 CURVE",
"503 86 LINE",
"496 85 OFFCURVE",
"493 85 OFFCURVE",
"488 85 CURVE SMOOTH",
"472 85 OFFCURVE",
"461 91 OFFCURVE",
"449 111 CURVE SMOOTH",
"335 311 LINE",
"335 248 LINE",
"489 500 LINE",
"361 500 LINE",
"268 339 LINE",
"124 338 LINE",
"124 234 LINE",
"252 234 LINE",
"343 66 LINE SMOOTH"
);
}
);
width = 508;
}
);
unicode = 006B;
},
{
color = 3;
glyphname = l;
lastChange = "2015-11-05 07:49:53 +0000";
layers = (
{
anchors = (
{
name = bottom;
position = "{115, 0}";
},
{
name = top;
position = "{108, 685}";
},
{
name = topright;
position = "{210, 500}";
}
);
layerId = "CC11FE7D-5FF0-4B40-9597-DFC61EB94F41";
name = "Light Condensed";
paths = (
{
closed = 1;
nodes = (
"85 25 OFFCURVE",
"118 -6 OFFCURVE",
"163 -6 CURVE SMOOTH",
"180 -6 OFFCURVE",
"197 -2 OFFCURVE",
"216 6 CURVE",
"205 36 LINE",
"191 30 OFFCURVE",
"179 27 OFFCURVE",
"168 27 CURVE SMOOTH",
"140 27 OFFCURVE",
"125 48 OFFCURVE",
"125 87 CURVE SMOOTH",
"125 725 LINE",
"85 725 LINE",
"85 82 LINE SMOOTH"
);
}
);
width = 230;
},
{
anchors = (
{
name = bottom;
position = "{144, 0}";
},
{
name = top;
position = "{113, 710}";
},
{
name = topright;
position = "{268, 500}";
}
);
background = {
paths = (
{
closed = 1;
nodes = (
"202 -15 OFFCURVE",
"231 -10 OFFCURVE",
"262 0 CURVE",
"244 94 LINE",
"235 91 OFFCURVE",
"227 90 OFFCURVE",
"220 90 CURVE SMOOTH",
"196 90 OFFCURVE",
"185 107 OFFCURVE",
"185 141 CURVE SMOOTH",
"185 725 LINE",
"55 725 LINE",
"55 115 LINE SMOOTH",
"55 27 OFFCURVE",
"103 -15 OFFCURVE",
"176 -15 CURVE SMOOTH"
);
}
);
};
layerId = "6114C541-D024-4A3E-9713-6FAF49EAB318";
name = "Bold Condensed";
paths = (
{
closed = 1;
nodes = (
"55 34 OFFCURVE",
"104 -15 OFFCURVE",
"192 -15 CURVE SMOOTH",
"217 -15 OFFCURVE",
"250 -10 OFFCURVE",
"280 -2 CURVE",
"257 95 LINE",
"245 92 OFFCURVE",
"234 90 OFFCURVE",
"225 90 CURVE SMOOTH",
"198 90 OFFCURVE",
"185 105 OFFCURVE",
"185 145 CURVE SMOOTH",
"185 725 LINE",
"55 725 LINE",
"55 133 LINE SMOOTH"
);
}
);
width = 288;
}
);
unicode = 006C;
},
{
glyphname = lslash;
lastChange = "2015-11-05 07:49:53 +0000";
layers = (
{
components = (
{
name = l;
}
);
layerId = "CC11FE7D-5FF0-4B40-9597-DFC61EB94F41";
name = "Light Condensed";
paths = (
{
closed = 1;
nodes = (
"-6 263 LINE",
"232 363 LINE",
"220 393 LINE",
"-18 293 LINE"
);
}
);
width = 230;
},
{
background = {
paths = (
{
closed = 1;
nodes = (
"274 442 LINE",
"-29 318 LINE",
"7 230 LINE",
"310 354 LINE"
);
}
);
};
components = (
{
name = l;
}
);
layerId = "6114C541-D024-4A3E-9713-6FAF49EAB318";
name = "Bold Condensed";
paths = (
{
closed = 1;
nodes = (
"248 431 LINE",
"-29 318 LINE",
"7 230 LINE",
"284 343 LINE"
);
}
);
width = 288;
}
);
unicode = 0142;
},
{
color = 3;
glyphname = m;
lastChange = "2015-11-05 07:49:53 +0000";
layers = (
{
layerId = "CC11FE7D-5FF0-4B40-9597-DFC61EB94F41";
name = "Light Condensed";
paths = (
{
closed = 1;
nodes = (
"677 344 LINE SMOOTH",
"677 448 OFFCURVE",
"625 507 OFFCURVE",
"537 507 CURVE SMOOTH",
"471 507 OFFCURVE",
"413 463 OFFCURVE",
"388 365 CURVE",
"403 365 LINE",
"394 450 OFFCURVE",
"343 507 OFFCURVE",
"261 507 CURVE SMOOTH",
"192 507 OFFCURVE",
"134 463 OFFCURVE",
"109 372 CURVE",
"123 372 LINE",
"122 500 LINE",
"85 500 LINE",
"85 0 LINE",
"125 0 LINE",
"125 291 LINE SMOOTH",
"125 410 OFFCURVE",
"190 474 OFFCURVE",
"259 474 CURVE SMOOTH",
"323 474 OFFCURVE",
"365 427 OFFCURVE",
"365 338 CURVE SMOOTH",
"365 0 LINE",
"405 0 LINE",
"405 291 LINE SMOOTH",
"405 410 OFFCURVE",
"468 474 OFFCURVE",
"535 474 CURVE SMOOTH",
"595 474 OFFCURVE",
"637 427 OFFCURVE",
"637 338 CURVE SMOOTH",
"637 83 LINE SMOOTH",
"637 17 OFFCURVE",
"660 -14 OFFCURVE",
"726 -5 CURVE",
"724 26 LINE",
"686 22 OFFCURVE",
"677 39 OFFCURVE",
"677 89 CURVE SMOOTH"
);
}
);
width = 768;
},
{
background = {
paths = (
{
closed = 1;
nodes = (
"773 75 LINE",
"748 75 OFFCURVE",
"737 84 OFFCURVE",
"737 109 CURVE SMOOTH",
"737 339 LINE SMOOTH",
"737 457 OFFCURVE",
"671 516 OFFCURVE",
"594 516 CURVE SMOOTH",
"521 516 OFFCURVE",
"443 459 OFFCURVE",
"417 349 CURVE",
"461 349 LINE",
"457 460 OFFCURVE",
"393 516 OFFCURVE",
"318 516 CURVE SMOOTH",
"244 516 OFFCURVE",
"165 459 OFFCURVE",
"139 350 CURVE",
"185 350 LINE",
"180 500 LINE",
"55 500 LINE",
"55 0 LINE",
"185 0 LINE",
"185 258 LINE SMOOTH",
"185 369 OFFCURVE",
"230 415 OFFCURVE",
"274 415 CURVE SMOOTH",
"309 415 OFFCURVE",
"331 385 OFFCURVE",
"331 329 CURVE SMOOTH",
"331 0 LINE",
"461 0 LINE",
"461 258 LINE SMOOTH",
"461 369 OFFCURVE",
"506 415 OFFCURVE",
"550 415 CURVE SMOOTH",
"585 415 OFFCURVE",
"607 385 OFFCURVE",
"607 329 CURVE SMOOTH",
"607 114 LINE SMOOTH",
"607 4 OFFCURVE",
"663 -15 OFFCURVE",
"773 -15 CURVE"
);
}
);
};
layerId = "6114C541-D024-4A3E-9713-6FAF49EAB318";
name = "Bold Condensed";
paths = (
{
closed = 1;
nodes = (
"731 339 LINE SMOOTH",
"731 457 OFFCURVE",
"665 516 OFFCURVE",
"591 516 CURVE SMOOTH",
"518 516 OFFCURVE",
"443 459 OFFCURVE",
"417 349 CURVE",
"461 349 LINE",
"457 460 OFFCURVE",
"393 516 OFFCURVE",
"318 516 CURVE SMOOTH",
"247 516 OFFCURVE",
"169 459 OFFCURVE",
"143 350 CURVE",
"185 350 LINE",
"180 500 LINE",
"55 500 LINE",
"55 0 LINE",
"185 0 LINE",
"185 258 LINE SMOOTH",
"185 369 OFFCURVE",
"228 413 OFFCURVE",
"274 413 CURVE SMOOTH",
"309 413 OFFCURVE",
"331 383 OFFCURVE",
"331 327 CURVE SMOOTH",
"331 0 LINE",
"461 0 LINE",
"461 258 LINE SMOOTH",
"461 369 OFFCURVE",
"501 413 OFFCURVE",
"547 413 CURVE SMOOTH",
"579 413 OFFCURVE",
"601 383 OFFCURVE",
"601 327 CURVE SMOOTH",
"601 110 LINE SMOOTH",
"601 0 OFFCURVE",
"674 -29 OFFCURVE",
"772 -9 CURVE",
"767 86 LINE",
"741 83 OFFCURVE",
"731 93 OFFCURVE",
"731 117 CURVE SMOOTH"
);
}
);
width = 793;
}
);
unicode = 006D;
},
{
color = 3;
glyphname = n;
lastChange = "2015-11-05 07:49:53 +0000";
layers = (
{
anchors = (
{
name = bottom;
position = "{249, 0}";
},
{
name = top;
position = "{249, 500}";
}
);
layerId = "CC11FE7D-5FF0-4B40-9597-DFC61EB94F41";
name = "Light Condensed";
paths = (
{
closed = 1;
nodes = (
"455 26 LINE",
"417 22 OFFCURVE",
"408 39 OFFCURVE",
"408 89 CURVE SMOOTH",
"408 344 LINE SMOOTH",
"408 448 OFFCURVE",
"355 507 OFFCURVE",
"263 507 CURVE SMOOTH",
"193 507 OFFCURVE",
"135 465 OFFCURVE",
"110 372 CURVE",
"123 372 LINE",
"122 500 LINE",
"85 500 LINE",
"85 0 LINE",
"125 0 LINE",
"125 291 LINE SMOOTH",
"125 410 OFFCURVE",
"190 474 OFFCURVE",
"261 474 CURVE SMOOTH",
"326 474 OFFCURVE",
"368 427 OFFCURVE",
"368 338 CURVE SMOOTH",
"368 83 LINE SMOOTH",
"368 24 OFFCURVE",
"386 -7 OFFCURVE",
"436 -7 CURVE SMOOTH",
"443 -7 OFFCURVE",
"450 -6 OFFCURVE",
"457 -5 CURVE"
);
}
);
width = 497;
},
{
anchors = (
{
name = bottom;
position = "{264, 0}";
},
{
name = top;
position = "{264, 500}";
}
);
background = {
paths = (
{
closed = 1;
nodes = (
"507 85 LINE",
"482 85 OFFCURVE",
"471 94 OFFCURVE",
"471 119 CURVE SMOOTH",
"471 339 LINE SMOOTH",
"471 456 OFFCURVE",
"405 515 OFFCURVE",
"322 515 CURVE SMOOTH",
"243 515 OFFCURVE",
"166 460 OFFCURVE",
"139 350 CURVE",
"185 350 LINE",
"180 500 LINE",
"55 500 LINE",
"55 0 LINE",
"185 0 LINE",
"185 255 LINE SMOOTH",
"185 368 OFFCURVE",
"231 415 OFFCURVE",
"279 415 CURVE SMOOTH",
"319 415 OFFCURVE",
"341 380 OFFCURVE",
"341 329 CURVE SMOOTH",
"341 117 LINE SMOOTH",
"341 7 OFFCURVE",
"397 -15 OFFCURVE",
"507 -15 CURVE"
);
}
);
};
layerId = "6114C541-D024-4A3E-9713-6FAF49EAB318";
name = "Bold Condensed";
paths = (
{
closed = 1;
nodes = (
"501 86 LINE",
"475 83 OFFCURVE",
"465 93 OFFCURVE",
"465 117 CURVE SMOOTH",
"465 339 LINE SMOOTH",
"465 456 OFFCURVE",
"400 515 OFFCURVE",
"319 515 CURVE SMOOTH",
"242 515 OFFCURVE",
"172 460 OFFCURVE",
"145 350 CURVE",
"185 350 LINE",
"180 500 LINE",
"55 500 LINE",
"55 0 LINE",
"185 0 LINE",
"185 255 LINE SMOOTH",
"185 368 OFFCURVE",
"230 412 OFFCURVE",
"276 412 CURVE SMOOTH",
"314 412 OFFCURVE",
"335 377 OFFCURVE",
"335 326 CURVE SMOOTH",
"335 110 LINE SMOOTH",
"335 21 OFFCURVE",
"383 -14 OFFCURVE",
"453 -14 CURVE SMOOTH",
"469 -14 OFFCURVE",
"487 -12 OFFCURVE",
"506 -8 CURVE"
);
}
);
width = 527;
}
);
unicode = 006E;
},
{
color = 3;
glyphname = o;
lastChange = "2015-11-05 07:49:53 +0000";
layers = (
{
anchors = (
{
name = top;
position = "{242, 500}";
}
);
layerId = "CC11FE7D-5FF0-4B40-9597-DFC61EB94F41";
name = "Light Condensed";
paths = (
{
closed = 1;
nodes = (
"396 123 OFFCURVE",
"343 28 OFFCURVE",
"239 28 CURVE SMOOTH",
"136 28 OFFCURVE",
"83 121 OFFCURVE",
"83 249 CURVE SMOOTH",
"83 375 OFFCURVE",
"140 472 OFFCURVE",
"242 472 CURVE SMOOTH",
"344 472 OFFCURVE",
"396 377 OFFCURVE",
"396 249 CURVE SMOOTH"
);
},
{
closed = 1;
nodes = (
"439 397 OFFCURVE",
"376 507 OFFCURVE",
"243 507 CURVE SMOOTH",
"116 507 OFFCURVE",
"40 396 OFFCURVE",
"40 249 CURVE SMOOTH",
"40 100 OFFCURVE",
"102 -7 OFFCURVE",
"238 -7 CURVE SMOOTH",
"367 -7 OFFCURVE",
"439 102 OFFCURVE",
"439 249 CURVE SMOOTH"
);
}
);
width = 479;
},
{
anchors = (
{
name = top;
position = "{258, 500}";
}
);
background = {
paths = (
{
closed = 1;
nodes = (
"360 147 OFFCURVE",
"326 85 OFFCURVE",
"255 85 CURVE SMOOTH",
"187 85 OFFCURVE",
"153 151 OFFCURVE",
"153 250 CURVE SMOOTH",
"153 346 OFFCURVE",
"186 415 OFFCURVE",
"258 415 CURVE SMOOTH",
"327 415 OFFCURVE",
"360 347 OFFCURVE",
"360 248 CURVE SMOOTH"
);
},
{
closed = 1;
nodes = (
"482 412 OFFCURVE",
"403 515 OFFCURVE",
"260 515 CURVE SMOOTH",
"117 515 OFFCURVE",
"30 411 OFFCURVE",
"30 248 CURVE SMOOTH",
"30 89 OFFCURVE",
"110 -16 OFFCURVE",
"253 -15 CURVE SMOOTH",
"396 -14 OFFCURVE",
"482 84 OFFCURVE",
"482 250 CURVE SMOOTH"
);
},
{
closed = 1;
nodes = (
"355 150 OFFCURVE",
"322 90 OFFCURVE",
"255 90 CURVE SMOOTH",
"191 90 OFFCURVE",
"158 154 OFFCURVE",
"158 250 CURVE SMOOTH",
"158 343 OFFCURVE",
"190 410 OFFCURVE",
"258 410 CURVE SMOOTH",
"323 410 OFFCURVE",
"355 344 OFFCURVE",
"355 248 CURVE SMOOTH"
);
},
{
closed = 1;
nodes = (
"487 412 OFFCURVE",
"406 515 OFFCURVE",
"260 515 CURVE SMOOTH",
"114 515 OFFCURVE",
"25 411 OFFCURVE",
"25 248 CURVE SMOOTH",
"25 89 OFFCURVE",
"107 -16 OFFCURVE",
"253 -15 CURVE SMOOTH",
"399 -14 OFFCURVE",
"487 84 OFFCURVE",
"487 250 CURVE SMOOTH"
);
}
);
};
layerId = "6114C541-D024-4A3E-9713-6FAF49EAB318";
name = "Bold Condensed";
paths = (
{
closed = 1;
nodes = (
"351 143 OFFCURVE",
"314 90 OFFCURVE",
"256 90 CURVE SMOOTH",
"199 90 OFFCURVE",
"162 143 OFFCURVE",
"162 250 CURVE SMOOTH",
"162 356 OFFCURVE",
"200 410 OFFCURVE",
"257 410 CURVE SMOOTH",
"314 410 OFFCURVE",
"351 357 OFFCURVE",
"351 248 CURVE SMOOTH"
);
},
{
closed = 1;
nodes = (
"483 412 OFFCURVE",
"407 515 OFFCURVE",
"260 515 CURVE SMOOTH",
"113 515 OFFCURVE",
"29 411 OFFCURVE",
"29 248 CURVE SMOOTH",
"29 90 OFFCURVE",
"105 -15 OFFCURVE",
"251 -15 CURVE SMOOTH",
"399 -15 OFFCURVE",
"483 83 OFFCURVE",
"483 250 CURVE SMOOTH"
);
}
);
width = 512;
}
);
unicode = 006F;
},
{
glyphname = oslash;
lastChange = "2015-11-05 07:49:53 +0000";
layers = (
{
components = (
{
name = o;
}
);
guideLines = (
{
angle = 90;
position = "{40, 325}";
}
);
layerId = "CC11FE7D-5FF0-4B40-9597-DFC61EB94F41";
name = "Light Condensed";
paths = (
{
closed = 1;
nodes = (
"339 583 LINE",
"110 -58 LINE",
"144 -69 LINE",
"372 572 LINE"
);
}
);
width = 479;
},
{
background = {
paths = (
{
closed = 1;
nodes = (
"389 756 LINE",
"97 -53 LINE",
"180 -78 LINE",
"471 731 LINE"
);
}
);
};
components = (
{
name = o;
}
);
guideLines = (
{
position = "{68, 259}";
}
);
layerId = "6114C541-D024-4A3E-9713-6FAF49EAB318";
name = "Bold Condensed";
paths = (
{
closed = 1;
nodes = (
"337 601 LINE",
"97 -63 LINE",
"174 -88 LINE",
"413 576 LINE"
);
}
);
width = 512;
}
);
unicode = 00F8;
},
{
color = 3;
glyphname = oe;
lastChange = "2015-11-05 07:49:53 +0000";
layers = (
{
anchors = (
{
name = top;
position = "{410, 500}";
}
);
layerId = "CC11FE7D-5FF0-4B40-9597-DFC61EB94F41";
name = "Light Condensed";
paths = (
{
closed = 1;
nodes = (
"334 -7 OFFCURVE",
"395 53 OFFCURVE",
"421 144 CURVE",
"412 144 LINE",
"439 46 OFFCURVE",
"507 -7 OFFCURVE",
"601 -7 CURVE SMOOTH",
"645 -7 OFFCURVE",
"693 5 OFFCURVE",
"744 29 CURVE",
"731 60 LINE",
"687 39 OFFCURVE",
"648 29 OFFCURVE",
"608 29 CURVE SMOOTH",
"506 29 OFFCURVE",
"439 106 OFFCURVE",
"439 249 CURVE SMOOTH",
"439 382 OFFCURVE",
"490 472 OFFCURVE",
"583 472 CURVE SMOOTH",
"685 472 OFFCURVE",
"714 374 OFFCURVE",
"713 287 CURVE",
"419 286 LINE",
"419 251 LINE",
"755 251 LINE",
"755 271 LINE SMOOTH",
"755 408 OFFCURVE",
"708 507 OFFCURVE",
"583 507 CURVE SMOOTH",
"495 507 OFFCURVE",
"436 448 OFFCURVE",
"412 354 CURVE",
"423 354 LINE",
"400 446 OFFCURVE",
"342 507 OFFCURVE",
"243 507 CURVE SMOOTH",
"116 507 OFFCURVE",
"40 396 OFFCURVE",
"40 249 CURVE SMOOTH",
"40 100 OFFCURVE",
"102 -7 OFFCURVE",
"238 -7 CURVE SMOOTH"
);
},
{
closed = 1;
nodes = (
"136 28 OFFCURVE",
"83 121 OFFCURVE",
"83 249 CURVE SMOOTH",
"83 375 OFFCURVE",
"140 472 OFFCURVE",
"242 472 CURVE SMOOTH",
"344 472 OFFCURVE",
"396 377 OFFCURVE",
"396 249 CURVE SMOOTH",
"396 123 OFFCURVE",
"343 28 OFFCURVE",
"239 28 CURVE SMOOTH"
);
}
);
width = 788;
},
{
anchors = (
{
name = top;
position = "{411, 500}";
}
);
background = {
paths = (
{
closed = 1;
nodes = (
"351 143 OFFCURVE",
"314 90 OFFCURVE",
"256 90 CURVE SMOOTH",
"199 90 OFFCURVE",
"162 143 OFFCURVE",
"162 250 CURVE SMOOTH",
"162 356 OFFCURVE",
"200 410 OFFCURVE",
"257 410 CURVE SMOOTH",
"314 410 OFFCURVE",
"351 357 OFFCURVE",
"351 248 CURVE SMOOTH"
);
},
{
closed = 1;
nodes = (
"483 412 OFFCURVE",
"407 515 OFFCURVE",
"260 515 CURVE SMOOTH",
"113 515 OFFCURVE",
"29 411 OFFCURVE",
"29 248 CURVE SMOOTH",
"29 90 OFFCURVE",
"105 -15 OFFCURVE",
"251 -15 CURVE SMOOTH",
"399 -15 OFFCURVE",
"483 83 OFFCURVE",
"483 250 CURVE SMOOTH"
);
},
{
closed = 1;
nodes = (
"651 -15 OFFCURVE",
"714 2 OFFCURVE",
"771 42 CURVE",
"733 128 LINE",
"687 103 OFFCURVE",
"645 90 OFFCURVE",
"602 90 CURVE SMOOTH",
"532 90 OFFCURVE",
"484 144 OFFCURVE",
"484 251 CURVE SMOOTH",
"484 361 OFFCURVE",
"523 415 OFFCURVE",
"575 415 CURVE SMOOTH",
"621 415 OFFCURVE",
"650 379 OFFCURVE",
"650 309 CURVE",
"426 307 LINE",
"424 213 LINE",
"781 213 LINE",
"781 250 LINE SMOOTH",
"781 419 OFFCURVE",
"724 515 OFFCURVE",
"576 515 CURVE SMOOTH",
"456 515 OFFCURVE",
"351 431 OFFCURVE",
"351 256 CURVE SMOOTH",
"351 82 OFFCURVE",
"451 -15 OFFCURVE",
"591 -15 CURVE SMOOTH"
);
},
{
closed = 1;
nodes = (
"398 484 OFFCURVE",
"341 515 OFFCURVE",
"260 515 CURVE SMOOTH",
"113 515 OFFCURVE",
"29 411 OFFCURVE",
"29 248 CURVE SMOOTH",
"29 90 OFFCURVE",
"105 -15 OFFCURVE",
"251 -15 CURVE SMOOTH",
"335 -15 OFFCURVE",
"397 17 OFFCURVE",
"434 75 CURVE",
"406 75 LINE",
"447 16 OFFCURVE",
"512 -15 OFFCURVE",
"591 -15 CURVE SMOOTH",
"651 -15 OFFCURVE",
"714 2 OFFCURVE",
"771 42 CURVE",
"733 128 LINE",
"687 103 OFFCURVE",
"645 90 OFFCURVE",
"602 90 CURVE SMOOTH",
"532 90 OFFCURVE",
"484 144 OFFCURVE",
"484 251 CURVE SMOOTH",
"484 361 OFFCURVE",
"523 415 OFFCURVE",
"575 415 CURVE SMOOTH",
"621 415 OFFCURVE",
"650 379 OFFCURVE",
"650 309 CURVE",
"426 307 LINE",
"424 213 LINE",
"781 213 LINE",
"781 250 LINE SMOOTH",
"781 419 OFFCURVE",
"724 515 OFFCURVE",
"576 515 CURVE SMOOTH",
"506 515 OFFCURVE",
"442 486 OFFCURVE",
"402 427 CURVE",
"434 429 LINE"
);
}
);
};
layerId = "6114C541-D024-4A3E-9713-6FAF49EAB318";
name = "Bold Condensed";
paths = (
{
closed = 1;
nodes = (
"335 -15 OFFCURVE",
"392 19 OFFCURVE",
"429 77 CURVE",
"410 77 LINE",
"453 15 OFFCURVE",
"520 -15 OFFCURVE",
"592 -15 CURVE SMOOTH",
"653 -15 OFFCURVE",
"717 5 OFFCURVE",
"771 42 CURVE",
"733 128 LINE",
"687 103 OFFCURVE",
"645 90 OFFCURVE",
"602 90 CURVE SMOOTH",
"532 90 OFFCURVE",
"484 144 OFFCURVE",
"484 251 CURVE SMOOTH",
"484 361 OFFCURVE",
"523 415 OFFCURVE",
"575 415 CURVE SMOOTH",
"621 415 OFFCURVE",
"650 379 OFFCURVE",
"650 309 CURVE",
"426 307 LINE",
"424 213 LINE",
"781 213 LINE",
"781 250 LINE SMOOTH",
"781 419 OFFCURVE",
"721 515 OFFCURVE",
"581 515 CURVE SMOOTH",
"512 515 OFFCURVE",
"446 484 OFFCURVE",
"407 427 CURVE",
"431 427 LINE",
"395 482 OFFCURVE",
"341 515 OFFCURVE",
"260 515 CURVE SMOOTH",
"113 515 OFFCURVE",
"29 411 OFFCURVE",
"29 248 CURVE SMOOTH",
"29 90 OFFCURVE",
"105 -15 OFFCURVE",
"251 -15 CURVE SMOOTH"
);
},
{
closed = 1;
nodes = (
"199 90 OFFCURVE",
"162 143 OFFCURVE",
"162 250 CURVE SMOOTH",
"162 356 OFFCURVE",
"200 410 OFFCURVE",
"257 410 CURVE SMOOTH",
"314 410 OFFCURVE",
"351 357 OFFCURVE",
"351 248 CURVE SMOOTH",
"351 143 OFFCURVE",
"314 90 OFFCURVE",
"256 90 CURVE SMOOTH"
);
}
);
width = 801;
}
);
leftMetricsKey = o;
rightMetricsKey = e;
unicode = 0153;
},
{
color = 3;
glyphname = p;
lastChange = "2015-11-05 07:49:53 +0000";
layers = (
{
layerId = "CC11FE7D-5FF0-4B40-9597-DFC61EB94F41";
name = "Light Condensed";
paths = (
{
closed = 1;
nodes = (
"125 -205 LINE",
"125 294 LINE SMOOTH",
"125 409 OFFCURVE",
"192 472 OFFCURVE",
"261 472 CURVE SMOOTH",
"328 472 OFFCURVE",
"397 408 OFFCURVE",
"397 273 CURVE SMOOTH",
"397 128 OFFCURVE",
"336 28 OFFCURVE",
"233 28 CURVE SMOOTH",
"202 28 OFFCURVE",
"157 40 OFFCURVE",
"123 58 CURVE",
"85 34 LINE",
"120 13 OFFCURVE",
"180 -7 OFFCURVE",
"237 -7 CURVE SMOOTH",
"360 -7 OFFCURVE",
"440 111 OFFCURVE",
"440 273 CURVE SMOOTH",
"440 422 OFFCURVE",
"363 507 OFFCURVE",
"267 507 CURVE SMOOTH",
"194 507 OFFCURVE",
"138 461 OFFCURVE",
"105 369 CURVE",
"125 370 LINE",
"124 500 LINE",
"85 500 LINE",
"85 -205 LINE"
);
}
);
width = 478;
},
{
background = {
paths = (
{
closed = 1;
nodes = (
"185 -200 LINE",
"186 284 LINE SMOOTH",
"186 370 OFFCURVE",
"222 412 OFFCURVE",
"267 412 CURVE SMOOTH",
"314 412 OFFCURVE",
"350 366 OFFCURVE",
"350 274 CURVE SMOOTH",
"350 163 OFFCURVE",
"319 90 OFFCURVE",
"246 90 CURVE SMOOTH",
"227 90 OFFCURVE",
"205 94 OFFCURVE",
"180 104 CURVE",
"80 33 LINE",
"142 0 OFFCURVE",
"192 -15 OFFCURVE",
"247 -15 CURVE SMOOTH",
"391 -15 OFFCURVE",
"483 91 OFFCURVE",
"483 276 CURVE SMOOTH",
"483 427 OFFCURVE",
"402 515 OFFCURVE",
"301 515 CURVE SMOOTH",
"233 515 OFFCURVE",
"172 467 OFFCURVE",
"145 370 CURVE",
"184 370 LINE",
"176 500 LINE",
"56 500 LINE",
"55 -200 LINE"
);
}
);
};
layerId = "6114C541-D024-4A3E-9713-6FAF49EAB318";
name = "Bold Condensed";
paths = (
{
closed = 1;
nodes = (
"185 -200 LINE",
"186 284 LINE SMOOTH",
"186 370 OFFCURVE",
"222 412 OFFCURVE",
"267 412 CURVE SMOOTH",
"314 412 OFFCURVE",
"350 366 OFFCURVE",
"350 274 CURVE SMOOTH",
"350 163 OFFCURVE",
"319 90 OFFCURVE",
"246 90 CURVE SMOOTH",
"227 90 OFFCURVE",
"205 94 OFFCURVE",
"180 104 CURVE",
"80 33 LINE",
"142 0 OFFCURVE",
"192 -15 OFFCURVE",
"247 -15 CURVE SMOOTH",
"391 -15 OFFCURVE",
"483 91 OFFCURVE",
"483 276 CURVE SMOOTH",
"483 427 OFFCURVE",
"402 515 OFFCURVE",
"301 515 CURVE SMOOTH",
"228 515 OFFCURVE",
"167 469 OFFCURVE",
"140 370 CURVE",
"184 370 LINE",
"176 500 LINE",
"56 500 LINE",
"55 -200 LINE"
);
}
);
width = 511;
}
);
unicode = 0070;
},
{
glyphname = thorn;
lastChange = "2015-11-05 07:49:53 +0000";
layers = (
{
layerId = "CC11FE7D-5FF0-4B40-9597-DFC61EB94F41";
name = "Light Condensed";
paths = (
{
closed = 1;
nodes = (
"125 -205 LINE",
"125 294 LINE SMOOTH",
"125 409 OFFCURVE",
"192 472 OFFCURVE",
"261 472 CURVE SMOOTH",
"328 472 OFFCURVE",
"397 408 OFFCURVE",
"397 273 CURVE SMOOTH",
"397 128 OFFCURVE",
"336 28 OFFCURVE",
"233 28 CURVE SMOOTH",
"202 28 OFFCURVE",
"157 40 OFFCURVE",
"123 58 CURVE",
"85 34 LINE",
"120 13 OFFCURVE",
"180 -7 OFFCURVE",
"237 -7 CURVE SMOOTH",
"360 -7 OFFCURVE",
"440 111 OFFCURVE",
"440 273 CURVE SMOOTH",
"440 422 OFFCURVE",
"363 507 OFFCURVE",
"267 507 CURVE SMOOTH",
"194 507 OFFCURVE",
"138 461 OFFCURVE",
"105 369 CURVE",
"125 370 LINE",
"125 725 LINE",
"85 725 LINE",
"85 -205 LINE"
);
}
);
width = 478;
},
{
layerId = "6114C541-D024-4A3E-9713-6FAF49EAB318";
name = "Bold Condensed";
paths = (
{
closed = 1;
nodes = (
"185 -200 LINE",
"186 284 LINE SMOOTH",
"186 370 OFFCURVE",
"222 412 OFFCURVE",
"267 412 CURVE SMOOTH",
"314 412 OFFCURVE",
"350 366 OFFCURVE",
"350 274 CURVE SMOOTH",
"350 163 OFFCURVE",
"319 90 OFFCURVE",
"246 90 CURVE SMOOTH",
"227 90 OFFCURVE",
"205 94 OFFCURVE",
"180 104 CURVE",
"80 33 LINE",
"142 0 OFFCURVE",
"192 -15 OFFCURVE",
"247 -15 CURVE SMOOTH",
"391 -15 OFFCURVE",
"483 91 OFFCURVE",
"483 276 CURVE SMOOTH",
"483 427 OFFCURVE",
"402 515 OFFCURVE",
"301 515 CURVE SMOOTH",
"228 515 OFFCURVE",
"167 469 OFFCURVE",
"140 370 CURVE",
"184 370 LINE",
"186 725 LINE",
"56 725 LINE",
"55 -200 LINE"
);
}
);
width = 511;
}
);
leftMetricsKey = p;
rightMetricsKey = p;
unicode = 00FE;
},
{
color = 3;
glyphname = q;
lastChange = "2015-11-05 07:49:53 +0000";
layers = (
{
layerId = "CC11FE7D-5FF0-4B40-9597-DFC61EB94F41";
name = "Light Condensed";
paths = (
{
closed = 1;
nodes = (
"118 507 OFFCURVE",
"38 389 OFFCURVE",
"38 227 CURVE SMOOTH",
"38 78 OFFCURVE",
"115 -7 OFFCURVE",
"211 -7 CURVE SMOOTH",
"281 -7 OFFCURVE",
"341 39 OFFCURVE",
"372 131 CURVE",
"353 130 LINE",
"353 -225 LINE",
"393 -225 LINE",
"393 466 LINE",
"358 487 OFFCURVE",
"298 507 OFFCURVE",
"239 507 CURVE SMOOTH"
);
},
{
closed = 1;
nodes = (
"276 472 OFFCURVE",
"319 462 OFFCURVE",
"353 444 CURVE",
"353 208 LINE SMOOTH",
"353 91 OFFCURVE",
"286 28 OFFCURVE",
"217 28 CURVE SMOOTH",
"150 28 OFFCURVE",
"81 90 OFFCURVE",
"81 227 CURVE SMOOTH",
"81 374 OFFCURVE",
"142 472 OFFCURVE",
"245 472 CURVE SMOOTH"
);
}
);
width = 478;
},
{
background = {
paths = (
{
closed = 1;
nodes = (
"125 515 OFFCURVE",
"33 409 OFFCURVE",
"33 224 CURVE SMOOTH",
"33 75 OFFCURVE",
"107 -15 OFFCURVE",
"211 -15 CURVE SMOOTH",
"283 -15 OFFCURVE",
"345 30 OFFCURVE",
"372 130 CURVE",
"327 130 LINE",
"330 -225 LINE",
"450 -225 LINE",
"451 470 LINE",
"389 500 OFFCURVE",
"329 515 OFFCURVE",
"264 515 CURVE SMOOTH"
);
},
{
closed = 1;
nodes = (
"284 415 OFFCURVE",
"306 411 OFFCURVE",
"331 401 CURVE",
"330 211 LINE SMOOTH",
"330 129 OFFCURVE",
"296 85 OFFCURVE",
"244 85 CURVE SMOOTH",
"191 85 OFFCURVE",
"156 133 OFFCURVE",
"156 226 CURVE SMOOTH",
"156 340 OFFCURVE",
"187 415 OFFCURVE",
"265 415 CURVE SMOOTH"
);
}
);
};
layerId = "6114C541-D024-4A3E-9713-6FAF49EAB318";
name = "Bold Condensed";
paths = (
{
closed = 1;
nodes = (
"122 515 OFFCURVE",
"28 409 OFFCURVE",
"28 224 CURVE SMOOTH",
"28 75 OFFCURVE",
"104 -15 OFFCURVE",
"211 -15 CURVE SMOOTH",
"286 -15 OFFCURVE",
"341 30 OFFCURVE",
"368 130 CURVE",
"322 130 LINE",
"325 -225 LINE",
"455 -225 LINE",
"456 470 LINE",
"394 500 OFFCURVE",
"329 515 OFFCURVE",
"264 515 CURVE SMOOTH"
);
},
{
closed = 1;
nodes = (
"284 410 OFFCURVE",
"301 406 OFFCURVE",
"326 396 CURVE",
"325 211 LINE SMOOTH",
"325 129 OFFCURVE",
"295 88 OFFCURVE",
"244 88 CURVE SMOOTH",
"192 88 OFFCURVE",
"161 140 OFFCURVE",
"161 226 CURVE SMOOTH",
"161 335 OFFCURVE",
"192 410 OFFCURVE",
"265 410 CURVE SMOOTH"
);
}
);
width = 511;
}
);
unicode = 0071;
},
{
color = 3;
glyphname = r;
lastChange = "2015-11-05 07:49:53 +0000";
layers = (
{
anchors = (
{
name = bottom;
position = "{155, 0}";
},
{
name = top;
position = "{151, 500}";
}
);
layerId = "CC11FE7D-5FF0-4B40-9597-DFC61EB94F41";
name = "Light Condensed";
paths = (
{
closed = 1;
nodes = (
"125 0 LINE",
"125 299 LINE SMOOTH",
"125 396 OFFCURVE",
"173 471 OFFCURVE",
"245 471 CURVE SMOOTH",
"255 471 OFFCURVE",
"267 469 OFFCURVE",
"279 466 CURVE",
"284 501 LINE",
"272 505 OFFCURVE",
"260 507 OFFCURVE",
"249 507 CURVE SMOOTH",
"185 507 OFFCURVE",
"127 455 OFFCURVE",
"110 372 CURVE",
"123 372 LINE",
"122 500 LINE",
"85 500 LINE",
"85 0 LINE"
);
}
);
width = 287;
},
{
anchors = (
{
name = bottom;
position = "{169, 0}";
},
{
name = top;
position = "{139, 500}";
}
);
background = {
paths = (
{
closed = 1;
nodes = (
"501 86 LINE",
"475 83 OFFCURVE",
"465 93 OFFCURVE",
"465 117 CURVE SMOOTH",
"465 339 LINE SMOOTH",
"465 456 OFFCURVE",
"400 515 OFFCURVE",
"319 515 CURVE SMOOTH",
"242 515 OFFCURVE",
"172 460 OFFCURVE",
"145 350 CURVE",
"185 350 LINE",
"180 500 LINE",
"55 500 LINE",
"55 0 LINE",
"185 0 LINE",
"185 255 LINE SMOOTH",
"185 368 OFFCURVE",
"230 412 OFFCURVE",
"276 412 CURVE SMOOTH",
"314 412 OFFCURVE",
"335 377 OFFCURVE",
"335 326 CURVE SMOOTH",
"335 110 LINE SMOOTH",
"335 21 OFFCURVE",
"383 -14 OFFCURVE",
"453 -14 CURVE SMOOTH",
"469 -14 OFFCURVE",
"487 -12 OFFCURVE",
"506 -8 CURVE"
);
}
);
};
layerId = "6114C541-D024-4A3E-9713-6FAF49EAB318";
name = "Bold Condensed";
paths = (
{
closed = 1;
nodes = (
"185 0 LINE",
"185 254 LINE SMOOTH",
"185 344 OFFCURVE",
"224 394 OFFCURVE",
"279 394 CURVE SMOOTH",
"294 394 OFFCURVE",
"310 390 OFFCURVE",
"327 383 CURVE",
"341 514 LINE",
"333 515 OFFCURVE",
"325 515 OFFCURVE",
"317 515 CURVE SMOOTH",
"228 515 OFFCURVE",
"183 454 OFFCURVE",
"159 350 CURVE",
"185 350 LINE",
"177 505 LINE",
"55 505 LINE",
"55 0 LINE"
);
}
);
width = 338;
}
);
unicode = 0072;
},
{
color = 3;
glyphname = s;
lastChange = "2015-11-05 07:49:53 +0000";
layers = (
{
anchors = (
{
name = bottom;
position = "{190, 0}";
},
{
name = top;
position = "{189, 500}";
}
);
guideLines = (
{
angle = 90;
position = "{66, 184}";
}
);
layerId = "CC11FE7D-5FF0-4B40-9597-DFC61EB94F41";
name = "Light Condensed";
paths = (
{
closed = 1;
nodes = (
"51 41 LINE",
"94 10 OFFCURVE",
"146 -7 OFFCURVE",
"195 -7 CURVE SMOOTH",
"268 -7 OFFCURVE",
"339 40 OFFCURVE",
"339 126 CURVE SMOOTH",
"339 284 OFFCURVE",
"106 258 OFFCURVE",
"106 385 CURVE SMOOTH",
"106 442 OFFCURVE",
"154 472 OFFCURVE",
"203 472 CURVE SMOOTH",
"243 472 OFFCURVE",
"286 454 OFFCURVE",
"308 415 CURVE",
"342 433 LINE",
"314 483 OFFCURVE",
"259 507 OFFCURVE",
"206 507 CURVE SMOOTH",
"136 507 OFFCURVE",
"66 464 OFFCURVE",
"66 385 CURVE SMOOTH",
"66 229 OFFCURVE",
"299 258 OFFCURVE",
"299 126 CURVE SMOOTH",
"299 65 OFFCURVE",
"252 28 OFFCURVE",
"197 28 CURVE SMOOTH",
"157 28 OFFCURVE",
"111 44 OFFCURVE",
"69 73 CURVE"
);
}
);
width = 387;
},
{
anchors = (
{
name = bottom;
position = "{199, 0}";
},
{
name = top;
position = "{201, 500}";
}
);
background = {
paths = (
{
closed = 1;
nodes = (
"72 6 OFFCURVE",
"135 -15 OFFCURVE",
"193 -15 CURVE SMOOTH",
"292 -15 OFFCURVE",
"381 42 OFFCURVE",
"381 149 CURVE SMOOTH",
"381 320 OFFCURVE",
"169 291 OFFCURVE",
"169 373 CURVE SMOOTH",
"169 405 OFFCURVE",
"192 419 OFFCURVE",
"224 419 CURVE SMOOTH",
"256 419 OFFCURVE",
"297 405 OFFCURVE",
"331 382 CURVE",
"376 458 LINE",
"335 497 OFFCURVE",
"277 515 OFFCURVE",
"221 515 CURVE SMOOTH",
"128 515 OFFCURVE",
"40 464 OFFCURVE",
"40 367 CURVE SMOOTH",
"40 196 OFFCURVE",
"252 232 OFFCURVE",
"252 139 CURVE SMOOTH",
"252 101 OFFCURVE",
"223 85 OFFCURVE",
"186 85 CURVE SMOOTH",
"148 85 OFFCURVE",
"102 100 OFFCURVE",
"69 123 CURVE",
"22 47 LINE"
);
},
{
closed = 1;
nodes = (
"87 13 OFFCURVE",
"144 -7 OFFCURVE",
"197 -7 CURVE SMOOTH",
"270 -7 OFFCURVE",
"339 38 OFFCURVE",
"339 124 CURVE SMOOTH",
"339 282 OFFCURVE",
"110 260 OFFCURVE",
"110 387 CURVE SMOOTH",
"110 444 OFFCURVE",
"156 472 OFFCURVE",
"205 472 CURVE SMOOTH",
"245 472 OFFCURVE",
"288 454 OFFCURVE",
"310 415 CURVE",
"344 433 LINE",
"316 483 OFFCURVE",
"261 507 OFFCURVE",
"208 507 CURVE SMOOTH",
"138 507 OFFCURVE",
"70 466 OFFCURVE",
"70 387 CURVE SMOOTH",
"70 231 OFFCURVE",
"299 256 OFFCURVE",
"299 124 CURVE SMOOTH",
"299 63 OFFCURVE",
"254 28 OFFCURVE",
"199 28 CURVE SMOOTH",
"157 28 OFFCURVE",
"107 46 OFFCURVE",
"63 79 CURVE",
"42 49 LINE"
);
}
);
};
guideLines = (
{
angle = 90;
position = "{461, 634}";
},
{
angle = 90;
position = "{808, 634}";
},
{
angle = 90;
position = "{901, 634}";
},
{
angle = 90;
position = "{1264, 634}";
},
{
angle = 90;
position = "{1335, 634}";
},
{
angle = 90;
position = "{1667, 634}";
},
{
angle = 90;
position = "{1782, 634}";
},
{
angle = 90;
position = "{2052, 634}";
}
);
layerId = "6114C541-D024-4A3E-9713-6FAF49EAB318";
name = "Bold Condensed";
paths = (
{
closed = 1;
nodes = (
"72 4 OFFCURVE",
"135 -15 OFFCURVE",
"193 -15 CURVE SMOOTH",
"292 -15 OFFCURVE",
"381 42 OFFCURVE",
"381 149 CURVE SMOOTH",
"381 310 OFFCURVE",
"169 291 OFFCURVE",
"169 369 CURVE SMOOTH",
"169 402 OFFCURVE",
"195 418 OFFCURVE",
"224 418 CURVE SMOOTH",
"252 418 OFFCURVE",
"284 403 OFFCURVE",
"300 374 CURVE",
"382 423 LINE",
"352 489 OFFCURVE",
"285 515 OFFCURVE",
"219 515 CURVE SMOOTH",
"130 515 OFFCURVE",
"40 460 OFFCURVE",
"40 367 CURVE SMOOTH",
"40 196 OFFCURVE",
"252 222 OFFCURVE",
"252 139 CURVE SMOOTH",
"252 101 OFFCURVE",
"223 85 OFFCURVE",
"186 85 CURVE SMOOTH",
"148 85 OFFCURVE",
"102 99 OFFCURVE",
"69 121 CURVE",
"22 45 LINE"
);
}
);
width = 409;
}
);
unicode = 0073;
},
{
color = 1;
glyphname = germandbls;
lastChange = "2015-11-05 07:49:53 +0000";
layers = (
{
guideLines = (
{
position = "{120, 732}";
}
);
layerId = "CC11FE7D-5FF0-4B40-9597-DFC61EB94F41";
name = "Light Condensed";
paths = (
{
closed = 1;
nodes = (
"434 693 OFFCURVE",
"354 732 OFFCURVE",
"273 732 CURVE SMOOTH",
"180 732 OFFCURVE",
"106 680 OFFCURVE",
"106 563 CURVE SMOOTH",
"106 0 LINE",
"146 0 LINE",
"146 559 LINE SMOOTH",
"146 658 OFFCURVE",
"199 700 OFFCURVE",
"272 700 CURVE SMOOTH",
"333 700 OFFCURVE",
"393 671 OFFCURVE",
"393 613 CURVE SMOOTH",
"393 496 OFFCURVE",
"249 504 OFFCURVE",
"249 395 CURVE SMOOTH",
"249 265 OFFCURVE",
"449 264 OFFCURVE",
"449 136 CURVE SMOOTH",
"449 65 OFFCURVE",
"402 28 OFFCURVE",
"357 28 CURVE SMOOTH",
"332 28 OFFCURVE",
"295 39 OFFCURVE",
"259 60 CURVE",
"242 27 LINE",
"280 5 OFFCURVE",
"322 -7 OFFCURVE",
"355 -7 CURVE SMOOTH",
"418 -7 OFFCURVE",
"489 40 OFFCURVE",
"489 136 CURVE SMOOTH",
"489 290 OFFCURVE",
"289 294 OFFCURVE",
"289 395 CURVE SMOOTH",
"289 482 OFFCURVE",
"434 488 OFFCURVE",
"434 615 CURVE SMOOTH"
);
},
{
closed = 1;
nodes = (
"130 465 LINE",
"130 500 LINE",
"30 500 LINE",
"30 465 LINE"
);
}
);
width = 534;
},
{
background = {
paths = (
{
closed = 1;
nodes = (
"434 770 OFFCURVE",
"106 813 OFFCURVE",
"106 563 CURVE SMOOTH",
"106 0 LINE",
"146 0 LINE",
"146 559 LINE SMOOTH",
"146 773 OFFCURVE",
"393 728 OFFCURVE",
"393 613 CURVE SMOOTH",
"393 496 OFFCURVE",
"249 504 OFFCURVE",
"249 395 CURVE SMOOTH",
"249 265 OFFCURVE",
"449 264 OFFCURVE",
"449 136 CURVE SMOOTH",
"449 65 OFFCURVE",
"402 28 OFFCURVE",
"357 28 CURVE SMOOTH",
"332 28 OFFCURVE",
"295 39 OFFCURVE",
"259 60 CURVE",
"242 27 LINE",
"280 5 OFFCURVE",
"322 -7 OFFCURVE",
"355 -7 CURVE SMOOTH",
"418 -7 OFFCURVE",
"489 40 OFFCURVE",
"489 136 CURVE SMOOTH",
"489 290 OFFCURVE",
"289 294 OFFCURVE",
"289 395 CURVE SMOOTH",
"289 482 OFFCURVE",
"434 488 OFFCURVE",
"434 615 CURVE SMOOTH"
);
},
{
closed = 1;
nodes = (
"158 405 LINE",
"158 500 LINE",
"27 500 LINE",
"27 405 LINE"
);
},
{
closed = 1;
nodes = (
"528 821 OFFCURVE",
"85 751 OFFCURVE",
"85 574 CURVE SMOOTH",
"85 0 LINE",
"215 0 LINE",
"215 568 LINE SMOOTH",
"215 664 OFFCURVE",
"402 683 OFFCURVE",
"402 597 CURVE SMOOTH",
"402 480 OFFCURVE",
"273 460 OFFCURVE",
"273 367 CURVE SMOOTH",
"273 196 OFFCURVE",
"455 232 OFFCURVE",
"455 139 CURVE SMOOTH",
"455 101 OFFCURVE",
"426 85 OFFCURVE",
"404 85 CURVE SMOOTH",
"381 85 OFFCURVE",
"335 101 OFFCURVE",
"302 123 CURVE",
"255 47 LINE",
"305 6 OFFCURVE",
"368 -15 OFFCURVE",
"411 -15 CURVE SMOOTH",
"495 -15 OFFCURVE",
"584 42 OFFCURVE",
"584 149 CURVE SMOOTH",
"584 320 OFFCURVE",
"402 291 OFFCURVE",
"402 369 CURVE SMOOTH",
"402 402 OFFCURVE",
"528 485 OFFCURVE",
"528 606 CURVE SMOOTH"
);
}
);
};
layerId = "6114C541-D024-4A3E-9713-6FAF49EAB318";
name = "Bold Condensed";
paths = (
{
closed = 1;
nodes = (
"158 405 LINE",
"158 500 LINE",
"27 500 LINE",
"27 405 LINE"
);
},
{
closed = 1;
nodes = (
"525 687 OFFCURVE",
"425 740 OFFCURVE",
"320 740 CURVE SMOOTH",
"205 740 OFFCURVE",
"85 677 OFFCURVE",
"85 554 CURVE SMOOTH",
"85 0 LINE",
"215 0 LINE",
"215 548 LINE SMOOTH",
"215 613 OFFCURVE",
"259 644 OFFCURVE",
"304 644 CURVE SMOOTH",
"351 644 OFFCURVE",
"399 621 OFFCURVE",
"399 579 CURVE SMOOTH",
"399 511 OFFCURVE",
"283 509 OFFCURVE",
"283 393 CURVE SMOOTH",
"283 263 OFFCURVE",
"455 232 OFFCURVE",
"455 139 CURVE SMOOTH",
"455 101 OFFCURVE",
"426 85 OFFCURVE",
"404 85 CURVE SMOOTH",
"383 85 OFFCURVE",
"344 98 OFFCURVE",
"312 117 CURVE",
"275 32 LINE",
"321 1 OFFCURVE",
"373 -15 OFFCURVE",
"411 -15 CURVE SMOOTH",
"495 -15 OFFCURVE",
"584 42 OFFCURVE",
"584 149 CURVE SMOOTH",
"584 298 OFFCURVE",
"412 349 OFFCURVE",
"412 408 CURVE SMOOTH",
"412 461 OFFCURVE",
"525 486 OFFCURVE",
"525 588 CURVE SMOOTH"
);
}
);
width = 610;
}
);
leftMetricsKey = f;
rightMetricsKey = s;
unicode = 00DF;
},
{
color = 3;
glyphname = t;
lastChange = "2015-11-05 07:49:53 +0000";
layers = (
{
guideLines = (
{
angle = 90;
position = "{278, 376}";
}
);
layerId = "CC11FE7D-5FF0-4B40-9597-DFC61EB94F41";
name = "Light Condensed";
paths = (
{
closed = 1;
nodes = (
"233 -7 OFFCURVE",
"257 0 OFFCURVE",
"285 16 CURVE",
"272 44 LINE",
"251 33 OFFCURVE",
"235 28 OFFCURVE",
"217 28 CURVE SMOOTH",
"173 28 OFFCURVE",
"146 62 OFFCURVE",
"146 131 CURVE SMOOTH",
"146 635 LINE",
"106 635 LINE",
"106 119 LINE SMOOTH",
"106 37 OFFCURVE",
"149 -7 OFFCURVE",
"209 -7 CURVE SMOOTH"
);
},
{
closed = 1;
nodes = (
"273 465 LINE",
"273 500 LINE",
"20 500 LINE",
"20 465 LINE"
);
}
);
width = 300;
},
{
background = {
paths = (
{
closed = 1;
nodes = (
"303 96 OFFCURVE",
"284 90 OFFCURVE",
"269 90 CURVE SMOOTH",
"238 90 OFFCURVE",
"218 113 OFFCURVE",
"218 162 CURVE SMOOTH",
"218 635 LINE",
"88 635 LINE",
"88 151 LINE SMOOTH",
"88 44 OFFCURVE",
"147 -15 OFFCURVE",
"227 -15 CURVE SMOOTH",
"266 -15 OFFCURVE",
"311 -1 OFFCURVE",
"357 30 CURVE",
"322 108 LINE"
);
},
{
closed = 1;
nodes = (
"30 500 LINE",
"30 405 LINE",
"321 405 LINE",
"321 500 LINE"
);
}
);
};
guideLines = (
{
angle = 90;
position = "{317, 376}";
}
);
layerId = "6114C541-D024-4A3E-9713-6FAF49EAB318";
name = "Bold Condensed";
paths = (
{
closed = 1;
nodes = (
"266 -15 OFFCURVE",
"311 -2 OFFCURVE",
"357 29 CURVE",
"322 107 LINE",
"303 97 OFFCURVE",
"284 90 OFFCURVE",
"269 90 CURVE SMOOTH",
"238 90 OFFCURVE",
"218 113 OFFCURVE",
"218 162 CURVE SMOOTH",
"218 635 LINE",
"88 635 LINE",
"88 151 LINE SMOOTH",
"88 39 OFFCURVE",
"139 -15 OFFCURVE",
"227 -15 CURVE SMOOTH"
);
},
{
closed = 1;
nodes = (
"321 405 LINE",
"321 500 LINE",
"25 500 LINE",
"25 405 LINE"
);
}
);
width = 357;
}
);
unicode = 0074;
},
{
color = 3;
glyphname = u;
lastChange = "2015-11-05 07:49:53 +0000";
layers = (
{
anchors = (
{
name = ogonek;
position = "{481, 5}";
},
{
name = top;
position = "{253, 500}";
}
);
layerId = "CC11FE7D-5FF0-4B40-9597-DFC61EB94F41";
name = "Light Condensed";
paths = (
{
closed = 1;
nodes = (
"373 27 OFFCURVE",
"393 -7 OFFCURVE",
"456 -7 CURVE SMOOTH",
"464 -7 OFFCURVE",
"472 -6 OFFCURVE",
"482 -5 CURVE",
"480 26 LINE",
"474 25 OFFCURVE",
"469 25 OFFCURVE",
"464 25 CURVE SMOOTH",
"423 25 OFFCURVE",
"413 50 OFFCURVE",
"413 103 CURVE",
"413 500 LINE",
"373 500 LINE",
"373 206 LINE SMOOTH",
"373 89 OFFCURVE",
"307 25 OFFCURVE",
"235 25 CURVE SMOOTH",
"169 25 OFFCURVE",
"125 72 OFFCURVE",
"125 159 CURVE SMOOTH",
"125 500 LINE",
"85 500 LINE",
"85 156 LINE SMOOTH",
"85 52 OFFCURVE",
"138 -7 OFFCURVE",
"233 -7 CURVE SMOOTH",
"298 -7 OFFCURVE",
"354 31 OFFCURVE",
"382 107 CURVE",
"373 107 LINE"
);
}
);
width = 502;
},
{
anchors = (
{
name = ogonek;
position = "{525, 10}";
},
{
name = top;
position = "{269, 500}";
}
);
background = {
paths = (
{
closed = 1;
nodes = (
"56 500 LINE",
"56 161 LINE SMOOTH",
"56 49 OFFCURVE",
"114 -12 OFFCURVE",
"214 -12 CURVE SMOOTH",
"282 -12 OFFCURVE",
"364 37 OFFCURVE",
"391 150 CURVE",
"347 150 LINE",
"357 0 LINE",
"472 0 LINE",
"472 500 LINE",
"342 500 LINE",
"342 245 LINE SMOOTH",
"342 144 OFFCURVE",
"307 88 OFFCURVE",
"251 88 CURVE SMOOTH",
"207 88 OFFCURVE",
"186 121 OFFCURVE",
"186 176 CURVE SMOOTH",
"186 500 LINE"
);
}
);
};
layerId = "6114C541-D024-4A3E-9713-6FAF49EAB318";
name = "Bold Condensed";
paths = (
{
closed = 1;
nodes = (
"363 18 OFFCURVE",
"406 -15 OFFCURVE",
"469 -15 CURVE SMOOTH",
"486 -15 OFFCURVE",
"505 -13 OFFCURVE",
"525 -8 CURVE",
"521 87 LINE",
"516 86 OFFCURVE",
"511 86 OFFCURVE",
"507 86 CURVE SMOOTH",
"481 86 OFFCURVE",
"472 100 OFFCURVE",
"472 133 CURVE SMOOTH",
"472 500 LINE",
"342 500 LINE",
"342 245 LINE SMOOTH",
"342 144 OFFCURVE",
"307 88 OFFCURVE",
"251 88 CURVE SMOOTH",
"207 88 OFFCURVE",
"186 121 OFFCURVE",
"186 176 CURVE SMOOTH",
"186 500 LINE",
"56 500 LINE",
"56 161 LINE SMOOTH",
"56 49 OFFCURVE",
"114 -12 OFFCURVE",
"214 -12 CURVE SMOOTH",
"271 -12 OFFCURVE",
"337 23 OFFCURVE",
"374 100 CURVE",
"363 100 LINE"
);
}
);
width = 533;
}
);
unicode = 0075;
},
{
color = 3;
glyphname = uni0163;
lastChange = "2015-11-05 07:49:53 +0000";
layers = (
{
components = (
{
name = t;
}
);
layerId = "CC11FE7D-5FF0-4B40-9597-DFC61EB94F41";
name = "Light Condensed";
paths = (
{
closed = 1;
nodes = (
"130 -187 OFFCURVE",
"142 -188 OFFCURVE",
"154 -188 CURVE SMOOTH",
"226 -188 OFFCURVE",
"264 -145 OFFCURVE",
"264 -98 CURVE SMOOTH",
"264 -60 OFFCURVE",
"240 -19 OFFCURVE",
"189 5 CURVE",
"160 5 LINE",
"207 -23 OFFCURVE",
"230 -60 OFFCURVE",
"230 -92 CURVE SMOOTH",
"230 -127 OFFCURVE",
"203 -154 OFFCURVE",
"148 -154 CURVE SMOOTH",
"138 -154 OFFCURVE",
"129 -153 OFFCURVE",
"118 -151 CURVE",
"116 -184 LINE"
);
}
);
width = 308;
},
{
background = {
paths = (
{
closed = 1;
nodes = (
"154 -220 OFFCURVE",
"171 -220 CURVE SMOOTH",
"269 -220 OFFCURVE",
"322 -165 OFFCURVE",
"322 -109 CURVE SMOOTH",
"322 -60 OFFCURVE",
"282 -10 OFFCURVE",
"200 5 CURVE",
"120 3 LINE",
"190 -13 OFFCURVE",
"224 -48 OFFCURVE",
"224 -78 CURVE SMOOTH",
"224 -114 OFFCURVE",
"194 -127 OFFCURVE",
"155 -127 CURVE SMOOTH",
"144 -127 OFFCURVE",
"131 -126 OFFCURVE",
"119 -124 CURVE",
"117 -214 LINE",
"135 -218 OFFCURVE"
);
}
);
};
components = (
{
name = t;
}
);
layerId = "6114C541-D024-4A3E-9713-6FAF49EAB318";
name = "Bold Condensed";
paths = (
{
closed = 1;
nodes = (
"135 -218 OFFCURVE",
"154 -220 OFFCURVE",
"171 -220 CURVE SMOOTH",
"254 -220 OFFCURVE",
"322 -176 OFFCURVE",
"322 -110 CURVE SMOOTH",
"322 -67 OFFCURVE",
"290 -22 OFFCURVE",
"218 5 CURVE",
"151 4 LINE",
"200 -19 OFFCURVE",
"224 -52 OFFCURVE",
"224 -78 CURVE SMOOTH",
"224 -112 OFFCURVE",
"197 -127 OFFCURVE",
"154 -127 CURVE SMOOTH",
"143 -127 OFFCURVE",
"131 -126 OFFCURVE",
"119 -124 CURVE",
"117 -214 LINE"
);
}
);
width = 357;
}
);
unicode = 0163;
},
{
color = 3;
glyphname = uogonek;
lastChange = "2015-11-05 07:49:53 +0000";
layers = (
{
anchors = (
{
name = top;
position = "{253, 500}";
}
);
guideLines = (
{
angle = 90;
position = "{-584, -98}";
}
);
layerId = "CC11FE7D-5FF0-4B40-9597-DFC61EB94F41";
name = "Light Condensed";
paths = (
{
closed = 1;
nodes = (
"457 -188 OFFCURVE",
"473 -186 OFFCURVE",
"487 -183 CURVE",
"485 -153 LINE",
"474 -156 OFFCURVE",
"462 -157 OFFCURVE",
"453 -157 CURVE SMOOTH",
"404 -157 OFFCURVE",
"380 -129 OFFCURVE",
"380 -98 CURVE SMOOTH",
"380 -65 OFFCURVE",
"408 -28 OFFCURVE",
"482 -5 CURVE",
"480 26 LINE",
"474 25 OFFCURVE",
"469 25 OFFCURVE",
"464 25 CURVE SMOOTH",
"423 25 OFFCURVE",
"413 50 OFFCURVE",
"413 103 CURVE",
"413 500 LINE",
"373 500 LINE",
"373 206 LINE SMOOTH",
"373 89 OFFCURVE",
"307 25 OFFCURVE",
"235 25 CURVE SMOOTH",
"169 25 OFFCURVE",
"125 72 OFFCURVE",
"125 159 CURVE SMOOTH",
"125 500 LINE",
"85 500 LINE",
"85 156 LINE SMOOTH",
"85 52 OFFCURVE",
"138 -7 OFFCURVE",
"233 -7 CURVE SMOOTH",
"298 -7 OFFCURVE",
"354 31 OFFCURVE",
"382 107 CURVE",
"373 107 LINE",
"373 38 OFFCURVE",
"387 2 OFFCURVE",
"436 -6 CURVE",
"436 -1 LINE",
"374 -26 OFFCURVE",
"342 -69 OFFCURVE",
"342 -107 CURVE SMOOTH",
"342 -151 OFFCURVE",
"378 -188 OFFCURVE",
"444 -188 CURVE SMOOTH"
);
}
);
width = 502;
},
{
anchors = (
{
name = top;
position = "{269, 500}";
}
);
background = {
paths = (
{
closed = 1;
nodes = (
"363 18 OFFCURVE",
"406 -15 OFFCURVE",
"469 -15 CURVE SMOOTH",
"486 -15 OFFCURVE",
"505 -13 OFFCURVE",
"525 -8 CURVE",
"521 87 LINE",
"516 86 OFFCURVE",
"511 86 OFFCURVE",
"507 86 CURVE SMOOTH",
"481 86 OFFCURVE",
"472 100 OFFCURVE",
"472 133 CURVE SMOOTH",
"472 500 LINE",
"342 500 LINE",
"342 245 LINE SMOOTH",
"342 144 OFFCURVE",
"307 88 OFFCURVE",
"251 88 CURVE SMOOTH",
"207 88 OFFCURVE",
"186 121 OFFCURVE",
"186 176 CURVE SMOOTH",
"186 500 LINE",
"56 500 LINE",
"56 161 LINE SMOOTH",
"56 49 OFFCURVE",
"114 -12 OFFCURVE",
"214 -12 CURVE SMOOTH",
"271 -12 OFFCURVE",
"337 23 OFFCURVE",
"374 100 CURVE",
"363 100 LINE"
);
}
);
};
guideLines = (
{
angle = 90;
position = "{-715, -98}";
},
{
angle = 90;
position = "{-585, -98}";
}
);
layerId = "6114C541-D024-4A3E-9713-6FAF49EAB318";
name = "Bold Condensed";
paths = (
{
closed = 1;
nodes = (
"484 -215 OFFCURVE",
"510 -211 OFFCURVE",
"536 -203 CURVE",
"530 -117 LINE",
"517 -121 OFFCURVE",
"504 -123 OFFCURVE",
"492 -123 CURVE SMOOTH",
"462 -123 OFFCURVE",
"438 -110 OFFCURVE",
"438 -82 CURVE SMOOTH",
"438 -45 OFFCURVE",
"472 -22 OFFCURVE",
"525 -6 CURVE",
"521 87 LINE",
"516 86 OFFCURVE",
"511 86 OFFCURVE",
"507 86 CURVE SMOOTH",
"481 86 OFFCURVE",
"472 100 OFFCURVE",
"472 133 CURVE SMOOTH",
"472 500 LINE",
"342 500 LINE",
"342 245 LINE SMOOTH",
"342 144 OFFCURVE",
"307 88 OFFCURVE",
"251 88 CURVE SMOOTH",
"207 88 OFFCURVE",
"186 121 OFFCURVE",
"186 176 CURVE SMOOTH",
"186 500 LINE",
"56 500 LINE",
"56 161 LINE SMOOTH",
"56 49 OFFCURVE",
"114 -12 OFFCURVE",
"214 -12 CURVE SMOOTH",
"271 -12 OFFCURVE",
"337 23 OFFCURVE",
"374 100 CURVE",
"363 100 LINE",
"363 51 OFFCURVE",
"380 11 OFFCURVE",
"421 -7 CURVE",
"421 -3 LINE",
"358 -36 OFFCURVE",
"329 -82 OFFCURVE",
"329 -122 CURVE SMOOTH",
"329 -173 OFFCURVE",
"374 -215 OFFCURVE",
"459 -215 CURVE SMOOTH"
);
}
);
width = 546;
}
);
unicode = 0173;
},
{
color = 3;
glyphname = v;
lastChange = "2015-11-05 07:49:53 +0000";
layers = (
{
layerId = "CC11FE7D-5FF0-4B40-9597-DFC61EB94F41";
name = "Light Condensed";
paths = (
{
closed = 1;
nodes = (
"198 51 LINE",
"209 51 LINE",
"48 500 LINE",
"5 500 LINE",
"186 0 LINE",
"216 0 LINE",
"403 500 LINE",
"362 500 LINE"
);
}
);
width = 408;
},
{
background = {
paths = (
{
closed = 1;
nodes = (
"229 113 LINE",
"255 113 LINE",
"128 500 LINE",
"2 500 LINE",
"176 0 LINE",
"305 0 LINE",
"480 500 LINE",
"359 500 LINE"
);
}
);
};
layerId = "6114C541-D024-4A3E-9713-6FAF49EAB318";
name = "Bold Condensed";
paths = (
{
closed = 1;
nodes = (
"223 113 LINE",
"262 113 LINE",
"135 500 LINE",
"2 500 LINE",
"176 0 LINE",
"305 0 LINE",
"480 500 LINE",
"353 500 LINE"
);
}
);
width = 482;
}
);
unicode = 0076;
},
{
color = 3;
glyphname = w;
lastChange = "2015-11-05 07:49:53 +0000";
layers = (
{
layerId = "CC11FE7D-5FF0-4B40-9597-DFC61EB94F41";
name = "Light Condensed";
paths = (
{
closed = 1;
nodes = (
"192 0 LINE",
"346 463 LINE",
"331 463 LINE",
"480 0 LINE",
"506 0 LINE",
"672 500 LINE",
"633 500 LINE",
"491 52 LINE",
"501 52 LINE",
"359 500 LINE",
"319 497 LINE",
"177 52 LINE",
"187 52 LINE",
"46 500 LINE",
"5 500 LINE",
"166 0 LINE"
);
}
);
width = 677;
},
{
background = {
paths = (
{
closed = 1;
nodes = (
"257 0 LINE",
"367 332 LINE",
"356 332 LINE",
"455 0 LINE",
"561 0 LINE",
"729 500 LINE",
"613 500 LINE",
"493 107 LINE",
"537 107 LINE",
"428 483 LINE",
"310 478 LINE",
"189 107 LINE",
"233 107 LINE",
"123 500 LINE",
"-9 500 LINE",
"151 0 LINE"
);
}
);
};
layerId = "6114C541-D024-4A3E-9713-6FAF49EAB318";
name = "Bold Condensed";
paths = (
{
closed = 1;
nodes = (
"264 0 LINE",
"367 332 LINE",
"356 332 LINE",
"449 0 LINE",
"555 0 LINE",
"716 500 LINE",
"600 500 LINE",
"487 107 LINE",
"531 107 LINE",
"428 483 LINE",
"310 478 LINE",
"196 107 LINE",
"240 107 LINE",
"137 500 LINE",
"5 500 LINE",
"158 0 LINE"
);
}
);
width = 721;
}
);
unicode = 0077;
},
{
color = 3;
glyphname = x;
lastChange = "2015-11-05 07:49:53 +0000";
layers = (
{
guideLines = (
{
angle = 90;
position = "{8, 269}";
},
{
angle = 90;
position = "{405, 269}";
}
);
layerId = "CC11FE7D-5FF0-4B40-9597-DFC61EB94F41";
name = "Light Condensed";
paths = (
{
closed = 1;
nodes = (
"400 26 LINE",
"399 26 OFFCURVE",
"398 26 OFFCURVE",
"397 26 CURVE SMOOTH",
"385 26 OFFCURVE",
"378 30 OFFCURVE",
"363 52 CURVE SMOOTH",
"220 264 LINE",
"66 500 LINE",
"16 500 LINE",
"192 240 LINE",
"327 35 LINE SMOOTH",
"348 3 OFFCURVE",
"363 -7 OFFCURVE",
"384 -7 CURVE SMOOTH",
"390 -7 OFFCURVE",
"396 -6 OFFCURVE",
"403 -5 CURVE"
);
},
{
closed = 1;
nodes = (
"56 0 LINE",
"214 232 LINE",
"224 241 LINE",
"397 500 LINE",
"354 500 LINE",
"201 269 LINE",
"190 260 LINE",
"13 0 LINE"
);
}
);
width = 413;
},
{
background = {
paths = (
{
closed = 1;
nodes = (
"464 84 LINE",
"460 83 OFFCURVE",
"456 83 OFFCURVE",
"453 83 CURVE SMOOTH",
"435 83 OFFCURVE",
"422 91 OFFCURVE",
"410 107 CURVE SMOOTH",
"280 301 LINE",
"158 500 LINE",
"15 500 LINE",
"198 217 LINE",
"292 68 LINE SMOOTH",
"329 9 OFFCURVE",
"362 -15 OFFCURVE",
"415 -15 CURVE SMOOTH",
"431 -15 OFFCURVE",
"451 -13 OFFCURVE",
"469 -9 CURVE"
);
},
{
closed = 1;
nodes = (
"129 0 LINE",
"256 202 LINE",
"282 232 LINE",
"464 500 LINE",
"335 500 LINE",
"217 313 LINE",
"189 287 LINE",
"-3 0 LINE"
);
}
);
};
guideLines = (
{
angle = 90;
position = "{8, 269}";
},
{
angle = 90;
position = "{464, 267}";
}
);
layerId = "6114C541-D024-4A3E-9713-6FAF49EAB318";
name = "Bold Condensed";
paths = (
{
closed = 1;
nodes = (
"459 84 LINE",
"455 83 OFFCURVE",
"451 83 OFFCURVE",
"448 83 CURVE SMOOTH",
"430 83 OFFCURVE",
"416 90 OFFCURVE",
"405 107 CURVE SMOOTH",
"280 301 LINE",
"163 500 LINE",
"20 500 LINE",
"198 217 LINE",
"287 68 LINE SMOOTH",
"322 9 OFFCURVE",
"357 -15 OFFCURVE",
"410 -15 CURVE SMOOTH",
"426 -15 OFFCURVE",
"446 -13 OFFCURVE",
"464 -9 CURVE"
);
},
{
closed = 1;
nodes = (
"134 0 LINE",
"259 202 LINE",
"277 232 LINE",
"459 500 LINE",
"330 500 LINE",
"214 313 LINE",
"192 287 LINE",
"2 0 LINE"
);
}
);
width = 464;
}
);
unicode = 0078;
},
{
color = 3;
glyphname = y;
lastChange = "2015-11-05 07:49:53 +0000";
layers = (
{
anchors = (
{
name = top;
position = "{200, 500}";
}
);
layerId = "CC11FE7D-5FF0-4B40-9597-DFC61EB94F41";
name = "Light Condensed";
paths = (
{
closed = 1;
nodes = (
"354 500 LINE",
"191 51 LINE",
"203 51 LINE",
"42 500 LINE",
"-2 500 LINE",
"177 9 LINE",
"132 -109 OFFCURVE",
"98 -177 OFFCURVE",
"29 -177 CURVE SMOOTH",
"7 -177 OFFCURVE",
"-17 -171 OFFCURVE",
"-47 -156 CURVE",
"-62 -188 LINE",
"-26 -206 OFFCURVE",
"3 -212 OFFCURVE",
"29 -212 CURVE SMOOTH",
"107 -212 OFFCURVE",
"153 -145 OFFCURVE",
"195 -34 CURVE SMOOTH",
"395 500 LINE"
);
}
);
width = 400;
},
{
anchors = (
{
name = top;
position = "{242, 500}";
}
);
background = {
paths = (
{
closed = 1;
nodes = (
"357 500 LINE",
"237 87 LINE",
"276 87 LINE",
"146 500 LINE",
"15 500 LINE",
"192 -1 LINE",
"163 -67 LINE SMOOTH",
"149 -99 OFFCURVE",
"127 -112 OFFCURVE",
"100 -112 CURVE SMOOTH",
"77 -112 OFFCURVE",
"52 -103 OFFCURVE",
"22 -88 CURVE",
"-19 -182 LINE",
"22 -203 OFFCURVE",
"62 -215 OFFCURVE",
"100 -215 CURVE SMOOTH",
"183 -215 OFFCURVE",
"252 -160 OFFCURVE",
"291 -49 CURVE SMOOTH",
"484 500 LINE"
);
},
{
closed = 1;
nodes = (
"407 500 LINE",
"244 51 LINE",
"256 51 LINE",
"95 500 LINE",
"51 500 LINE",
"230 9 LINE",
"185 -109 OFFCURVE",
"151 -177 OFFCURVE",
"82 -177 CURVE SMOOTH",
"60 -177 OFFCURVE",
"36 -171 OFFCURVE",
"6 -156 CURVE",
"-9 -188 LINE",
"27 -206 OFFCURVE",
"56 -212 OFFCURVE",
"82 -212 CURVE SMOOTH",
"160 -212 OFFCURVE",
"206 -145 OFFCURVE",
"248 -34 CURVE SMOOTH",
"448 500 LINE"
);
}
);
};
layerId = "6114C541-D024-4A3E-9713-6FAF49EAB318";
name = "Bold Condensed";
paths = (
{
closed = 1;
nodes = (
"357 500 LINE",
"237 87 LINE",
"276 87 LINE",
"146 500 LINE",
"15 500 LINE",
"192 -1 LINE",
"165 -78 OFFCURVE",
"145 -110 OFFCURVE",
"103 -110 CURVE SMOOTH",
"84 -110 OFFCURVE",
"60 -103 OFFCURVE",
"28 -91 CURVE",
"-10 -185 LINE",
"36 -205 OFFCURVE",
"76 -215 OFFCURVE",
"111 -215 CURVE SMOOTH",
"196 -215 OFFCURVE",
"253 -158 OFFCURVE",
"291 -49 CURVE SMOOTH",
"484 500 LINE"
);
}
);
width = 483;
}
);
unicode = 0079;
},
{
color = 3;
glyphname = z;
lastChange = "2015-11-05 07:49:53 +0000";
layers = (
{
anchors = (
{
name = top;
position = "{238, 500}";
}
);
layerId = "CC11FE7D-5FF0-4B40-9597-DFC61EB94F41";
name = "Light Condensed";
paths = (
{
closed = 1;
nodes = (
"101 35 LINE",
"410 475 LINE",
"410 500 LINE",
"57 500 LINE",
"57 465 LINE",
"359 465 LINE",
"47 25 LINE",
"47 0 LINE",
"404 0 LINE",
"404 35 LINE"
);
}
);
width = 455;
},
{
anchors = (
{
name = top;
position = "{241, 500}";
}
);
background = {
paths = (
{
closed = 1;
nodes = (
"190 88 LINE",
"408 435 LINE",
"408 500 LINE",
"51 500 LINE",
"51 413 LINE",
"268 413 LINE",
"45 65 LINE",
"45 0 LINE",
"413 0 LINE",
"413 88 LINE"
);
}
);
};
guideLines = (
{
angle = 90;
position = "{408, 389}";
},
{
angle = 90;
position = "{51, 389}";
}
);
layerId = "6114C541-D024-4A3E-9713-6FAF49EAB318";
name = "Bold Condensed";
paths = (
{
closed = 1;
nodes = (
"198 93 LINE",
"413 432 LINE",
"413 500 LINE",
"46 500 LINE",
"46 408 LINE",
"260 408 LINE",
"40 65 LINE",
"40 0 LINE",
"418 0 LINE",
"418 93 LINE"
);
}
);
width = 458;
}
);
unicode = 007A;
},
{
color = 3;
glyphname = fi;
lastChange = "2015-11-05 07:49:53 +0000";
layers = (
{
layerId = "CC11FE7D-5FF0-4B40-9597-DFC61EB94F41";
name = "Light Condensed";
paths = (
{
closed = 1;
nodes = (
"146 0 LINE",
"146 586 LINE SMOOTH",
"146 659 OFFCURVE",
"173 697 OFFCURVE",
"219 697 CURVE SMOOTH",
"236 697 OFFCURVE",
"255 692 OFFCURVE",
"275 682 CURVE",
"292 712 LINE",
"268 726 OFFCURVE",
"242 732 OFFCURVE",
"219 732 CURVE SMOOTH",
"154 732 OFFCURVE",
"106 685 OFFCURVE",
"106 598 CURVE SMOOTH",
"106 0 LINE"
);
},
{
closed = 1;
nodes = (
"392 0 LINE",
"392 500 LINE",
"353 500 LINE",
"353 0 LINE"
);
},
{
closed = 1;
nodes = (
"371 465 LINE",
"371 500 LINE",
"30 500 LINE",
"30 465 LINE"
);
},
{
closed = 1;
nodes = (
"394 607 OFFCURVE",
"406 624 OFFCURVE",
"406 645 CURVE SMOOTH",
"406 665 OFFCURVE",
"394 682 OFFCURVE",
"373 682 CURVE SMOOTH",
"352 682 OFFCURVE",
"340 665 OFFCURVE",
"340 645 CURVE SMOOTH",
"340 624 OFFCURVE",
"352 607 OFFCURVE",
"373 607 CURVE SMOOTH"
);
}
);
width = 478;
},
{
background = {
paths = (
{
closed = 1;
nodes = (
"501 0 LINE",
"501 500 LINE",
"371 500 LINE",
"371 0 LINE"
);
},
{
closed = 1;
nodes = (
"466 405 LINE",
"466 500 LINE",
"27 500 LINE",
"27 405 LINE"
);
},
{
closed = 1;
nodes = (
"215 0 LINE",
"215 568 LINE SMOOTH",
"215 613 OFFCURVE",
"235 634 OFFCURVE",
"265 634 CURVE SMOOTH",
"281 634 OFFCURVE",
"299 627 OFFCURVE",
"318 617 CURVE",
"356 703 LINE",
"311 728 OFFCURVE",
"267 740 OFFCURVE",
"228 740 CURVE SMOOTH",
"145 740 OFFCURVE",
"85 685 OFFCURVE",
"85 579 CURVE SMOOTH",
"85 0 LINE"
);
},
{
closed = 1;
nodes = (
"478 558 OFFCURVE",
"518 588 OFFCURVE",
"518 646 CURVE SMOOTH",
"518 703 OFFCURVE",
"479 731 OFFCURVE",
"437 731 CURVE SMOOTH",
"395 731 OFFCURVE",
"356 703 OFFCURVE",
"356 646 CURVE SMOOTH",
"356 587 OFFCURVE",
"394 558 OFFCURVE",
"436 558 CURVE SMOOTH"
);
}
);
};
layerId = "6114C541-D024-4A3E-9713-6FAF49EAB318";
name = "Bold Condensed";
paths = (
{
closed = 1;
nodes = (
"215 0 LINE",
"215 568 LINE SMOOTH",
"215 613 OFFCURVE",
"235 634 OFFCURVE",
"265 634 CURVE SMOOTH",
"275 634 OFFCURVE",
"284 631 OFFCURVE",
"295 628 CURVE",
"332 715 LINE",
"296 731 OFFCURVE",
"259 740 OFFCURVE",
"228 740 CURVE SMOOTH",
"145 740 OFFCURVE",
"85 685 OFFCURVE",
"85 579 CURVE SMOOTH",
"85 0 LINE"
);
},
{
closed = 1;
nodes = (
"501 0 LINE",
"501 500 LINE",
"371 500 LINE",
"371 0 LINE"
);
},
{
closed = 1;
nodes = (
"466 405 LINE",
"466 500 LINE",
"27 500 LINE",
"27 405 LINE"
);
},
{
closed = 1;
nodes = (
"478 558 OFFCURVE",
"518 588 OFFCURVE",
"518 646 CURVE SMOOTH",
"518 703 OFFCURVE",
"479 731 OFFCURVE",
"437 731 CURVE SMOOTH",
"395 731 OFFCURVE",
"356 703 OFFCURVE",
"356 646 CURVE SMOOTH",
"356 587 OFFCURVE",
"394 558 OFFCURVE",
"436 558 CURVE SMOOTH"
);
}
);
width = 559;
}
);
leftMetricsKey = f;
rightMetricsKey = i;
unicode = FB01;
},
{
color = 3;
glyphname = fl;
lastChange = "2015-11-05 07:49:53 +0000";
layers = (
{
layerId = "CC11FE7D-5FF0-4B40-9597-DFC61EB94F41";
name = "Light Condensed";
paths = (
{
closed = 1;
nodes = (
"278 465 LINE",
"278 500 LINE",
"30 500 LINE",
"30 465 LINE"
);
},
{
closed = 1;
nodes = (
"448 -6 OFFCURVE",
"465 -2 OFFCURVE",
"484 6 CURVE",
"473 36 LINE",
"459 30 OFFCURVE",
"447 27 OFFCURVE",
"436 27 CURVE SMOOTH",
"408 27 OFFCURVE",
"393 48 OFFCURVE",
"393 87 CURVE SMOOTH",
"393 725 LINE",
"353 725 LINE",
"353 82 LINE SMOOTH",
"353 25 OFFCURVE",
"386 -6 OFFCURVE",
"431 -6 CURVE SMOOTH"
);
},
{
closed = 1;
nodes = (
"146 0 LINE",
"146 586 LINE SMOOTH",
"146 659 OFFCURVE",
"173 697 OFFCURVE",
"219 697 CURVE SMOOTH",
"236 697 OFFCURVE",
"255 692 OFFCURVE",
"275 682 CURVE",
"292 712 LINE",
"268 726 OFFCURVE",
"242 732 OFFCURVE",
"219 732 CURVE SMOOTH",
"154 732 OFFCURVE",
"106 685 OFFCURVE",
"106 598 CURVE SMOOTH",
"106 0 LINE"
);
}
);
width = 498;
},
{
background = {
paths = (
{
closed = 1;
nodes = (
"215 0 LINE",
"215 568 LINE SMOOTH",
"215 613 OFFCURVE",
"235 634 OFFCURVE",
"265 634 CURVE SMOOTH",
"281 634 OFFCURVE",
"299 627 OFFCURVE",
"318 617 CURVE",
"356 703 LINE",
"311 728 OFFCURVE",
"267 740 OFFCURVE",
"228 740 CURVE SMOOTH",
"145 740 OFFCURVE",
"85 685 OFFCURVE",
"85 579 CURVE SMOOTH",
"85 0 LINE"
);
},
{
closed = 1;
nodes = (
"317 405 LINE",
"317 500 LINE",
"27 500 LINE",
"27 405 LINE"
);
},
{
closed = 1;
nodes = (
"536 -15 OFFCURVE",
"569 -10 OFFCURVE",
"599 -2 CURVE",
"576 95 LINE",
"564 92 OFFCURVE",
"553 90 OFFCURVE",
"544 90 CURVE SMOOTH",
"517 90 OFFCURVE",
"504 105 OFFCURVE",
"504 145 CURVE SMOOTH",
"504 725 LINE",
"374 725 LINE",
"374 133 LINE SMOOTH",
"374 34 OFFCURVE",
"423 -15 OFFCURVE",
"511 -15 CURVE SMOOTH"
);
}
);
};
layerId = "6114C541-D024-4A3E-9713-6FAF49EAB318";
name = "Bold Condensed";
paths = (
{
closed = 1;
nodes = (
"303 405 LINE",
"303 500 LINE",
"27 500 LINE",
"27 405 LINE"
);
},
{
closed = 1;
nodes = (
"536 -15 OFFCURVE",
"569 -10 OFFCURVE",
"599 -2 CURVE",
"576 95 LINE",
"564 92 OFFCURVE",
"553 90 OFFCURVE",
"544 90 CURVE SMOOTH",
"517 90 OFFCURVE",
"504 105 OFFCURVE",
"504 145 CURVE SMOOTH",
"504 725 LINE",
"374 725 LINE",
"374 133 LINE SMOOTH",
"374 34 OFFCURVE",
"423 -15 OFFCURVE",
"511 -15 CURVE SMOOTH"
);
},
{
closed = 1;
nodes = (
"215 0 LINE",
"215 568 LINE SMOOTH",
"215 613 OFFCURVE",
"235 634 OFFCURVE",
"265 634 CURVE SMOOTH",
"275 634 OFFCURVE",
"284 631 OFFCURVE",
"295 628 CURVE",
"332 715 LINE",
"296 731 OFFCURVE",
"259 740 OFFCURVE",
"228 740 CURVE SMOOTH",
"145 740 OFFCURVE",
"85 685 OFFCURVE",
"85 579 CURVE SMOOTH",
"85 0 LINE"
);
}
);
width = 607;
}
);
leftMetricsKey = f;
rightMetricsKey = l;
unicode = FB02;
},
{
color = 1;
glyphname = ordfeminine;
lastChange = "2015-11-05 07:49:53 +0000";
layers = (
{
layerId = "CC11FE7D-5FF0-4B40-9597-DFC61EB94F41";
name = "Light Condensed";
paths = (
{
closed = 1;
nodes = (
"227 332 OFFCURVE",
"242 307 OFFCURVE",
"288 307 CURVE SMOOTH",
"294 307 OFFCURVE",
"300 307 OFFCURVE",
"307 308 CURVE",
"305 338 LINE",
"301 337 OFFCURVE",
"297 337 OFFCURVE",
"294 337 CURVE SMOOTH",
"267 337 OFFCURVE",
"260 355 OFFCURVE",
"260 387 CURVE SMOOTH",
"260 578 LINE SMOOTH",
"260 647 OFFCURVE",
"213 682 OFFCURVE",
"151 682 CURVE SMOOTH",
"116 682 OFFCURVE",
"77 672 OFFCURVE",
"39 649 CURVE",
"55 621 LINE",
"86 640 OFFCURVE",
"120 651 OFFCURVE",
"149 651 CURVE SMOOTH",
"191 651 OFFCURVE",
"223 628 OFFCURVE",
"223 575 CURVE SMOOTH",
"223 426 LINE SMOOTH",
"223 366 OFFCURVE",
"170 338 OFFCURVE",
"135 338 CURVE SMOOTH",
"91 338 OFFCURVE",
"64 365 OFFCURVE",
"64 415 CURVE SMOOTH",
"64 456 OFFCURVE",
"92 492 OFFCURVE",
"173 492 CURVE SMOOTH",
"197 492 OFFCURVE",
"216 491 OFFCURVE",
"237 487 CURVE",
"237 516 LINE",
"217 520 OFFCURVE",
"199 521 OFFCURVE",
"175 521 CURVE SMOOTH",
"80 521 OFFCURVE",
"25 476 OFFCURVE",
"25 415 CURVE SMOOTH",
"25 345 OFFCURVE",
"67 307 OFFCURVE",
"130 307 CURVE SMOOTH",
"170 307 OFFCURVE",
"218 331 OFFCURVE",
"240 382 CURVE",
"227 386 LINE"
);
}
);
width = 321;
},
{
background = {
paths = (
{
closed = 1;
nodes = (
"220 328 OFFCURVE",
"251 304 OFFCURVE",
"297 304 CURVE SMOOTH",
"310 304 OFFCURVE",
"323 305 OFFCURVE",
"338 309 CURVE",
"335 378 LINE",
"331 378 OFFCURVE",
"328 378 OFFCURVE",
"325 378 CURVE SMOOTH",
"306 378 OFFCURVE",
"299 388 OFFCURVE",
"299 412 CURVE SMOOTH",
"299 560 LINE SMOOTH",
"299 647 OFFCURVE",
"249 690 OFFCURVE",
"173 690 CURVE SMOOTH",
"127 690 OFFCURVE",
"72 675 OFFCURVE",
"30 651 CURVE",
"61 582 LINE",
"93 599 OFFCURVE",
"125 611 OFFCURVE",
"150 611 CURVE SMOOTH",
"183 611 OFFCURVE",
"204 595 OFFCURVE",
"204 556 CURVE SMOOTH",
"204 458 LINE SMOOTH",
"204 401 OFFCURVE",
"189 380 OFFCURVE",
"153 380 CURVE SMOOTH",
"131 380 OFFCURVE",
"115 395 OFFCURVE",
"115 418 CURVE SMOOTH",
"115 458 OFFCURVE",
"137 476 OFFCURVE",
"183 476 CURVE SMOOTH",
"207 476 OFFCURVE",
"226 475 OFFCURVE",
"247 471 CURVE",
"247 533 LINE",
"227 537 OFFCURVE",
"194 538 OFFCURVE",
"177 538 CURVE SMOOTH",
"80 538 OFFCURVE",
"19 493 OFFCURVE",
"19 418 CURVE SMOOTH",
"19 345 OFFCURVE",
"72 304 OFFCURVE",
"131 304 CURVE SMOOTH",
"176 304 OFFCURVE",
"223 330 OFFCURVE",
"235 388 CURVE",
"220 388 LINE"
);
}
);
};
guideLines = (
{
position = "{226, 298}";
}
);
layerId = "6114C541-D024-4A3E-9713-6FAF49EAB318";
name = "Bold Condensed";
paths = (
{
closed = 1;
nodes = (
"220 325 OFFCURVE",
"252 298 OFFCURVE",
"298 298 CURVE SMOOTH",
"312 298 OFFCURVE",
"327 299 OFFCURVE",
"342 303 CURVE",
"339 382 LINE",
"335 382 OFFCURVE",
"332 382 OFFCURVE",
"329 382 CURVE SMOOTH",
"315 382 OFFCURVE",
"308 392 OFFCURVE",
"308 416 CURVE SMOOTH",
"308 557 LINE SMOOTH",
"308 648 OFFCURVE",
"249 690 OFFCURVE",
"174 690 CURVE SMOOTH",
"128 690 OFFCURVE",
"73 676 OFFCURVE",
"21 648 CURVE",
"56 571 LINE",
"88 588 OFFCURVE",
"120 600 OFFCURVE",
"150 600 CURVE SMOOTH",
"178 600 OFFCURVE",
"199 585 OFFCURVE",
"199 553 CURVE SMOOTH",
"199 455 LINE SMOOTH",
"199 407 OFFCURVE",
"184 384 OFFCURVE",
"155 384 CURVE SMOOTH",
"135 384 OFFCURVE",
"124 402 OFFCURVE",
"124 421 CURVE SMOOTH",
"124 443 OFFCURVE",
"138 468 OFFCURVE",
"177 468 CURVE SMOOTH",
"204 468 OFFCURVE",
"226 467 OFFCURVE",
"247 463 CURVE",
"247 532 LINE",
"227 536 OFFCURVE",
"194 537 OFFCURVE",
"177 537 CURVE SMOOTH",
"73 537 OFFCURVE",
"15 490 OFFCURVE",
"15 415 CURVE SMOOTH",
"15 342 OFFCURVE",
"66 298 OFFCURVE",
"131 298 CURVE SMOOTH",
"176 298 OFFCURVE",
"223 327 OFFCURVE",
"235 385 CURVE",
"220 385 LINE"
);
}
);
width = 352;
}
);
unicode = 00AA;
},
{
color = 1;
glyphname = ordmasculine;
lastChange = "2015-11-05 07:49:53 +0000";
layers = (
{
layerId = "CC11FE7D-5FF0-4B40-9597-DFC61EB94F41";
name = "Light Condensed";
paths = (
{
closed = 1;
nodes = (
"292 406 OFFCURVE",
"257 338 OFFCURVE",
"185 338 CURVE SMOOTH",
"114 338 OFFCURVE",
"79 405 OFFCURVE",
"79 494 CURVE SMOOTH",
"79 581 OFFCURVE",
"116 651 OFFCURVE",
"187 651 CURVE SMOOTH",
"258 651 OFFCURVE",
"292 583 OFFCURVE",
"292 494 CURVE SMOOTH"
);
},
{
closed = 1;
nodes = (
"331 602 OFFCURVE",
"285 682 OFFCURVE",
"188 682 CURVE SMOOTH",
"95 682 OFFCURVE",
"40 601 OFFCURVE",
"40 494 CURVE SMOOTH",
"40 385 OFFCURVE",
"85 307 OFFCURVE",
"184 307 CURVE SMOOTH",
"279 307 OFFCURVE",
"331 386 OFFCURVE",
"331 494 CURVE SMOOTH"
);
}
);
width = 371;
},
{
background = {
paths = (
{
closed = 1;
nodes = (
"268 418 OFFCURVE",
"241 380 OFFCURVE",
"199 380 CURVE SMOOTH",
"157 380 OFFCURVE",
"130 418 OFFCURVE",
"130 497 CURVE SMOOTH",
"130 574 OFFCURVE",
"158 613 OFFCURVE",
"200 613 CURVE SMOOTH",
"241 613 OFFCURVE",
"268 575 OFFCURVE",
"268 495 CURVE SMOOTH"
);
},
{
closed = 1;
nodes = (
"365 615 OFFCURVE",
"309 690 OFFCURVE",
"202 690 CURVE SMOOTH",
"95 690 OFFCURVE",
"33 614 OFFCURVE",
"33 495 CURVE SMOOTH",
"33 380 OFFCURVE",
"89 303 OFFCURVE",
"195 303 CURVE SMOOTH",
"303 303 OFFCURVE",
"365 375 OFFCURVE",
"365 497 CURVE SMOOTH"
);
}
);
};
guideLines = (
{
position = "{229, 298}";
}
);
layerId = "6114C541-D024-4A3E-9713-6FAF49EAB318";
name = "Bold Condensed";
paths = (
{
closed = 1;
nodes = (
"260 423 OFFCURVE",
"236 385 OFFCURVE",
"199 385 CURVE SMOOTH",
"162 385 OFFCURVE",
"138 423 OFFCURVE",
"138 494 CURVE SMOOTH",
"138 563 OFFCURVE",
"163 602 OFFCURVE",
"200 602 CURVE SMOOTH",
"236 602 OFFCURVE",
"260 564 OFFCURVE",
"260 492 CURVE SMOOTH"
);
},
{
closed = 1;
nodes = (
"373 615 OFFCURVE",
"317 690 OFFCURVE",
"202 690 CURVE SMOOTH",
"87 690 OFFCURVE",
"25 614 OFFCURVE",
"25 492 CURVE SMOOTH",
"25 374 OFFCURVE",
"81 297 OFFCURVE",
"195 297 CURVE SMOOTH",
"311 297 OFFCURVE",
"373 369 OFFCURVE",
"373 494 CURVE SMOOTH"
);
}
);
width = 398;
}
);
unicode = 00BA;
},
{
color = 3;
glyphname = pi;
lastChange = "2015-11-05 07:49:53 +0000";
layers = (
{
layerId = "CC11FE7D-5FF0-4B40-9597-DFC61EB94F41";
name = "Light Condensed";
paths = (
{
closed = 1;
nodes = (
"143 500 LINE",
"105 500 LINE",
"105 0 LINE",
"145 0 LINE"
);
},
{
closed = 1;
nodes = (
"480 465 LINE",
"480 500 LINE",
"40 500 LINE",
"40 465 LINE"
);
},
{
closed = 1;
nodes = (
"375 25 OFFCURVE",
"408 -6 OFFCURVE",
"453 -6 CURVE SMOOTH",
"470 -6 OFFCURVE",
"487 -2 OFFCURVE",
"506 6 CURVE",
"495 36 LINE",
"481 30 OFFCURVE",
"469 27 OFFCURVE",
"458 27 CURVE SMOOTH",
"430 27 OFFCURVE",
"415 48 OFFCURVE",
"415 87 CURVE SMOOTH",
"415 500 LINE",
"375 500 LINE",
"375 82 LINE SMOOTH"
);
}
);
width = 521;
},
{
background = {
paths = (
{
closed = 1;
nodes = (
"371 500 LINE",
"371 110 LINE SMOOTH",
"371 21 OFFCURVE",
"419 -14 OFFCURVE",
"489 -14 CURVE SMOOTH",
"505 -14 OFFCURVE",
"533 -12 OFFCURVE",
"552 -8 CURVE",
"547 86 LINE",
"521 83 OFFCURVE",
"501 93 OFFCURVE",
"501 117 CURVE SMOOTH",
"501 500 LINE"
);
},
{
closed = 1;
nodes = (
"225 500 LINE",
"95 500 LINE",
"95 0 LINE",
"225 0 LINE"
);
},
{
closed = 1;
nodes = (
"566 405 LINE",
"566 500 LINE",
"30 500 LINE",
"30 405 LINE"
);
}
);
};
layerId = "6114C541-D024-4A3E-9713-6FAF49EAB318";
name = "Bold Condensed";
paths = (
{
closed = 1;
nodes = (
"225 500 LINE",
"95 500 LINE",
"95 0 LINE",
"225 0 LINE"
);
},
{
closed = 1;
nodes = (
"576 405 LINE",
"576 500 LINE",
"20 500 LINE",
"20 405 LINE"
);
},
{
closed = 1;
nodes = (
"371 34 OFFCURVE",
"420 -15 OFFCURVE",
"508 -15 CURVE SMOOTH",
"533 -15 OFFCURVE",
"566 -10 OFFCURVE",
"596 -2 CURVE",
"573 95 LINE",
"561 92 OFFCURVE",
"550 90 OFFCURVE",
"541 90 CURVE SMOOTH",
"514 90 OFFCURVE",
"501 105 OFFCURVE",
"501 145 CURVE SMOOTH",
"501 500 LINE",
"371 500 LINE",
"371 133 LINE SMOOTH"
);
}
);
width = 596;
}
);
unicode = 03C0;
},
{
color = 1;
glyphname = zero;
lastChange = "2015-11-05 07:49:53 +0000";
layers = (
{
guideLines = (
{
position = "{295, 547}";
}
);
layerId = "CC11FE7D-5FF0-4B40-9597-DFC61EB94F41";
name = "Light Condensed";
paths = (
{
closed = 1;
nodes = (
"478 124 OFFCURVE",
"399 29 OFFCURVE",
"294 29 CURVE SMOOTH",
"182 29 OFFCURVE",
"109 123 OFFCURVE",
"109 270 CURVE SMOOTH",
"109 423 OFFCURVE",
"179 510 OFFCURVE",
"295 510 CURVE SMOOTH",
"409 510 OFFCURVE",
"478 424 OFFCURVE",
"478 269 CURVE SMOOTH"
);
},
{
closed = 1;
nodes = (
"523 445 OFFCURVE",
"437 547 OFFCURVE",
"295 547 CURVE SMOOTH",
"154 547 OFFCURVE",
"64 442 OFFCURVE",
"64 269 CURVE SMOOTH",
"64 101 OFFCURVE",
"156 -8 OFFCURVE",
"293 -8 CURVE SMOOTH",
"425 -8 OFFCURVE",
"523 104 OFFCURVE",
"523 269 CURVE SMOOTH"
);
}
);
width = 588;
},
{
background = {
paths = (
{
closed = 1;
nodes = (
"485 826 OFFCURVE",
"419 715 OFFCURVE",
"281 715 CURVE SMOOTH",
"143 715 OFFCURVE",
"76 820 OFFCURVE",
"76 970 CURVE SMOOTH",
"76 1120 OFFCURVE",
"147 1225 OFFCURVE",
"281 1225 CURVE SMOOTH",
"417 1225 OFFCURVE",
"485 1120 OFFCURVE",
"485 970 CURVE SMOOTH"
);
},
{
closed = 1;
nodes = (
"475 124 OFFCURVE",
"396 29 OFFCURVE",
"281 29 CURVE SMOOTH",
"162 29 OFFCURVE",
"86 123 OFFCURVE",
"87 270 CURVE SMOOTH",
"88 423 OFFCURVE",
"159 509 OFFCURVE",
"282 510 CURVE SMOOTH",
"406 509 OFFCURVE",
"473 424 OFFCURVE",
"474 269 CURVE SMOOTH"
);
},
{
closed = 1;
nodes = (
"516 445 OFFCURVE",
"432 546 OFFCURVE",
"282 547 CURVE SMOOTH",
"134 546 OFFCURVE",
"45 442 OFFCURVE",
"44 269 CURVE SMOOTH",
"43 101 OFFCURVE",
"136 -8 OFFCURVE",
"280 -8 CURVE SMOOTH",
"420 -8 OFFCURVE",
"518 104 OFFCURVE",
"517 269 CURVE SMOOTH"
);
}
);
};
guideLines = (
{
position = "{82, 555}";
}
);
layerId = "6114C541-D024-4A3E-9713-6FAF49EAB318";
name = "Bold Condensed";
paths = (
{
closed = 1;
nodes = (
"402 153 OFFCURVE",
"354 95 OFFCURVE",
"284 95 CURVE SMOOTH",
"212 95 OFFCURVE",
"166 154 OFFCURVE",
"166 272 CURVE SMOOTH",
"166 375 OFFCURVE",
"205 444 OFFCURVE",
"286 445 CURVE SMOOTH",
"366 446 OFFCURVE",
"402 374 OFFCURVE",
"402 269 CURVE SMOOTH"
);
},
{
closed = 1;
nodes = (
"535 446 OFFCURVE",
"453 555 OFFCURVE",
"289 555 CURVE SMOOTH",
"126 555 OFFCURVE",
"33 441 OFFCURVE",
"33 269 CURVE SMOOTH",
"33 97 OFFCURVE",
"116 -15 OFFCURVE",
"282 -15 CURVE SMOOTH",
"445 -15 OFFCURVE",
"535 105 OFFCURVE",
"535 273 CURVE SMOOTH"
);
}
);
width = 568;
}
);
unicode = 0030;
},
{
color = 1;
glyphname = one;
lastChange = "2015-11-05 07:49:53 +0000";
layers = (
{
guideLines = (
{
position = "{209, 540}";
}
);
layerId = "CC11FE7D-5FF0-4B40-9597-DFC61EB94F41";
name = "Light Condensed";
paths = (
{
closed = 1;
nodes = (
"44 432 LINE",
"30 469 LINE",
"199 540 LINE",
"232 540 LINE",
"232 0 LINE",
"190 0 LINE",
"190 509 LINE",
"204 500 LINE"
);
},
{
closed = 1;
nodes = (
"72 33 LINE",
"315 33 LINE",
"315 0 LINE",
"72 0 LINE"
);
}
);
width = 375;
},
{
background = {
paths = (
{
closed = 1;
nodes = (
"55 363 LINE",
"15 466 LINE",
"184 540 LINE",
"307 540 LINE",
"307 0 LINE",
"175 0 LINE",
"175 479 LINE",
"211 424 LINE"
);
},
{
closed = 1;
nodes = (
"64 100 LINE",
"397 100 LINE",
"397 0 LINE",
"64 0 LINE"
);
}
);
};
layerId = "6114C541-D024-4A3E-9713-6FAF49EAB318";
name = "Bold Condensed";
paths = (
{
closed = 1;
nodes = (
"68 367 LINE",
"28 471 LINE",
"184 540 LINE",
"307 540 LINE",
"307 0 LINE",
"175 0 LINE",
"175 479 LINE",
"211 424 LINE"
);
},
{
closed = 1;
nodes = (
"74 100 LINE",
"392 100 LINE",
"392 0 LINE",
"74 0 LINE"
);
}
);
width = 422;
}
);
unicode = 0031;
},
{
color = 1;
glyphname = two;
lastChange = "2015-11-05 07:49:53 +0000";
layers = (
{
guideLines = (
{
position = "{272, 547}";
},
{
angle = 90;
position = "{27, 282}";
}
);
layerId = "CC11FE7D-5FF0-4B40-9597-DFC61EB94F41";
name = "Light Condensed";
paths = (
{
closed = 1;
nodes = (
"368 1 LINE",
"368 39 LINE",
"92 39 LINE",
"96 31 LINE",
"219 170 LINE SMOOTH",
"285 245 OFFCURVE",
"357 310 OFFCURVE",
"357 388 CURVE SMOOTH",
"357 490 OFFCURVE",
"276 547 OFFCURVE",
"190 547 CURVE SMOOTH",
"131 547 OFFCURVE",
"71 521 OFFCURVE",
"32 463 CURVE",
"67 444 LINE",
"97 488 OFFCURVE",
"145 510 OFFCURVE",
"189 510 CURVE SMOOTH",
"253 510 OFFCURVE",
"312 467 OFFCURVE",
"312 387 CURVE SMOOTH",
"312 325 OFFCURVE",
"264 273 OFFCURVE",
"197 201 CURVE SMOOTH",
"29 22 LINE",
"29 1 LINE"
);
}
);
width = 425;
},
{
background = {
paths = (
{
closed = 1;
nodes = (
"389 1 LINE",
"389 39 LINE",
"111 39 LINE",
"115 31 LINE",
"238 170 LINE SMOOTH",
"304 245 OFFCURVE",
"377 310 OFFCURVE",
"377 388 CURVE SMOOTH",
"377 490 OFFCURVE",
"296 547 OFFCURVE",
"210 547 CURVE SMOOTH",
"151 547 OFFCURVE",
"91 521 OFFCURVE",
"52 463 CURVE",
"87 444 LINE",
"117 488 OFFCURVE",
"165 510 OFFCURVE",
"209 510 CURVE SMOOTH",
"273 510 OFFCURVE",
"332 467 OFFCURVE",
"332 387 CURVE SMOOTH",
"332 325 OFFCURVE",
"283 273 OFFCURVE",
"216 201 CURVE SMOOTH",
"48 22 LINE",
"48 1 LINE"
);
},
{
closed = 1;
nodes = (
"425 0 LINE",
"425 110 LINE",
"181 110 LINE",
"191 86 LINE",
"248 136 LINE SMOOTH",
"332 209 OFFCURVE",
"411 290 OFFCURVE",
"411 385 CURVE SMOOTH",
"411 494 OFFCURVE",
"310 556 OFFCURVE",
"206 556 CURVE SMOOTH",
"129 556 OFFCURVE",
"50 522 OFFCURVE",
"10 448 CURVE",
"105 391 LINE",
"126 427 OFFCURVE",
"163 443 OFFCURVE",
"197 443 CURVE SMOOTH",
"240 443 OFFCURVE",
"279 417 OFFCURVE",
"279 370 CURVE SMOOTH",
"279 313 OFFCURVE",
"221 261 OFFCURVE",
"151 196 CURVE SMOOTH",
"21 74 LINE",
"21 0 LINE"
);
}
);
};
guideLines = (
{
position = "{40, 555}";
},
{
angle = 90;
position = "{26, 282}";
}
);
layerId = "6114C541-D024-4A3E-9713-6FAF49EAB318";
name = "Bold Condensed";
paths = (
{
closed = 1;
nodes = (
"413 0 LINE",
"413 110 LINE",
"181 110 LINE",
"200 86 LINE",
"249 143 LINE SMOOTH",
"308 212 OFFCURVE",
"400 298 OFFCURVE",
"400 385 CURVE SMOOTH",
"400 493 OFFCURVE",
"308 555 OFFCURVE",
"210 555 CURVE SMOOTH",
"138 555 OFFCURVE",
"63 522 OFFCURVE",
"19 448 CURVE",
"112 391 LINE",
"132 426 OFFCURVE",
"166 443 OFFCURVE",
"197 443 CURVE SMOOTH",
"234 443 OFFCURVE",
"268 418 OFFCURVE",
"268 374 CURVE SMOOTH",
"268 321 OFFCURVE",
"216 273 OFFCURVE",
"151 203 CURVE SMOOTH",
"31 74 LINE",
"31 0 LINE"
);
}
);
width = 453;
}
);
unicode = 0032;
},
{
color = 1;
glyphname = three;
lastChange = "2015-11-05 07:49:53 +0000";
layers = (
{
guideLines = (
{
position = "{239, 547}";
},
{
position = "{189, -142}";
}
);
layerId = "CC11FE7D-5FF0-4B40-9597-DFC61EB94F41";
name = "Light Condensed";
paths = (
{
closed = 1;
nodes = (
"118 -142 OFFCURVE",
"173 -142 CURVE SMOOTH",
"282 -142 OFFCURVE",
"380 -65 OFFCURVE",
"380 60 CURVE SMOOTH",
"380 152 OFFCURVE",
"316 235 OFFCURVE",
"193 235 CURVE",
"193 223 LINE",
"293 223 OFFCURVE",
"353 303 OFFCURVE",
"353 388 CURVE SMOOTH",
"353 488 OFFCURVE",
"270 547 OFFCURVE",
"185 547 CURVE SMOOTH",
"126 547 OFFCURVE",
"67 520 OFFCURVE",
"31 459 CURVE",
"68 441 LINE",
"96 488 OFFCURVE",
"141 510 OFFCURVE",
"185 510 CURVE SMOOTH",
"248 510 OFFCURVE",
"308 464 OFFCURVE",
"308 385 CURVE SMOOTH",
"308 312 OFFCURVE",
"256 244 OFFCURVE",
"160 244 CURVE SMOOTH",
"121 244 LINE",
"121 208 LINE",
"183 208 LINE SMOOTH",
"282 208 OFFCURVE",
"335 137 OFFCURVE",
"335 58 CURVE SMOOTH",
"335 -42 OFFCURVE",
"260 -104 OFFCURVE",
"174 -104 CURVE SMOOTH",
"129 -104 OFFCURVE",
"81 -87 OFFCURVE",
"39 -50 CURVE",
"10 -80 LINE",
"60 -123 OFFCURVE"
);
}
);
width = 415;
},
{
background = {
paths = (
{
closed = 1;
nodes = (
"144 -151 OFFCURVE",
"211 -151 CURVE SMOOTH",
"329 -151 OFFCURVE",
"429 -73 OFFCURVE",
"429 62 CURVE SMOOTH",
"429 152 OFFCURVE",
"361 238 OFFCURVE",
"218 238 CURVE",
"219 211 LINE",
"344 211 OFFCURVE",
"407 297 OFFCURVE",
"407 381 CURVE SMOOTH",
"407 492 OFFCURVE",
"311 555 OFFCURVE",
"212 555 CURVE SMOOTH",
"140 555 OFFCURVE",
"66 522 OFFCURVE",
"25 448 CURVE",
"117 390 LINE",
"140 427 OFFCURVE",
"172 445 OFFCURVE",
"202 445 CURVE SMOOTH",
"241 445 OFFCURVE",
"275 415 OFFCURVE",
"275 360 CURVE SMOOTH",
"275 309 OFFCURVE",
"246 264 OFFCURVE",
"165 264 CURVE SMOOTH",
"128 264 LINE",
"128 162 LINE",
"180 162 LINE SMOOTH",
"259 162 OFFCURVE",
"296 112 OFFCURVE",
"296 60 CURVE SMOOTH",
"296 -3 OFFCURVE",
"256 -36 OFFCURVE",
"204 -36 CURVE SMOOTH",
"165 -36 OFFCURVE",
"119 -18 OFFCURVE",
"78 19 CURVE",
"7 -73 LINE",
"71 -126 OFFCURVE"
);
}
);
};
guideLines = (
{
position = "{80, 555}";
},
{
position = "{194, -150}";
}
);
layerId = "6114C541-D024-4A3E-9713-6FAF49EAB318";
name = "Bold Condensed";
paths = (
{
closed = 1;
nodes = (
"138 -150 OFFCURVE",
"205 -150 CURVE SMOOTH",
"324 -150 OFFCURVE",
"429 -77 OFFCURVE",
"429 62 CURVE SMOOTH",
"429 152 OFFCURVE",
"361 238 OFFCURVE",
"218 238 CURVE",
"219 211 LINE",
"344 211 OFFCURVE",
"407 297 OFFCURVE",
"407 381 CURVE SMOOTH",
"407 494 OFFCURVE",
"313 555 OFFCURVE",
"212 555 CURVE SMOOTH",
"140 555 OFFCURVE",
"66 522 OFFCURVE",
"25 448 CURVE",
"117 390 LINE",
"140 427 OFFCURVE",
"172 445 OFFCURVE",
"202 445 CURVE SMOOTH",
"241 445 OFFCURVE",
"275 415 OFFCURVE",
"275 360 CURVE SMOOTH",
"275 309 OFFCURVE",
"246 264 OFFCURVE",
"165 264 CURVE SMOOTH",
"128 264 LINE",
"128 162 LINE",
"180 162 LINE SMOOTH",
"259 162 OFFCURVE",
"296 112 OFFCURVE",
"296 60 CURVE SMOOTH",
"296 -6 OFFCURVE",
"253 -35 OFFCURVE",
"200 -35 CURVE SMOOTH",
"159 -35 OFFCURVE",
"113 -19 OFFCURVE",
"76 11 CURVE",
"7 -80 LINE",
"67 -127 OFFCURVE"
);
}
);
width = 464;
}
);
unicode = 0033;
},
{
color = 1;
glyphname = four;
lastChange = "2015-11-05 07:49:53 +0000";
layers = (
{
guideLines = (
{
position = "{287, 540}";
},
{
position = "{199, -135}";
}
);
layerId = "CC11FE7D-5FF0-4B40-9597-DFC61EB94F41";
name = "Light Condensed";
paths = (
{
closed = 1;
nodes = (
"371 -135 LINE",
"371 540 LINE",
"334 540 LINE",
"28 78 LINE",
"35 47 LINE",
"474 48 LINE",
"474 85 LINE",
"70 84 LINE",
"77 78 LINE",
"340 478 LINE",
"329 478 LINE",
"329 -135 LINE"
);
}
);
width = 494;
},
{
guideLines = (
{
position = "{183, -135}";
}
);
layerId = "6114C541-D024-4A3E-9713-6FAF49EAB318";
name = "Bold Condensed";
paths = (
{
closed = 1;
nodes = (
"418 -135 LINE",
"418 540 LINE",
"295 540 LINE",
"14 99 LINE",
"31 5 LINE",
"495 5 LINE",
"495 115 LINE",
"90 115 LINE",
"110 80 LINE",
"340 437 LINE",
"286 437 LINE",
"286 -135 LINE"
);
}
);
width = 505;
}
);
unicode = 0034;
},
{
color = 1;
glyphname = five;
lastChange = "2015-11-05 07:49:53 +0000";
layers = (
{
guideLines = (
{
position = "{293, 540}";
},
{
angle = 90;
position = "{58, 150}";
},
{
angle = 90;
position = "{345, 150}";
},
{
position = "{199, -142}";
}
);
layerId = "CC11FE7D-5FF0-4B40-9597-DFC61EB94F41";
name = "Light Condensed";
paths = (
{
closed = 1;
nodes = (
"120 -142 OFFCURVE",
"164 -142 CURVE SMOOTH",
"308 -142 OFFCURVE",
"379 -29 OFFCURVE",
"379 82 CURVE SMOOTH",
"379 191 OFFCURVE",
"310 297 OFFCURVE",
"168 297 CURVE SMOOTH",
"148 297 OFFCURVE",
"127 295 OFFCURVE",
"106 290 CURVE",
"106 503 LINE",
"336 503 LINE",
"336 540 LINE",
"64 540 LINE",
"64 245 LINE",
"96 256 OFFCURVE",
"127 261 OFFCURVE",
"155 261 CURVE SMOOTH",
"278 261 OFFCURVE",
"335 171 OFFCURVE",
"335 81 CURVE SMOOTH",
"335 -11 OFFCURVE",
"278 -104 OFFCURVE",
"168 -104 CURVE SMOOTH",
"132 -104 OFFCURVE",
"92 -92 OFFCURVE",
"53 -67 CURVE",
"28 -100 LINE",
"72 -129 OFFCURVE"
);
}
);
width = 423;
},
{
background = {
paths = (
{
closed = 1;
nodes = (
"159 -150 OFFCURVE",
"218 -150 CURVE SMOOTH",
"344 -150 OFFCURVE",
"450 -64 OFFCURVE",
"450 89 CURVE SMOOTH",
"450 220 OFFCURVE",
"356 301 OFFCURVE",
"227 302 CURVE SMOOTH",
"220 302 OFFCURVE",
"213 302 OFFCURVE",
"208 302 CURVE",
"208 430 LINE",
"412 431 LINE",
"412 541 LINE",
"76 540 LINE",
"76 191 LINE",
"104 198 OFFCURVE",
"136 201 OFFCURVE",
"165 201 CURVE SMOOTH",
"247 201 OFFCURVE",
"311 163 OFFCURVE",
"311 85 CURVE SMOOTH",
"311 -38 OFFCURVE",
"201 -66 OFFCURVE",
"87 5 CURVE",
"32 -95 LINE",
"94 -132 OFFCURVE"
);
},
{
closed = 1;
nodes = (
"170 -142 OFFCURVE",
"214 -142 CURVE SMOOTH",
"358 -142 OFFCURVE",
"429 -29 OFFCURVE",
"429 82 CURVE SMOOTH",
"429 191 OFFCURVE",
"360 297 OFFCURVE",
"218 297 CURVE SMOOTH",
"198 297 OFFCURVE",
"177 295 OFFCURVE",
"156 290 CURVE",
"156 503 LINE",
"386 503 LINE",
"386 540 LINE",
"114 540 LINE",
"114 245 LINE",
"146 256 OFFCURVE",
"177 261 OFFCURVE",
"205 261 CURVE SMOOTH",
"328 261 OFFCURVE",
"385 171 OFFCURVE",
"385 81 CURVE SMOOTH",
"385 -11 OFFCURVE",
"328 -104 OFFCURVE",
"218 -104 CURVE SMOOTH",
"182 -104 OFFCURVE",
"142 -92 OFFCURVE",
"103 -67 CURVE",
"78 -100 LINE",
"122 -129 OFFCURVE"
);
}
);
};
guideLines = (
{
angle = 90;
position = "{69, 142}";
},
{
angle = 90;
position = "{428, 150}";
},
{
position = "{192, -135}";
},
{
position = "{192, -150}";
}
);
layerId = "6114C541-D024-4A3E-9713-6FAF49EAB318";
name = "Bold Condensed";
paths = (
{
closed = 1;
nodes = (
"159 -150 OFFCURVE",
"218 -150 CURVE SMOOTH",
"380 -150 OFFCURVE",
"451 -30 OFFCURVE",
"451 87 CURVE SMOOTH",
"451 191 OFFCURVE",
"380 296 OFFCURVE",
"231 297 CURVE SMOOTH",
"224 297 OFFCURVE",
"213 297 OFFCURVE",
"208 297 CURVE",
"208 430 LINE",
"412 431 LINE",
"412 541 LINE",
"76 540 LINE",
"76 186 LINE",
"104 193 OFFCURVE",
"136 196 OFFCURVE",
"165 196 CURVE SMOOTH",
"267 196 OFFCURVE",
"311 143 OFFCURVE",
"311 84 CURVE SMOOTH",
"311 5 OFFCURVE",
"263 -35 OFFCURVE",
"199 -35 CURVE SMOOTH",
"165 -35 OFFCURVE",
"126 -24 OFFCURVE",
"87 1 CURVE",
"32 -95 LINE",
"94 -132 OFFCURVE"
);
}
);
width = 476;
}
);
unicode = 0035;
},
{
color = 1;
glyphname = six;
lastChange = "2015-11-05 07:49:53 +0000";
layers = (
{
layerId = "CC11FE7D-5FF0-4B40-9597-DFC61EB94F41";
name = "Light Condensed";
paths = (
{
closed = 1;
nodes = (
"391 -7 OFFCURVE",
"463 109 OFFCURVE",
"463 211 CURVE SMOOTH",
"463 355 OFFCURVE",
"366 431 OFFCURVE",
"270 431 CURVE SMOOTH",
"200 431 OFFCURVE",
"124 388 OFFCURVE",
"89 296 CURVE",
"100 295 LINE",
"96 457 OFFCURVE",
"140 645 OFFCURVE",
"292 645 CURVE SMOOTH",
"337 645 OFFCURVE",
"381 626 OFFCURVE",
"409 590 CURVE",
"439 614 LINE",
"405 658 OFFCURVE",
"351 682 OFFCURVE",
"295 682 CURVE SMOOTH",
"121 682 OFFCURVE",
"56 494 OFFCURVE",
"56 295 CURVE SMOOTH",
"56 130 OFFCURVE",
"120 -7 OFFCURVE",
"260 -7 CURVE SMOOTH"
);
},
{
closed = 1;
nodes = (
"186 30 OFFCURVE",
"108 101 OFFCURVE",
"108 213 CURVE SMOOTH",
"108 340 OFFCURVE",
"192 394 OFFCURVE",
"268 394 CURVE SMOOTH",
"343 394 OFFCURVE",
"419 336 OFFCURVE",
"419 209 CURVE SMOOTH",
"419 94 OFFCURVE",
"339 30 OFFCURVE",
"262 30 CURVE SMOOTH"
);
}
);
width = 523;
},
{
background = {
paths = (
{
closed = 1;
nodes = (
"402 -15 OFFCURVE",
"477 102 OFFCURVE",
"477 230 CURVE SMOOTH",
"477 368 OFFCURVE",
"380 447 OFFCURVE",
"292 447 CURVE SMOOTH",
"229 447 OFFCURVE",
"170 412 OFFCURVE",
"136 333 CURVE",
"165 333 LINE",
"165 464 OFFCURVE",
"186 581 OFFCURVE",
"290 581 CURVE SMOOTH",
"323 581 OFFCURVE",
"353 565 OFFCURVE",
"384 531 CURVE",
"468 595 LINE",
"423 661 OFFCURVE",
"359 691 OFFCURVE",
"284 691 CURVE SMOOTH",
"110 691 OFFCURVE",
"33 510 OFFCURVE",
"33 318 CURVE SMOOTH",
"33 104 OFFCURVE",
"104 -15 OFFCURVE",
"256 -15 CURVE SMOOTH"
);
},
{
closed = 1;
nodes = (
"206 95 OFFCURVE",
"172 133 OFFCURVE",
"172 217 CURVE SMOOTH",
"172 300 OFFCURVE",
"207 339 OFFCURVE",
"258 339 CURVE SMOOTH",
"312 339 OFFCURVE",
"343 301 OFFCURVE",
"343 214 CURVE SMOOTH",
"343 133 OFFCURVE",
"311 95 OFFCURVE",
"257 95 CURVE SMOOTH"
);
}
);
};
layerId = "6114C541-D024-4A3E-9713-6FAF49EAB318";
name = "Bold Condensed";
paths = (
{
closed = 1;
nodes = (
"402 -15 OFFCURVE",
"477 102 OFFCURVE",
"477 230 CURVE SMOOTH",
"477 364 OFFCURVE",
"383 446 OFFCURVE",
"289 446 CURVE SMOOTH",
"228 446 OFFCURVE",
"167 411 OFFCURVE",
"133 333 CURVE",
"165 333 LINE",
"165 449 OFFCURVE",
"184 581 OFFCURVE",
"285 581 CURVE SMOOTH",
"318 581 OFFCURVE",
"354 564 OFFCURVE",
"384 530 CURVE",
"468 595 LINE",
"424 657 OFFCURVE",
"354 690 OFFCURVE",
"285 690 CURVE SMOOTH",
"113 690 OFFCURVE",
"33 514 OFFCURVE",
"33 318 CURVE SMOOTH",
"33 104 OFFCURVE",
"108 -15 OFFCURVE",
"256 -15 CURVE SMOOTH"
);
},
{
closed = 1;
nodes = (
"208 95 OFFCURVE",
"172 135 OFFCURVE",
"172 217 CURVE SMOOTH",
"172 299 OFFCURVE",
"208 340 OFFCURVE",
"257 340 CURVE SMOOTH",
"307 340 OFFCURVE",
"343 299 OFFCURVE",
"343 216 CURVE SMOOTH",
"343 135 OFFCURVE",
"307 95 OFFCURVE",
"258 95 CURVE SMOOTH"
);
}
);
width = 507;
}
);
unicode = 0036;
},
{
color = 1;
glyphname = seven;
lastChange = "2015-11-05 07:49:53 +0000";
layers = (
{
guideLines = (
{
position = "{221, 540}";
}
);
layerId = "CC11FE7D-5FF0-4B40-9597-DFC61EB94F41";
name = "Light Condensed";
paths = (
{
closed = 1;
nodes = (
"197 62 OFFCURVE",
"269 272 OFFCURVE",
"372 507 CURVE",
"372 540 LINE",
"10 540 LINE",
"10 498 LINE",
"332 498 LINE",
"327 505 LINE",
"236 296 OFFCURVE",
"159 94 OFFCURVE",
"95 -129 CURVE",
"141 -140 LINE"
);
}
);
width = 390;
},
{
background = {
paths = (
{
closed = 1;
nodes = (
"225 62 OFFCURVE",
"297 272 OFFCURVE",
"400 507 CURVE",
"400 540 LINE",
"38 540 LINE",
"38 498 LINE",
"360 498 LINE",
"355 505 LINE",
"264 296 OFFCURVE",
"187 94 OFFCURVE",
"123 -129 CURVE",
"169 -140 LINE"
);
}
);
};
guideLines = (
{
position = "{-1, 541}";
}
);
layerId = "6114C541-D024-4A3E-9713-6FAF49EAB318";
name = "Bold Condensed";
paths = (
{
closed = 1;
nodes = (
"261 52 OFFCURVE",
"335 249 OFFCURVE",
"427 455 CURVE",
"427 541 LINE",
"15 541 LINE",
"15 416 LINE",
"298 416 LINE",
"296 466 LINE",
"203 255 OFFCURVE",
"124 55 OFFCURVE",
"76 -136 CURVE",
"214 -134 LINE"
);
}
);
width = 437;
}
);
unicode = 0037;
},
{
color = 1;
glyphname = eight;
lastChange = "2015-11-05 07:49:53 +0000";
layers = (
{
guideLines = (
{
position = "{256, 547}";
}
);
layerId = "CC11FE7D-5FF0-4B40-9597-DFC61EB94F41";
name = "Light Condensed";
paths = (
{
closed = 1;
nodes = (
"331 -7 OFFCURVE",
"426 64 OFFCURVE",
"426 177 CURVE SMOOTH",
"426 280 OFFCURVE",
"362 349 OFFCURVE",
"294 359 CURVE",
"357 377 OFFCURVE",
"404 436 OFFCURVE",
"404 518 CURVE SMOOTH",
"404 627 OFFCURVE",
"328 682 OFFCURVE",
"235 682 CURVE SMOOTH",
"141 682 OFFCURVE",
"57 626 OFFCURVE",
"57 514 CURVE SMOOTH",
"57 431 OFFCURVE",
"111 377 OFFCURVE",
"163 362 CURVE",
"100 343 OFFCURVE",
"33 276 OFFCURVE",
"33 178 CURVE SMOOTH",
"33 64 OFFCURVE",
"118 -7 OFFCURVE",
"225 -7 CURVE SMOOTH"
);
},
{
closed = 1;
nodes = (
"145 30 OFFCURVE",
"76 89 OFFCURVE",
"76 179 CURVE SMOOTH",
"76 285 OFFCURVE",
"146 342 OFFCURVE",
"229 342 CURVE SMOOTH",
"312 342 OFFCURVE",
"382 285 OFFCURVE",
"382 178 CURVE SMOOTH",
"382 89 OFFCURVE",
"313 30 OFFCURVE",
"229 30 CURVE SMOOTH"
);
},
{
closed = 1;
nodes = (
"160 378 OFFCURVE",
"100 425 OFFCURVE",
"100 515 CURVE SMOOTH",
"100 604 OFFCURVE",
"159 647 OFFCURVE",
"232 647 CURVE SMOOTH",
"305 647 OFFCURVE",
"363 605 OFFCURVE",
"363 518 CURVE SMOOTH",
"363 426 OFFCURVE",
"306 378 OFFCURVE",
"232 378 CURVE SMOOTH"
);
}
);
width = 459;
},
{
background = {
paths = (
{
closed = 0;
nodes = (
"302 369 LINE",
"379 394 OFFCURVE",
"417 459 OFFCURVE",
"417 522 CURVE SMOOTH",
"417 593 OFFCURVE",
"369 659 OFFCURVE",
"274 659 CURVE SMOOTH",
"199 659 OFFCURVE",
"123 612 OFFCURVE",
"123 518 CURVE SMOOTH",
"123 323 OFFCURVE",
"445 400 OFFCURVE",
"445 187 CURVE SMOOTH",
"445 84 OFFCURVE",
"360 34 OFFCURVE",
"274 34 CURVE SMOOTH",
"160 34 OFFCURVE",
"100 107 OFFCURVE",
"100 188 CURVE SMOOTH",
"100 252 OFFCURVE",
"137 321 OFFCURVE",
"215 364 CURVE SMOOTH"
);
},
{
closed = 1;
nodes = (
"148 -15 OFFCURVE",
"264 -15 CURVE SMOOTH",
"382 -15 OFFCURVE",
"500 49 OFFCURVE",
"500 178 CURVE SMOOTH",
"500 309 OFFCURVE",
"386 362 OFFCURVE",
"304 391 CURVE SMOOTH",
"227 419 OFFCURVE",
"189 458 OFFCURVE",
"189 502 CURVE SMOOTH",
"189 545 OFFCURVE",
"218 580 OFFCURVE",
"272 580 CURVE SMOOTH",
"321 580 OFFCURVE",
"350 545 OFFCURVE",
"350 504 CURVE SMOOTH",
"350 459 OFFCURVE",
"315 419 OFFCURVE",
"259 399 CURVE",
"300 329 LINE",
"419 354 OFFCURVE",
"477 428 OFFCURVE",
"477 511 CURVE SMOOTH",
"477 630 OFFCURVE",
"375 690 OFFCURVE",
"272 690 CURVE SMOOTH",
"164 690 OFFCURVE",
"59 628 OFFCURVE",
"59 503 CURVE SMOOTH",
"59 386 OFFCURVE",
"172 313 OFFCURVE",
"259 284 CURVE SMOOTH",
"339 257 OFFCURVE",
"368 213 OFFCURVE",
"368 180 CURVE SMOOTH",
"368 132 OFFCURVE",
"331 89 OFFCURVE",
"268 89 CURVE SMOOTH",
"197 89 OFFCURVE",
"163 137 OFFCURVE",
"163 190 CURVE SMOOTH",
"163 228 OFFCURVE",
"205 287 OFFCURVE",
"270 307 CURVE",
"208 380 LINE",
"95 336 OFFCURVE",
"33 250 OFFCURVE",
"33 174 CURVE SMOOTH",
"33 48 OFFCURVE"
);
}
);
};
layerId = "6114C541-D024-4A3E-9713-6FAF49EAB318";
name = "Bold Condensed";
paths = (
{
closed = 1;
nodes = (
"425 -15 OFFCURVE",
"504 83 OFFCURVE",
"504 184 CURVE SMOOTH",
"504 257 OFFCURVE",
"466 324 OFFCURVE",
"385 358 CURVE",
"449 393 OFFCURVE",
"478 450 OFFCURVE",
"478 510 CURVE SMOOTH",
"478 601 OFFCURVE",
"410 690 OFFCURVE",
"272 690 CURVE SMOOTH",
"131 690 OFFCURVE",
"56 599 OFFCURVE",
"56 504 CURVE SMOOTH",
"56 448 OFFCURVE",
"82 394 OFFCURVE",
"138 356 CURVE",
"64 316 OFFCURVE",
"29 250 OFFCURVE",
"29 179 CURVE SMOOTH",
"29 78 OFFCURVE",
"107 -15 OFFCURVE",
"264 -15 CURVE SMOOTH"
);
},
{
closed = 1;
nodes = (
"190 95 OFFCURVE",
"159 146 OFFCURVE",
"159 197 CURVE SMOOTH",
"159 249 OFFCURVE",
"191 301 OFFCURVE",
"265 301 CURVE SMOOTH",
"339 301 OFFCURVE",
"371 247 OFFCURVE",
"371 194 CURVE SMOOTH",
"371 144 OFFCURVE",
"343 95 OFFCURVE",
"268 95 CURVE SMOOTH"
);
},
{
closed = 1;
nodes = (
"210 399 OFFCURVE",
"185 446 OFFCURVE",
"185 492 CURVE SMOOTH",
"185 536 OFFCURVE",
"208 580 OFFCURVE",
"272 580 CURVE SMOOTH",
"332 580 OFFCURVE",
"353 537 OFFCURVE",
"353 493 CURVE SMOOTH",
"353 447 OFFCURVE",
"329 399 OFFCURVE",
"269 399 CURVE SMOOTH"
);
}
);
width = 533;
}
);
unicode = 0038;
},
{
color = 1;
glyphname = nine;
lastChange = "2015-11-05 07:49:53 +0000";
layers = (
{
guideLines = (
{
position = "{293, 547}";
},
{
position = "{191, -142}";
}
);
layerId = "CC11FE7D-5FF0-4B40-9597-DFC61EB94F41";
name = "Light Condensed";
paths = (
{
closed = 1;
nodes = (
"129 547 OFFCURVE",
"57 439 OFFCURVE",
"57 329 CURVE SMOOTH",
"57 195 OFFCURVE",
"147 112 OFFCURVE",
"250 112 CURVE SMOOTH",
"317 112 OFFCURVE",
"392 154 OFFCURVE",
"427 246 CURVE",
"418 247 LINE",
"422 72 OFFCURVE",
"374 -105 OFFCURVE",
"227 -105 CURVE SMOOTH",
"189 -105 OFFCURVE",
"142 -88 OFFCURVE",
"113 -50 CURVE",
"83 -74 LINE",
"117 -119 OFFCURVE",
"173 -142 OFFCURVE",
"224 -142 CURVE SMOOTH",
"388 -142 OFFCURVE",
"462 35 OFFCURVE",
"462 252 CURVE SMOOTH",
"462 422 OFFCURVE",
"399 547 OFFCURVE",
"259 547 CURVE SMOOTH"
);
},
{
closed = 1;
nodes = (
"182 510 OFFCURVE",
"257 510 CURVE SMOOTH",
"332 510 OFFCURVE",
"410 448 OFFCURVE",
"410 332 CURVE SMOOTH",
"410 207 OFFCURVE",
"328 149 OFFCURVE",
"251 149 CURVE SMOOTH",
"177 149 OFFCURVE",
"101 207 OFFCURVE",
"101 332 CURVE SMOOTH",
"101 457 OFFCURVE"
);
}
);
width = 522;
},
{
background = {
paths = (
{
closed = 1;
nodes = (
"102 555 OFFCURVE",
"30 436 OFFCURVE",
"30 307 CURVE SMOOTH",
"30 165 OFFCURVE",
"122 91 OFFCURVE",
"215 91 CURVE SMOOTH",
"280 91 OFFCURVE",
"335 126 OFFCURVE",
"369 205 CURVE",
"340 205 LINE",
"340 88 OFFCURVE",
"333 -40 OFFCURVE",
"217 -40 CURVE SMOOTH",
"181 -40 OFFCURVE",
"140 -15 OFFCURVE",
"114 16 CURVE",
"33 -45 LINE",
"78 -113 OFFCURVE",
"145 -150 OFFCURVE",
"224 -150 CURVE SMOOTH",
"409 -150 OFFCURVE",
"475 37 OFFCURVE",
"475 217 CURVE SMOOTH",
"475 428 OFFCURVE",
"406 555 OFFCURVE",
"251 555 CURVE SMOOTH"
);
},
{
closed = 1;
nodes = (
"196 445 OFFCURVE",
"250 445 CURVE SMOOTH",
"305 445 OFFCURVE",
"336 402 OFFCURVE",
"336 320 CURVE SMOOTH",
"336 230 OFFCURVE",
"306 198 OFFCURVE",
"249 198 CURVE SMOOTH",
"195 198 OFFCURVE",
"164 231 OFFCURVE",
"164 323 CURVE SMOOTH",
"164 402 OFFCURVE"
);
}
);
};
guideLines = (
{
position = "{74, 555}";
},
{
position = "{191, -150}";
}
);
layerId = "6114C541-D024-4A3E-9713-6FAF49EAB318";
name = "Bold Condensed";
paths = (
{
closed = 1;
nodes = (
"102 555 OFFCURVE",
"30 436 OFFCURVE",
"30 307 CURVE SMOOTH",
"30 172 OFFCURVE",
"122 92 OFFCURVE",
"214 92 CURVE SMOOTH",
"276 92 OFFCURVE",
"338 128 OFFCURVE",
"372 208 CURVE",
"340 205 LINE",
"340 89 OFFCURVE",
"329 -40 OFFCURVE",
"223 -40 CURVE SMOOTH",
"185 -40 OFFCURVE",
"142 -20 OFFCURVE",
"111 17 CURVE",
"33 -45 LINE",
"81 -114 OFFCURVE",
"154 -150 OFFCURVE",
"227 -150 CURVE SMOOTH",
"399 -150 OFFCURVE",
"475 23 OFFCURVE",
"475 217 CURVE SMOOTH",
"475 428 OFFCURVE",
"406 555 OFFCURVE",
"251 555 CURVE SMOOTH"
);
},
{
closed = 1;
nodes = (
"200 445 OFFCURVE",
"250 445 CURVE SMOOTH",
"300 445 OFFCURVE",
"336 408 OFFCURVE",
"336 322 CURVE SMOOTH",
"336 236 OFFCURVE",
"300 198 OFFCURVE",
"250 198 CURVE SMOOTH",
"200 198 OFFCURVE",
"164 236 OFFCURVE",
"164 322 CURVE SMOOTH",
"164 408 OFFCURVE"
);
}
);
width = 508;
}
);
unicode = 0039;
},
{
color = 1;
glyphname = fraction;
lastChange = "2015-11-05 07:49:53 +0000";
layers = (
{
layerId = "CC11FE7D-5FF0-4B40-9597-DFC61EB94F41";
name = "Light Condensed";
paths = (
{
closed = 1;
nodes = (
"70 -11 LINE",
"29 -10 LINE",
"446 735 LINE",
"485 735 LINE"
);
}
);
width = 529;
},
{
background = {
paths = (
{
closed = 1;
nodes = (
"110 -11 LINE",
"70 -10 LINE",
"487 735 LINE",
"525 735 LINE"
);
}
);
};
layerId = "6114C541-D024-4A3E-9713-6FAF49EAB318";
name = "Bold Condensed";
paths = (
{
closed = 1;
nodes = (
"141 -11 LINE",
"20 -10 LINE",
"437 735 LINE",
"556 735 LINE"
);
}
);
width = 576;
}
);
unicode = 2044;
},
{
color = 1;
glyphname = onequarter;
lastChange = "2015-11-05 07:49:53 +0000";
layers = (
{
components = (
{
name = fraction;
transform = "{1, 0, 0, 1, 116, 0}";
},
{
disableAlignment = 1;
name = onesuperior;
transform = "{1, 0, 0, 1, -15, 0}";
}
);
layerId = "CC11FE7D-5FF0-4B40-9597-DFC61EB94F41";
name = "Light Condensed";
paths = (
{
closed = 1;
nodes = (
"670 0 LINE",
"670 407 LINE",
"629 407 LINE",
"439 128 LINE",
"443 103 LINE",
"719 104 LINE",
"719 136 LINE",
"469 136 LINE",
"479 128 LINE",
"643 369 LINE",
"632 369 LINE",
"632 0 LINE"
);
}
);
width = 749;
},
{
components = (
{
name = fraction;
transform = "{1, 0, 0, 1, 144, 0}";
},
{
disableAlignment = 1;
name = onesuperior;
transform = "{1, 0, 0, 1, -21, 0}";
}
);
layerId = "6114C541-D024-4A3E-9713-6FAF49EAB318";
name = "Bold Condensed";
paths = (
{
closed = 1;
nodes = (
"822 1 LINE",
"822 408 LINE",
"683 408 LINE",
"519 142 LINE",
"530 70 LINE",
"873 70 LINE",
"873 160 LINE",
"591 160 LINE",
"613 130 LINE",
"736 346 LINE",
"711 346 LINE",
"711 1 LINE"
);
}
);
width = 888;
}
);
unicode = 00BC;
},
{
color = 1;
glyphname = threequarters;
lastChange = "2015-11-05 07:49:53 +0000";
layers = (
{
components = (
{
disableAlignment = 1;
name = threesuperior;
},
{
name = fraction;
transform = "{1, 0, 0, 1, 154, 0}";
}
);
layerId = "CC11FE7D-5FF0-4B40-9597-DFC61EB94F41";
name = "Light Condensed";
paths = (
{
closed = 1;
nodes = (
"706 0 LINE",
"706 407 LINE",
"665 407 LINE",
"475 128 LINE",
"479 103 LINE",
"755 104 LINE",
"755 136 LINE",
"505 136 LINE",
"515 128 LINE",
"679 369 LINE",
"668 369 LINE",
"668 0 LINE"
);
}
);
width = 785;
},
{
components = (
{
disableAlignment = 1;
name = threesuperior;
transform = "{1, 0, 0, 1, -2, 0}";
},
{
name = fraction;
transform = "{1, 0, 0, 1, 159, 0}";
}
);
layerId = "6114C541-D024-4A3E-9713-6FAF49EAB318";
name = "Bold Condensed";
paths = (
{
closed = 1;
nodes = (
"834 1 LINE",
"834 408 LINE",
"695 408 LINE",
"531 142 LINE",
"542 70 LINE",
"885 70 LINE",
"885 160 LINE",
"603 160 LINE",
"625 130 LINE",
"748 346 LINE",
"723 346 LINE",
"723 1 LINE"
);
}
);
width = 900;
}
);
unicode = 00BE;
},
{
color = 1;
glyphname = onesuperior;
lastChange = "2015-11-05 07:49:53 +0000";
layers = (
{
layerId = "CC11FE7D-5FF0-4B40-9597-DFC61EB94F41";
name = "Light Condensed";
paths = (
{
closed = 1;
nodes = (
"42 590 LINE",
"30 622 LINE",
"157 675 LINE",
"186 675 LINE",
"186 270 LINE",
"148 270 LINE",
"148 652 LINE",
"162 641 LINE"
);
},
{
closed = 1;
nodes = (
"61 301 LINE",
"247 301 LINE",
"247 270 LINE",
"61 270 LINE"
);
}
);
width = 307;
},
{
background = {
paths = (
{
closed = 1;
nodes = (
"65 545 LINE",
"35 623 LINE",
"152 675 LINE",
"251 675 LINE",
"251 270 LINE",
"141 270 LINE",
"141 629 LINE",
"173 588 LINE"
);
},
{
closed = 1;
nodes = (
"70 358 LINE",
"309 358 LINE",
"309 270 LINE",
"70 270 LINE"
);
}
);
};
layerId = "6114C541-D024-4A3E-9713-6FAF49EAB318";
name = "Bold Condensed";
paths = (
{
closed = 1;
nodes = (
"63 534 LINE",
"28 622 LINE",
"152 675 LINE",
"251 675 LINE",
"251 270 LINE",
"141 270 LINE",
"141 629 LINE",
"175 577 LINE"
);
},
{
closed = 1;
nodes = (
"63 358 LINE",
"312 358 LINE",
"312 270 LINE",
"63 270 LINE"
);
}
);
width = 342;
}
);
leftMetricsKey = one;
rightMetricsKey = one;
unicode = 00B9;
},
{
color = 1;
glyphname = twosuperior;
lastChange = "2015-11-05 07:49:53 +0000";
layers = (
{
guideLines = (
{
position = "{33, 270}";
}
);
layerId = "CC11FE7D-5FF0-4B40-9597-DFC61EB94F41";
name = "Light Condensed";
paths = (
{
closed = 1;
nodes = (
"285 270 LINE",
"285 305 LINE",
"76 305 LINE",
"81 293 LINE",
"174 399 LINE SMOOTH",
"224 455 OFFCURVE",
"279 504 OFFCURVE",
"279 562 CURVE SMOOTH",
"279 638 OFFCURVE",
"217 682 OFFCURVE",
"152 682 CURVE SMOOTH",
"107 682 OFFCURVE",
"61 662 OFFCURVE",
"31 619 CURVE",
"62 601 LINE",
"84 634 OFFCURVE",
"118 650 OFFCURVE",
"150 650 CURVE SMOOTH",
"197 650 OFFCURVE",
"240 618 OFFCURVE",
"240 562 CURVE SMOOTH",
"240 515 OFFCURVE",
"202 477 OFFCURVE",
"152 423 CURVE SMOOTH",
"29 289 LINE",
"29 270 LINE"
);
}
);
width = 342;
},
{
background = {
paths = (
{
closed = 1;
nodes = (
"324 270 LINE",
"324 363 LINE",
"150 363 LINE",
"166 334 LINE",
"203 378 LINE SMOOTH",
"247 430 OFFCURVE",
"319 497 OFFCURVE",
"319 562 CURVE SMOOTH",
"319 643 OFFCURVE",
"245 690 OFFCURVE",
"166 690 CURVE SMOOTH",
"112 690 OFFCURVE",
"56 665 OFFCURVE",
"23 609 CURVE",
"93 567 LINE",
"108 593 OFFCURVE",
"133 606 OFFCURVE",
"157 606 CURVE SMOOTH",
"183 606 OFFCURVE",
"206 587 OFFCURVE",
"206 554 CURVE SMOOTH",
"206 514 OFFCURVE",
"168 479 OFFCURVE",
"120 425 CURVE SMOOTH",
"32 325 LINE",
"32 270 LINE"
);
}
);
};
guideLines = (
{
position = "{30, 270}";
}
);
layerId = "6114C541-D024-4A3E-9713-6FAF49EAB318";
name = "Bold Condensed";
paths = (
{
closed = 1;
nodes = (
"326 270 LINE",
"326 365 LINE",
"150 365 LINE",
"167 334 LINE",
"204 378 LINE SMOOTH",
"246 428 OFFCURVE",
"319 483 OFFCURVE",
"319 558 CURVE SMOOTH",
"319 639 OFFCURVE",
"246 690 OFFCURVE",
"169 690 CURVE SMOOTH",
"110 690 OFFCURVE",
"52 663 OFFCURVE",
"19 605 CURVE",
"91 560 LINE",
"109 587 OFFCURVE",
"128 599 OFFCURVE",
"153 599 CURVE SMOOTH",
"181 599 OFFCURVE",
"206 584 OFFCURVE",
"206 554 CURVE SMOOTH",
"206 512 OFFCURVE",
"168 479 OFFCURVE",
"120 425 CURVE SMOOTH",
"32 325 LINE",
"32 270 LINE"
);
}
);
width = 366;
}
);
leftMetricsKey = two;
rightMetricsKey = two;
unicode = 00B2;
},
